{"glyphs":{"0":{"ha":764,"x_min":51,"x_max":708,"o":"m 450 951 q 550 931 503 951 q 633 875 597 910 q 688 793 668 840 q 708 692 708 746 l 708 258 q 688 158 708 206 q 633 76 668 111 q 550 21 597 42 q 450 0 503 0 l 308 0 q 208 21 256 0 q 126 76 161 42 q 72 158 92 111 q 51 258 51 206 l 51 692 q 72 793 51 746 q 126 875 92 840 q 208 931 161 910 q 308 951 256 951 l 450 951 m 547 664 q 538 709 547 688 q 513 747 529 731 q 476 773 497 764 q 431 782 456 782 l 328 782 q 282 773 303 782 q 245 747 261 764 q 220 709 229 731 q 211 664 211 688 l 211 288 q 220 242 211 264 q 245 203 229 219 q 282 178 261 188 q 328 169 303 169 l 431 169 q 476 178 456 169 q 513 203 497 188 q 538 242 529 219 q 547 288 547 264 l 547 664 z "},"1":{"ha":471,"x_min":65,"x_max":361,"o":"m 65 774 l 175 946 l 361 946 l 361 0 l 200 0 l 200 774 l 65 774 z "},"2":{"ha":675,"x_min":31,"x_max":647,"o":"m 40 210 q 228 363 138 283 q 403 519 319 442 q 441 558 425 540 q 467 593 457 575 q 481 633 476 611 q 486 686 486 654 q 478 730 486 708 q 453 767 469 751 q 417 791 438 782 q 375 800 397 800 l 297 800 q 253 791 274 800 q 217 767 232 782 q 192 730 201 751 q 183 686 183 708 l 183 653 l 31 653 l 31 714 q 50 810 31 765 q 103 889 69 856 q 183 942 138 922 q 279 961 228 961 l 400 961 q 497 942 451 961 q 575 889 542 922 q 628 810 608 856 q 647 714 647 765 l 647 693 q 644 617 647 651 q 629 551 640 582 q 597 491 618 519 q 542 431 575 463 q 376 280 463 354 q 200 142 289 206 l 631 142 l 631 0 l 40 0 l 40 210 z "},"3":{"ha":699,"x_min":22,"x_max":703,"o":"m 656 783 q 667 640 681 710 q 594 515 654 569 l 586 506 l 594 497 q 650 413 632 458 q 650 160 703 286 q 599 80 632 115 q 524 25 567 44 q 460 3 492 10 q 396 -5 428 -3 q 332 -6 364 -7 q 265 -6 300 -6 q 171 14 215 -6 q 93 67 126 33 q 41 147 60 101 q 22 242 22 192 l 22 269 l 172 269 q 181 226 172 246 q 207 189 189 203 q 249 167 225 175 q 297 156 272 158 q 343 156 322 154 q 402 164 372 158 q 457 188 432 169 q 497 254 488 211 q 494 339 506 297 q 392 426 475 411 q 303 435 358 435 l 254 435 l 254 578 l 303 578 q 392 586 358 578 q 457 611 433 592 q 483 645 474 625 q 494 688 493 665 q 485 731 494 710 q 457 771 476 753 q 415 793 442 785 q 356 803 388 801 q 292 799 325 804 q 232 781 258 794 q 189 743 206 767 q 172 686 172 719 l 22 686 l 22 715 q 47 822 22 775 q 113 899 72 868 q 205 945 153 929 q 310 961 257 961 q 352 961 336 961 q 376 960 368 961 q 388 960 385 960 q 392 960 392 960 q 426 957 408 958 q 460 953 443 956 q 522 931 490 946 q 576 896 553 917 q 624 844 603 874 q 656 783 644 815 z "},"4":{"ha":778,"x_min":22,"x_max":756,"o":"m 611 333 l 756 333 l 756 189 l 611 189 l 611 0 l 449 0 l 449 186 l 22 186 l 22 333 l 329 946 l 611 946 l 611 333 m 449 333 l 449 817 l 200 333 l 449 333 z "},"5":{"ha":731,"x_min":35,"x_max":689,"o":"m 367 628 q 501 606 442 628 q 603 544 561 585 q 667 442 644 503 q 689 304 689 381 q 607 67 689 153 q 358 -19 525 -19 q 226 -1 286 -19 q 123 56 165 18 q 58 151 81 93 q 35 286 35 208 l 193 286 q 231 178 193 219 q 353 138 268 138 q 477 181 431 138 q 524 303 524 224 q 510 380 524 349 q 473 430 497 411 q 417 457 449 449 q 347 465 385 465 q 219 422 258 465 l 57 422 l 57 940 l 643 940 l 643 775 l 232 775 l 232 601 q 291 622 253 615 q 367 628 329 628 z "},"6":{"ha":771,"x_min":63,"x_max":719,"o":"m 336 -6 q 231 16 281 -6 q 143 75 181 38 q 84 163 106 113 q 63 269 63 213 l 63 314 l 63 325 l 63 681 q 84 787 63 736 q 143 875 106 838 q 231 934 181 913 q 336 956 281 956 l 456 956 q 556 936 510 956 q 635 883 601 917 q 690 803 669 849 q 717 704 711 758 l 542 704 q 515 767 535 742 q 454 792 496 792 l 338 792 q 260 756 289 792 q 232 671 232 721 l 232 569 q 336 590 283 590 l 444 590 q 551 569 501 590 q 638 510 601 547 q 697 422 675 472 q 719 314 719 371 l 719 269 q 697 163 719 213 q 638 75 675 113 q 551 16 601 38 q 444 -6 501 -6 l 336 -6 m 232 274 q 263 192 235 225 q 338 158 292 158 l 443 158 q 520 194 492 158 q 549 279 549 229 l 549 306 q 520 390 549 356 q 443 425 492 425 l 338 425 q 260 391 289 425 q 232 307 232 357 l 232 274 z "},"7":{"ha":732,"x_min":49,"x_max":683,"o":"m 49 935 l 683 935 l 517 0 l 339 0 l 472 764 l 225 764 l 225 622 l 49 622 l 49 935 z "},"8":{"ha":747,"x_min":51,"x_max":708,"o":"m 431 957 q 533 937 486 957 q 614 882 581 917 q 665 798 647 847 q 682 692 682 749 l 682 651 q 666 560 682 601 q 621 485 650 518 q 685 407 661 453 q 708 303 708 361 l 708 242 q 688 143 708 189 q 633 64 668 97 q 550 13 597 31 q 450 -6 503 -6 l 308 -6 q 208 13 256 -6 q 126 64 161 31 q 72 143 92 97 q 51 242 51 189 l 51 303 q 75 409 51 363 q 140 486 99 456 q 97 561 113 519 q 81 651 81 603 l 81 692 q 99 798 81 749 q 151 882 118 847 q 230 937 183 917 q 333 957 276 957 l 431 957 m 547 279 q 514 360 547 329 q 431 392 481 392 l 419 392 l 408 392 l 356 392 l 344 392 l 328 392 q 245 360 279 392 q 211 279 211 329 l 211 263 q 245 183 211 213 q 328 154 279 154 l 431 154 q 514 183 481 154 q 547 263 547 213 l 547 279 m 517 681 q 511 727 517 706 q 494 765 506 749 q 465 792 482 782 q 422 801 447 801 l 342 801 q 269 766 292 801 q 247 681 247 731 l 247 660 q 269 576 247 611 q 342 540 292 540 l 422 540 q 465 549 447 540 q 494 575 482 558 q 511 614 506 592 q 517 660 517 636 l 517 681 z "},"9":{"ha":710,"x_min":42,"x_max":665,"o":"m 436 957 q 535 937 492 957 q 608 882 579 917 q 651 798 636 847 q 665 692 665 749 l 665 569 q 643 444 665 501 l 558 0 l 403 0 l 461 307 q 448 306 454 306 q 436 306 442 306 l 272 306 q 173 326 215 306 q 101 381 131 346 q 56 464 71 415 q 42 569 42 513 l 42 692 q 56 798 42 749 q 101 882 71 847 q 173 937 131 917 q 272 957 215 957 l 436 957 m 496 683 q 478 763 496 733 q 413 792 461 792 l 296 792 q 230 763 247 792 q 213 683 213 733 l 213 579 q 230 499 213 529 q 296 469 247 469 l 413 469 q 478 499 461 469 q 496 579 496 529 l 496 683 z "},"!":{"ha":422,"x_min":129,"x_max":292,"o":"m 292 239 l 129 239 l 129 1007 l 292 1007 l 292 239 m 292 0 l 129 0 l 129 163 l 292 163 l 292 0 z "},"\"":{"ha":419,"x_min":25,"x_max":385,"o":"m 63 808 l 25 1046 l 174 1046 l 196 808 l 63 808 m 251 808 l 214 1046 l 363 1046 l 385 808 l 251 808 z "},"#":{"ha":1035,"x_min":22,"x_max":1013,"o":"m 247 358 l 311 549 l 142 549 l 203 706 l 364 706 l 438 926 l 597 926 l 522 706 l 683 706 l 758 926 l 915 926 l 842 706 l 1013 706 l 953 549 l 789 549 l 725 358 l 892 358 l 832 201 l 672 201 l 594 -32 l 436 -32 l 514 201 l 353 201 l 275 -32 l 115 -32 l 193 201 l 22 201 l 82 358 l 247 358 m 406 358 l 567 358 l 631 549 l 469 549 l 406 358 z "},"$":{"ha":775,"x_min":33,"x_max":742,"o":"m 486 558 q 585 538 539 558 q 667 482 632 517 q 722 400 701 447 q 742 299 742 353 q 722 199 742 246 q 666 117 701 153 q 585 62 631 82 q 486 42 539 42 l 481 42 l 457 42 l 457 -32 l 318 -32 l 318 40 l 78 40 l 78 188 l 318 188 l 318 411 l 290 411 q 190 432 236 411 q 108 488 143 453 q 53 569 74 522 q 33 669 33 617 q 53 770 33 724 q 108 851 74 817 q 190 907 143 886 q 290 928 236 928 l 318 928 l 318 1001 l 457 1001 l 457 928 l 628 928 l 628 781 l 457 781 l 457 558 l 486 558 m 457 411 l 457 188 l 488 188 q 563 222 532 190 q 594 299 594 253 q 585 343 594 322 q 562 378 576 364 q 527 402 547 393 q 483 411 507 411 l 457 411 m 181 669 q 211 592 181 625 q 288 558 242 560 l 318 558 l 318 781 l 292 781 q 213 749 244 781 q 181 669 181 717 z "},"%":{"ha":965,"x_min":22,"x_max":943,"o":"m 735 976 l 397 -32 l 236 -32 l 576 976 l 735 976 m 242 935 q 290 924 267 935 q 331 894 314 913 q 359 850 349 875 q 369 797 369 825 l 369 669 q 360 615 369 642 q 332 570 350 589 q 291 540 314 551 q 242 529 268 529 l 151 529 q 101 540 125 529 q 60 570 78 551 q 32 615 42 589 q 22 669 22 642 l 22 792 q 32 844 22 818 q 60 890 42 869 q 101 922 78 910 q 151 935 125 935 l 242 935 m 254 764 q 242 795 254 782 q 215 808 231 808 l 176 808 q 149 795 161 808 q 138 764 138 782 l 138 699 q 149 668 138 681 q 176 656 161 656 l 215 656 q 242 668 231 656 q 254 699 254 681 l 254 764 m 814 415 q 863 404 840 415 q 904 374 886 393 q 933 331 922 356 q 943 278 943 306 l 943 151 q 933 96 943 122 q 906 51 924 69 q 865 21 888 32 q 814 10 842 10 l 725 10 q 674 21 697 10 q 633 51 651 32 q 606 96 615 69 q 596 151 596 122 l 596 272 q 606 324 596 299 q 633 371 615 350 q 674 403 651 392 q 725 415 697 415 l 814 415 m 828 244 q 816 276 828 264 q 789 289 804 289 l 750 289 q 723 276 735 289 q 711 244 711 264 l 711 181 q 723 149 711 163 q 750 136 735 136 l 789 136 q 816 149 804 136 q 828 181 828 163 l 828 244 z "},"&":{"ha":835,"x_min":75,"x_max":806,"o":"m 806 -11 l 632 -11 l 571 69 q 544 34 558 50 q 512 6 529 18 q 472 -14 494 -7 q 419 -21 450 -21 l 228 -21 q 165 -8 193 -21 q 117 29 136 6 q 86 86 97 53 q 75 160 75 119 l 75 353 q 90 409 75 383 q 127 455 106 435 q 172 490 149 475 q 210 517 194 504 q 181 553 197 533 q 150 598 164 574 q 126 651 136 622 q 114 713 115 679 l 114 781 q 128 890 114 846 q 167 960 142 933 q 228 1000 192 988 q 314 1013 265 1013 l 419 1013 q 567 956 521 1013 q 614 781 614 899 l 614 701 q 560 577 608 629 q 429 475 513 525 l 564 299 l 649 433 l 753 371 l 642 189 l 806 -11 m 333 869 q 267 783 267 869 l 267 713 q 276 678 267 697 q 299 639 286 658 q 324 604 311 619 q 343 585 336 589 q 385 612 364 597 q 424 642 407 626 q 450 672 440 657 q 461 701 460 686 l 461 783 q 446 849 461 829 q 394 869 431 869 l 333 869 m 222 194 q 240 137 222 154 q 289 119 258 119 l 389 119 q 421 125 407 119 q 446 140 435 131 q 466 159 457 149 q 481 181 475 169 l 308 413 q 285 395 300 406 q 256 373 271 385 q 232 349 242 361 q 222 328 222 338 l 222 194 z "},"'":{"ha":260,"x_min":47,"x_max":218,"o":"m 47 808 l 69 1046 l 218 1046 l 181 808 l 47 808 z "},"(":{"ha":344,"x_min":33,"x_max":322,"o":"m 322 1019 q 221 769 254 897 q 188 508 188 640 q 221 250 188 378 q 322 3 254 122 l 171 3 q 68 249 103 121 q 33 508 33 376 q 68 768 33 639 q 171 1019 103 897 l 322 1019 z "},")":{"ha":344,"x_min":33,"x_max":322,"o":"m 185 1019 q 288 768 253 897 q 322 508 322 639 q 288 249 322 376 q 185 3 253 121 l 33 3 q 135 250 101 122 q 168 508 168 378 q 135 769 168 640 q 33 1019 101 897 l 185 1019 z "},"*":{"ha":724,"x_min":33,"x_max":690,"o":"m 257 406 l 33 406 l 33 532 l 257 532 l 151 729 l 263 788 l 363 603 l 463 788 l 574 729 l 468 532 l 690 532 l 690 406 l 468 406 l 574 210 l 461 150 l 361 336 l 263 150 l 151 210 l 257 406 z "},"+":{"ha":622,"x_min":44,"x_max":590,"o":"m 386 571 l 590 571 l 590 433 l 386 433 l 386 231 l 247 231 l 247 433 l 44 433 l 44 571 l 247 571 l 247 775 l 386 775 l 386 571 z "},",":{"ha":263,"x_min":43,"x_max":231,"o":"m 43 -54 l 65 128 l 231 128 l 193 -54 l 43 -54 z "},"-":{"ha":660,"x_min":67,"x_max":586,"o":"m 586 581 l 586 429 l 67 429 l 67 581 l 586 581 z "},".":{"ha":278,"x_min":65,"x_max":231,"o":"m 65 -32 l 65 128 l 231 128 l 231 -32 l 65 -32 z "},"/":{"ha":549,"x_min":25,"x_max":524,"o":"m 524 976 l 186 -32 l 25 -32 l 365 976 l 524 976 z "},":":{"ha":303,"x_min":78,"x_max":236,"o":"m 78 253 l 236 253 l 236 101 l 78 101 l 78 253 m 78 707 l 236 707 l 236 556 l 78 556 l 78 707 z "},";":{"ha":308,"x_min":58,"x_max":235,"o":"m 75 708 l 232 708 l 232 557 l 75 557 l 75 708 m 74 243 l 235 243 l 181 -3 l 58 -3 l 74 243 z "},"<":{"ha":478,"x_min":36,"x_max":438,"o":"m 258 1014 l 438 1014 l 214 514 l 438 3 l 258 3 l 36 514 l 258 1014 z "},"=":{"ha":625,"x_min":44,"x_max":579,"o":"m 579 693 l 579 556 l 44 556 l 44 693 l 579 693 m 579 449 l 579 311 l 44 311 l 44 449 l 579 449 z "},">":{"ha":492,"x_min":36,"x_max":438,"o":"m 438 514 l 214 3 l 36 3 l 260 514 l 36 1014 l 214 1014 l 438 514 z "},"?":{"ha":649,"x_min":42,"x_max":614,"o":"m 42 739 q 49 831 42 783 q 77 917 57 878 q 132 981 97 956 q 224 1007 167 1007 l 418 1007 q 499 988 464 1007 q 558 940 535 969 q 594 874 581 911 q 610 799 607 836 q 608 726 614 761 q 588 665 601 692 l 432 381 l 432 256 l 272 256 l 272 397 l 419 654 q 437 708 432 675 q 437 773 442 742 q 416 826 432 804 q 371 849 400 849 l 281 849 q 242 841 257 849 q 217 819 226 833 q 206 784 208 804 q 203 739 203 764 l 42 739 m 436 0 l 272 0 l 272 163 l 436 163 l 436 0 z "},"@":{"ha":972,"x_min":44,"x_max":924,"o":"m 842 169 q 782 157 811 150 q 714 192 753 164 q 678 215 696 203 q 646 242 661 228 q 540 199 596 199 l 429 199 q 367 213 396 199 q 316 251 338 226 q 282 307 294 275 q 269 375 269 339 l 269 492 q 279 544 269 515 q 308 598 289 574 q 356 639 328 622 q 422 656 385 656 l 504 656 q 558 649 535 656 q 589 631 581 642 l 589 669 l 700 669 l 700 382 q 719 349 700 368 q 760 317 739 331 q 773 310 765 313 q 786 321 781 308 l 786 550 q 767 639 786 597 q 717 712 749 681 q 644 762 686 743 q 557 781 603 781 l 419 781 q 334 761 375 781 q 262 710 293 742 q 212 636 231 678 q 193 550 193 594 l 193 325 q 210 235 193 275 q 257 165 228 194 q 326 120 286 136 q 408 104 365 104 l 556 104 l 836 106 l 836 -24 l 389 -24 q 250 4 314 -24 q 141 81 186 32 q 70 194 96 129 q 44 332 44 258 l 44 569 q 76 707 44 642 q 163 821 108 772 q 288 897 217 869 q 433 925 358 925 l 544 925 q 690 897 621 925 q 810 821 758 869 q 893 707 863 772 q 924 569 924 642 l 924 388 q 922 308 924 340 q 913 251 919 275 q 889 208 906 226 q 842 169 872 189 m 575 464 q 556 522 575 499 q 499 544 538 544 l 461 544 q 409 522 429 544 q 389 464 389 499 l 389 397 q 392 373 389 386 q 404 349 396 360 q 425 331 413 338 q 458 324 438 324 l 514 324 q 543 331 531 324 q 563 350 556 339 q 572 374 569 361 q 575 397 575 388 l 575 464 z "},"A":{"ha":742,"x_min":36,"x_max":693,"o":"m 493 144 l 239 144 l 204 0 l 36 0 l 279 946 l 460 946 l 693 0 l 526 0 l 493 144 m 272 285 l 461 285 l 374 671 l 364 671 l 272 285 z "},"B":{"ha":739,"x_min":58,"x_max":714,"o":"m 703 638 q 685 549 703 592 q 636 474 667 506 l 636 474 q 696 399 678 443 q 714 308 714 356 l 714 250 q 697 144 714 192 q 651 65 681 97 q 580 17 621 33 q 489 0 539 0 l 58 0 l 58 946 l 476 946 q 568 929 526 946 q 640 882 610 913 q 686 808 669 851 q 703 714 703 765 l 703 638 m 222 553 l 447 553 q 482 561 465 553 q 512 583 499 569 q 532 616 525 597 q 539 656 539 635 l 539 669 q 532 710 539 692 q 512 742 525 728 q 482 765 499 757 q 447 774 465 774 l 222 774 l 222 553 m 551 289 q 544 328 551 310 q 524 361 536 347 q 494 383 511 375 q 458 392 476 392 l 222 392 l 222 175 l 458 175 q 494 183 476 175 q 524 206 511 192 q 544 238 536 219 q 551 279 551 257 l 551 289 z "},"C":{"ha":764,"x_min":63,"x_max":717,"o":"m 454 164 q 513 188 494 164 q 542 247 532 213 l 717 247 q 690 151 711 196 q 635 72 669 106 q 555 19 601 39 q 456 0 508 0 l 336 0 q 231 22 281 0 q 143 81 181 43 q 84 168 106 118 q 63 275 63 218 l 63 669 q 84 777 63 726 q 143 865 106 828 q 231 924 181 903 q 336 946 281 946 l 456 946 q 556 926 510 946 q 635 873 601 907 q 690 793 669 839 q 717 694 711 747 l 542 694 q 515 756 535 731 q 454 781 496 781 l 338 781 q 260 746 289 781 q 232 661 232 711 l 232 285 q 260 199 232 235 q 338 164 289 164 l 454 164 z "},"D":{"ha":792,"x_min":71,"x_max":726,"o":"m 71 946 l 503 946 q 590 926 549 946 q 661 872 631 907 q 709 792 692 838 q 726 696 726 747 l 726 250 q 709 153 726 197 q 661 74 692 108 q 590 19 631 39 q 503 0 549 0 l 71 0 l 71 946 m 460 175 q 497 183 481 175 q 527 206 514 192 q 547 238 540 219 q 554 279 554 257 l 554 668 q 547 708 554 689 q 527 741 540 726 q 497 764 514 756 q 460 772 481 772 l 244 772 l 244 175 l 460 175 z "},"E":{"ha":792,"x_min":71,"x_max":721,"o":"m 250 160 l 721 160 l 721 0 l 71 0 l 71 946 l 721 946 l 721 786 l 250 786 l 250 553 l 721 553 l 721 394 l 250 394 l 250 160 z "},"F":{"ha":767,"x_min":71,"x_max":722,"o":"m 231 0 l 71 0 l 71 946 l 721 946 l 721 786 l 226 786 l 226 553 l 722 553 l 722 394 l 231 394 l 231 0 z "},"G":{"ha":778,"x_min":63,"x_max":718,"o":"m 460 164 q 525 188 500 164 q 558 247 550 213 l 558 404 l 401 404 l 401 553 l 718 553 l 718 0 l 558 0 l 558 31 q 498 8 531 15 q 432 0 465 0 l 336 0 q 231 22 281 0 q 143 81 181 43 q 84 168 106 118 q 63 275 63 218 l 63 669 q 84 777 63 726 q 143 865 106 828 q 231 924 181 903 q 336 946 281 946 l 456 946 q 556 926 510 946 q 635 873 601 907 q 690 793 669 839 q 717 694 711 747 l 546 694 q 516 756 536 731 q 454 781 496 781 l 338 781 q 294 772 314 781 q 260 746 274 763 q 238 708 246 729 q 231 661 231 686 l 231 285 q 238 238 231 260 q 260 200 246 217 q 294 174 274 183 q 338 164 314 164 l 460 164 z "},"H":{"ha":788,"x_min":65,"x_max":721,"o":"m 721 0 l 546 0 l 546 394 l 242 394 l 242 0 l 65 0 l 65 946 l 242 946 l 242 553 l 546 553 l 546 946 l 721 946 l 721 0 z "},"I":{"ha":318,"x_min":71,"x_max":247,"o":"m 71 946 l 247 946 l 247 0 l 71 0 l 71 946 z "},"J":{"ha":664,"x_min":19,"x_max":621,"o":"m 621 275 q 599 168 621 218 q 540 81 578 118 q 453 22 503 43 q 347 0 403 0 l 279 0 q 180 19 225 0 q 100 72 135 39 q 44 151 65 106 q 19 247 24 196 l 190 247 q 220 188 199 213 q 281 164 242 164 l 339 164 q 383 174 364 164 q 417 200 403 183 q 440 238 432 217 q 449 285 449 260 l 449 946 l 621 946 l 621 275 z "},"K":{"ha":747,"x_min":71,"x_max":726,"o":"m 369 479 l 547 239 q 638 118 593 178 q 726 0 682 58 l 542 0 l 258 374 l 250 374 l 250 0 l 71 0 l 71 946 l 250 946 l 250 572 l 258 572 l 542 946 l 725 946 l 369 479 z "},"L":{"ha":767,"x_min":49,"x_max":728,"o":"m 215 160 l 728 160 l 728 0 l 49 0 l 49 946 l 215 946 l 215 160 z "},"M":{"ha":840,"x_min":71,"x_max":781,"o":"m 421 263 l 431 263 q 506 603 468 433 q 582 944 544 774 l 781 944 l 781 0 l 644 0 l 644 614 l 636 614 q 567 306 603 460 q 499 0 531 153 l 347 -1 l 218 613 l 208 613 l 208 0 l 71 0 l 71 944 l 269 944 l 421 263 z "},"N":{"ha":785,"x_min":71,"x_max":726,"o":"m 240 619 l 240 0 l 71 0 l 71 946 l 240 946 l 561 321 l 561 946 l 726 946 l 726 0 l 561 0 l 240 619 z "},"O":{"ha":778,"x_min":58,"x_max":715,"o":"m 442 946 q 547 924 497 946 q 635 865 597 903 q 694 777 672 828 q 715 669 715 726 l 715 275 q 694 168 715 218 q 635 81 672 118 q 547 22 597 43 q 442 0 497 0 l 333 0 q 226 22 276 0 q 140 81 176 43 q 81 168 103 118 q 58 275 58 218 l 58 669 q 81 777 58 726 q 140 865 103 828 q 226 924 176 903 q 333 946 276 946 l 442 946 m 546 661 q 517 746 546 711 q 440 781 489 781 l 335 781 q 258 746 286 781 q 229 661 229 711 l 229 285 q 258 199 229 235 q 335 164 286 164 l 440 164 q 517 199 489 164 q 546 285 546 235 l 546 661 z "},"P":{"ha":753,"x_min":49,"x_max":711,"o":"m 454 946 q 556 926 508 946 q 637 871 603 906 q 691 789 671 836 q 711 689 711 742 l 711 647 q 691 548 711 594 q 637 466 671 501 q 556 411 603 431 q 454 392 508 392 l 215 392 l 215 0 l 49 0 l 49 946 l 454 946 m 215 781 l 215 557 l 426 557 q 514 586 486 557 q 542 668 542 615 q 514 749 542 718 q 426 781 486 781 l 215 781 z "},"Q":{"ha":819,"x_min":63,"x_max":810,"o":"m 446 946 q 553 924 503 946 q 640 865 603 903 q 698 777 676 828 q 719 669 719 726 l 719 275 q 711 210 719 242 q 690 151 703 179 l 810 0 l 647 0 l 606 53 q 532 14 572 28 q 446 0 492 0 l 336 0 q 231 22 281 0 q 143 81 181 43 q 84 168 106 118 q 63 275 63 218 l 63 669 q 84 777 63 726 q 143 865 106 828 q 231 924 181 903 q 336 946 281 946 l 446 946 m 549 329 l 549 661 q 542 708 549 686 q 521 746 535 729 q 488 772 507 763 q 444 781 468 781 l 338 781 q 260 746 289 781 q 232 661 232 711 l 232 285 q 260 199 232 235 q 338 164 289 164 l 444 164 q 501 182 476 164 l 314 417 l 481 417 l 549 329 z "},"R":{"ha":786,"x_min":71,"x_max":750,"o":"m 247 382 l 247 0 l 71 0 l 71 946 l 476 946 q 578 926 531 946 q 659 871 625 906 q 713 789 693 836 q 733 689 733 742 l 733 647 q 713 548 733 594 q 659 466 693 501 q 578 411 625 431 q 476 392 531 392 l 429 392 l 750 0 l 549 0 l 247 382 m 247 781 l 247 557 l 449 557 q 536 586 508 557 q 564 668 564 615 q 536 749 564 718 q 449 781 508 781 l 247 781 z "},"S":{"ha":810,"x_min":44,"x_max":765,"o":"m 492 586 q 601 564 550 586 q 688 502 651 542 q 745 408 725 463 q 765 288 765 353 q 747 174 765 226 q 693 83 728 121 q 611 22 658 44 q 506 0 564 0 l 75 0 l 75 175 l 456 175 q 509 182 483 175 q 553 203 535 189 q 582 238 571 217 q 593 288 593 258 q 558 372 593 342 q 469 403 522 403 l 357 403 q 228 418 286 403 q 129 467 169 433 q 67 553 89 500 q 44 679 44 606 q 63 779 44 731 q 113 865 81 828 q 190 924 144 901 q 292 946 236 946 l 682 946 l 682 761 l 364 761 q 313 758 336 761 q 271 745 289 754 q 243 718 253 736 q 233 669 233 700 q 257 610 233 635 q 321 586 281 586 l 492 586 z "},"T":{"ha":703,"x_min":25,"x_max":681,"o":"m 267 771 l 25 771 l 25 946 l 681 946 l 681 771 l 436 771 l 436 0 l 267 0 l 267 771 z "},"U":{"ha":785,"x_min":71,"x_max":728,"o":"m 728 275 q 707 168 728 218 q 649 81 686 118 q 561 22 611 43 q 454 0 511 0 l 347 0 q 240 22 290 0 q 152 81 190 43 q 92 168 114 118 q 71 275 71 218 l 71 946 l 242 946 l 242 285 q 251 238 242 260 q 276 200 260 217 q 313 174 292 183 q 358 164 335 164 l 442 164 q 487 174 465 164 q 524 200 508 183 q 549 238 539 217 q 558 285 558 260 l 558 946 l 728 946 l 728 275 z "},"V":{"ha":742,"x_min":36,"x_max":692,"o":"m 364 325 l 372 325 q 447 633 408 481 q 522 946 485 786 l 692 946 l 458 0 l 278 0 l 36 946 l 207 946 l 364 325 z "},"W":{"ha":1194,"x_min":25,"x_max":1167,"o":"m 838 325 l 847 325 q 921 634 883 482 q 997 946 958 786 l 1167 946 l 933 0 l 753 0 l 597 608 l 447 0 l 265 0 l 25 946 l 194 946 l 351 325 l 360 325 l 397 476 q 453 710 425 594 q 511 946 482 826 l 681 946 l 838 325 z "},"X":{"ha":719,"x_min":36,"x_max":693,"o":"m 469 479 l 693 0 l 514 0 l 371 349 l 363 349 l 215 0 l 36 0 l 254 479 q 145 713 201 594 q 36 946 89 831 l 215 946 l 363 644 l 371 644 q 406 718 388 681 q 442 794 424 756 l 514 946 l 693 946 l 469 479 z "},"Y":{"ha":700,"x_min":25,"x_max":681,"o":"m 264 431 l 25 946 l 204 946 l 350 644 l 358 644 q 393 718 375 681 q 431 794 411 756 l 503 946 l 681 946 l 433 429 l 433 0 l 264 0 l 264 431 z "},"Z":{"ha":735,"x_min":36,"x_max":692,"o":"m 508 786 l 36 786 l 36 946 l 692 946 l 692 786 l 219 160 l 692 160 l 692 0 l 36 0 l 36 160 l 508 786 z "},"[":{"ha":431,"x_min":43,"x_max":381,"o":"m 43 1019 l 381 1019 l 381 860 l 207 860 l 207 160 l 381 160 l 381 1 l 43 1 l 43 1019 z "},"\\":{"ha":549,"x_min":25,"x_max":524,"o":"m 25 976 l 364 -32 l 524 -32 l 183 976 l 25 976 z "},"]":{"ha":418,"x_min":43,"x_max":381,"o":"m 381 1 l 43 1 l 43 160 l 217 160 l 217 860 l 43 860 l 43 1019 l 381 1019 l 381 1 z "},"^":{"ha":540,"x_min":22,"x_max":518,"o":"m 176 664 l 22 664 l 181 969 l 353 969 l 518 664 l 363 664 l 271 853 l 176 664 z "},"_":{"ha":579,"x_min":44,"x_max":535,"o":"m 535 115 l 535 -22 l 44 -22 l 44 115 l 535 115 z "},"a":{"ha":672,"x_min":36,"x_max":621,"o":"m 42 483 q 62 568 46 528 q 108 639 78 608 q 185 688 139 669 q 290 707 231 707 l 374 707 q 483 686 436 707 q 560 631 529 665 q 606 553 590 597 q 621 465 621 510 l 621 0 l 226 0 q 144 17 181 0 q 84 63 108 35 q 48 131 60 92 q 36 214 36 169 q 49 294 36 257 q 85 359 61 332 q 144 402 108 386 q 224 418 179 418 l 461 418 l 461 432 q 457 478 461 457 q 442 515 453 500 q 408 540 431 531 q 349 549 386 549 l 314 549 q 235 533 258 549 q 203 483 211 517 l 42 483 m 185 214 q 199 160 185 178 q 232 143 214 143 l 461 143 l 461 285 l 232 285 q 199 267 214 285 q 185 214 185 249 z "},"b":{"ha":675,"x_min":47,"x_max":625,"o":"m 364 707 q 473 688 425 707 q 555 636 521 669 q 607 556 589 603 q 625 449 625 508 l 625 258 q 607 152 625 200 q 555 70 589 104 q 473 18 521 36 q 364 0 425 0 l 308 0 q 199 18 247 0 q 117 70 151 36 q 65 152 83 104 q 47 258 47 200 l 47 449 l 47 460 l 47 946 l 211 946 l 211 689 q 319 707 263 707 l 364 707 m 308 547 q 238 519 264 547 q 211 449 213 492 l 211 264 q 238 189 211 218 q 308 160 264 160 l 364 160 q 436 189 408 160 q 464 264 464 218 l 464 444 q 436 519 464 490 q 364 547 408 547 l 308 547 z "},"c":{"ha":626,"x_min":32,"x_max":603,"o":"m 350 160 q 407 176 383 160 q 438 219 431 192 l 603 219 q 525 60 590 119 q 350 0 460 0 l 293 0 q 185 18 233 0 q 103 70 136 36 q 51 152 69 104 q 32 258 32 200 l 32 449 q 51 556 32 508 q 103 636 69 603 q 185 688 136 669 q 293 707 233 707 l 350 707 q 528 647 463 707 q 603 483 593 588 l 439 483 q 408 531 431 514 q 350 547 386 547 l 293 547 q 220 519 249 547 q 192 444 192 490 l 192 264 q 220 189 192 218 q 293 160 249 160 l 350 160 z "},"d":{"ha":661,"x_min":42,"x_max":619,"o":"m 303 0 q 194 18 242 0 q 112 70 146 36 q 60 152 78 104 q 42 258 42 200 l 42 449 q 60 556 42 508 q 112 636 78 603 q 194 688 146 669 q 303 707 242 707 l 358 707 q 464 690 417 707 l 464 946 l 619 946 l 619 0 l 303 0 m 464 160 l 464 444 q 433 519 464 490 q 358 547 403 547 l 303 547 q 227 519 258 547 q 196 444 196 490 l 196 264 q 227 189 196 218 q 303 160 258 160 l 464 160 z "},"e":{"ha":703,"x_min":44,"x_max":658,"o":"m 44 456 q 64 552 44 507 q 115 632 83 597 q 189 687 147 667 q 272 707 231 707 l 431 707 q 527 684 485 707 q 598 626 569 661 q 642 547 626 590 q 658 461 658 503 l 658 282 l 208 282 l 208 244 q 236 174 208 194 q 310 153 264 153 l 633 153 l 633 -3 l 274 -3 q 185 16 226 -3 q 112 67 143 35 q 63 143 81 99 q 44 240 44 188 l 44 456 m 210 414 l 497 414 l 497 421 q 469 510 497 475 q 394 546 442 546 l 308 546 q 268 535 286 546 q 238 508 250 525 q 217 469 225 492 q 210 421 210 446 l 210 414 z "},"f":{"ha":508,"x_min":36,"x_max":464,"o":"m 464 797 l 414 797 q 338 768 367 797 q 308 693 308 739 l 308 663 l 464 663 l 464 503 l 308 503 l 308 -1 l 163 -1 l 163 503 l 36 503 l 36 663 l 163 663 l 163 686 q 179 794 163 746 q 228 875 196 842 q 308 927 261 908 q 414 946 354 946 l 464 946 l 464 797 z "},"g":{"ha":675,"x_min":44,"x_max":628,"o":"m 628 707 l 628 -1 q 611 -102 628 -58 q 565 -177 594 -146 q 494 -224 536 -208 q 403 -240 453 -240 l 85 -240 l 85 -86 l 376 -86 q 448 -60 419 -86 q 476 14 476 -33 l 476 22 l 269 22 q 183 38 224 22 q 111 86 142 54 q 63 165 81 118 q 44 272 44 211 l 44 457 q 63 565 44 518 q 111 643 81 611 q 183 691 142 675 q 269 707 224 707 l 628 707 m 475 553 l 304 553 q 265 544 283 553 q 233 519 247 535 q 211 483 219 503 q 203 440 203 464 l 203 290 q 211 246 203 267 q 233 210 219 225 q 265 185 247 194 q 304 176 283 176 l 475 176 l 475 553 z "},"h":{"ha":686,"x_min":60,"x_max":639,"o":"m 332 549 q 273 540 296 549 q 238 515 250 531 q 220 478 225 500 q 215 432 215 457 l 215 0 l 60 0 l 60 946 l 215 946 l 215 692 q 259 703 236 699 q 308 707 282 707 l 392 707 q 499 686 453 707 q 577 631 546 665 q 624 553 608 597 q 639 465 639 510 l 639 0 l 482 0 l 482 432 q 478 478 482 457 q 460 515 474 500 q 425 540 447 531 q 367 549 403 549 l 332 549 z "},"i":{"ha":286,"x_min":61,"x_max":225,"o":"m 225 0 l 61 0 l 61 707 l 225 707 l 225 0 m 225 783 l 61 783 l 61 946 l 225 946 l 225 783 z "},"j":{"ha":282,"x_min":-71,"x_max":219,"o":"m 217 783 l 64 783 l 64 946 l 217 946 l 217 783 m -71 -92 l -42 -92 q 32 -63 6 -92 q 58 11 58 -35 l 58 707 l 219 707 l 219 17 q 204 -90 219 -42 q 157 -171 189 -137 q 76 -223 125 -204 q -42 -242 26 -242 l -71 -242 l -71 -92 z "},"k":{"ha":644,"x_min":58,"x_max":644,"o":"m 644 0 l 461 0 l 222 269 l 222 0 l 58 0 l 58 946 l 222 946 l 222 483 l 447 707 l 640 707 l 300 381 l 644 0 z "},"l":{"ha":300,"x_min":65,"x_max":229,"o":"m 65 946 l 229 946 l 229 0 l 65 0 l 65 946 z "},"m":{"ha":1135,"x_min":69,"x_max":1081,"o":"m 771 549 q 713 540 735 549 q 678 515 690 531 q 663 479 667 500 q 658 433 658 458 l 658 0 l 496 0 l 496 432 q 492 478 496 457 q 476 515 488 500 q 442 540 464 531 q 382 549 419 549 l 349 549 q 290 540 313 549 q 254 515 267 531 q 237 478 242 500 q 232 432 232 457 l 232 0 l 69 0 l 69 707 l 232 707 l 232 686 q 347 707 286 707 l 408 707 q 507 690 464 707 q 581 644 550 674 q 658 690 614 674 q 758 707 703 707 l 831 707 q 939 686 892 707 q 1017 631 986 665 q 1065 553 1049 597 q 1081 465 1081 510 l 1081 0 l 919 0 l 919 432 q 915 478 919 457 q 899 515 911 500 q 864 540 886 531 q 806 549 842 549 l 771 549 z "},"n":{"ha":703,"x_min":69,"x_max":658,"o":"m 349 549 q 290 540 313 549 q 254 515 267 531 q 237 478 242 500 q 232 432 232 457 l 232 0 l 69 0 l 69 707 l 232 707 l 232 689 q 336 707 281 707 l 408 707 q 517 686 469 707 q 595 631 564 665 q 642 553 626 597 q 658 465 658 510 l 658 0 l 496 0 l 496 432 q 492 478 496 457 q 476 515 488 500 q 442 540 464 531 q 382 549 419 549 l 349 549 z "},"o":{"ha":661,"x_min":40,"x_max":618,"o":"m 357 707 q 466 688 418 707 q 548 636 514 669 q 600 556 582 603 q 618 449 618 508 l 618 258 q 600 152 618 200 q 548 70 582 104 q 466 18 514 36 q 357 0 418 0 l 300 0 q 192 18 240 0 q 109 70 143 36 q 58 152 75 104 q 40 258 40 200 l 40 449 q 58 556 40 508 q 109 636 75 603 q 192 688 143 669 q 300 707 240 707 l 357 707 m 300 547 q 227 519 257 547 q 197 444 197 490 l 197 264 q 227 189 197 218 q 300 160 257 160 l 357 160 q 430 189 401 160 q 458 264 458 218 l 458 444 q 430 519 458 490 q 357 547 401 547 l 300 547 z "},"p":{"ha":664,"x_min":47,"x_max":625,"o":"m 364 707 q 473 688 425 707 q 555 636 521 669 q 607 556 589 603 q 625 449 625 508 l 625 258 q 607 152 625 200 q 555 70 589 104 q 473 18 521 36 q 364 0 425 0 l 319 0 q 208 19 258 0 l 208 -242 l 47 -242 l 47 707 l 364 707 m 208 547 l 208 264 q 236 189 208 218 q 308 160 264 160 l 364 160 q 438 189 408 160 q 467 264 467 218 l 467 444 q 438 519 467 490 q 364 547 408 547 l 208 547 z "},"q":{"ha":681,"x_min":47,"x_max":625,"o":"m 308 0 q 199 18 247 0 q 117 70 151 36 q 65 152 83 104 q 47 258 47 200 l 47 449 q 65 556 47 508 q 117 636 83 603 q 199 688 151 669 q 308 707 247 707 l 625 707 l 625 258 l 625 247 l 625 -242 l 464 -242 l 464 19 q 353 0 414 0 l 308 0 m 364 160 q 436 189 408 160 q 464 264 464 218 l 464 547 l 308 547 q 235 519 264 547 q 206 444 206 490 l 206 264 q 235 189 206 218 q 308 160 264 160 l 364 160 z "},"r":{"ha":592,"x_min":61,"x_max":549,"o":"m 233 563 q 285 619 253 594 q 358 660 318 643 q 442 685 397 676 q 531 693 486 693 l 549 693 l 549 521 l 531 521 q 428 501 481 521 q 331 448 375 481 q 260 375 288 415 q 233 294 233 335 l 233 0 l 61 0 l 61 713 l 233 713 l 233 563 z "},"s":{"ha":658,"x_min":44,"x_max":614,"o":"m 547 569 l 271 569 q 241 563 253 569 q 221 546 229 557 q 208 522 213 535 q 204 496 204 508 q 222 448 204 469 q 264 426 239 426 l 419 426 q 505 410 468 426 q 566 364 542 393 q 602 294 590 335 q 614 208 614 254 l 614 204 q 599 121 614 158 q 558 57 585 83 q 496 15 532 31 q 419 0 460 0 l 83 0 l 83 138 l 372 138 q 431 156 404 138 q 460 210 458 174 l 460 208 q 452 243 460 229 q 432 266 444 257 q 404 279 419 275 q 372 283 389 283 l 247 283 q 147 303 186 283 q 84 353 107 322 q 53 422 61 383 q 44 501 44 461 q 57 582 44 543 q 94 651 69 621 q 154 697 118 681 q 236 714 190 714 l 547 714 l 547 569 z "},"t":{"ha":472,"x_min":25,"x_max":450,"o":"m 25 707 l 156 707 l 156 946 l 319 946 l 319 707 l 450 707 l 450 547 l 319 547 l 319 0 l 156 0 l 156 547 l 25 547 l 25 707 z "},"u":{"ha":694,"x_min":58,"x_max":643,"o":"m 365 158 q 422 167 400 158 q 456 189 443 175 q 475 222 469 203 q 481 264 481 242 l 481 707 l 643 707 l 643 0 l 481 0 l 481 18 q 433 4 458 8 q 378 0 407 0 l 307 0 q 198 21 244 0 q 121 76 151 42 q 74 153 90 110 q 58 242 58 197 l 58 707 l 219 707 l 219 275 q 224 229 219 250 q 240 192 228 208 q 275 167 253 176 q 335 158 297 158 l 365 158 z "},"v":{"ha":624,"x_min":18,"x_max":596,"o":"m 388 0 l 232 0 l 18 707 l 172 707 l 308 258 l 440 707 l 596 707 l 388 0 z "},"w":{"ha":1036,"x_min":18,"x_max":1018,"o":"m 811 0 l 654 0 l 519 446 l 388 0 l 232 0 l 18 707 l 172 707 l 308 258 l 440 707 l 596 707 l 731 261 l 864 707 l 1018 707 l 811 0 z "},"x":{"ha":631,"x_min":26,"x_max":606,"o":"m 408 353 q 507 176 457 265 q 604 0 557 88 l 438 0 l 315 240 l 193 0 l 26 0 l 214 350 l 26 707 l 193 707 l 315 460 l 438 707 l 606 707 l 408 353 z "},"y":{"ha":618,"x_min":25,"x_max":603,"o":"m 321 -242 l 168 -242 l 239 3 l 25 707 l 179 707 l 314 256 l 447 707 l 603 707 l 321 -242 z "},"z":{"ha":589,"x_min":36,"x_max":553,"o":"m 553 556 l 229 160 l 553 160 l 553 0 l 36 0 l 36 151 l 358 547 l 36 547 l 36 707 l 553 707 l 553 556 z "},"{":{"ha":464,"x_min":32,"x_max":414,"o":"m 121 422 l 32 535 l 121 668 l 99 875 q 119 974 90 938 q 203 1008 147 1011 l 414 1008 l 414 849 l 311 849 q 274 843 288 851 q 263 815 260 835 l 285 668 l 196 533 l 285 424 l 263 271 q 258 240 260 256 q 259 212 257 225 q 269 190 261 199 q 296 179 276 181 l 414 165 l 414 1 l 193 19 q 138 39 158 24 q 107 79 117 54 q 97 138 97 104 q 99 213 96 172 l 121 422 z "},"|":{"ha":269,"x_min":54,"x_max":218,"o":"m 54 946 l 218 946 l 218 0 l 54 0 l 54 946 z "},"}":{"ha":453,"x_min":32,"x_max":414,"o":"m 347 213 q 349 138 350 172 q 338 79 347 104 q 308 39 329 54 q 253 19 288 24 l 32 1 l 32 165 l 150 179 q 176 190 168 181 q 187 212 185 199 q 188 240 189 225 q 183 271 186 256 l 161 424 l 250 533 l 161 668 l 183 815 q 172 843 186 835 q 135 849 158 851 l 32 849 l 32 1008 l 243 1008 q 326 974 297 1011 q 347 875 356 938 l 325 668 l 414 535 l 325 422 l 347 213 z "},"~":{"ha":751,"x_min":46,"x_max":714,"o":"m 714 457 q 694 439 714 451 q 643 416 675 426 q 569 399 611 406 q 485 396 528 392 q 420 415 450 399 q 360 448 390 431 q 297 478 331 465 q 226 492 264 492 q 131 468 172 489 q 46 414 90 447 l 46 571 q 134 625 90 610 q 225 640 178 640 q 294 629 258 640 q 363 604 331 618 q 424 576 396 590 q 474 554 453 561 q 535 547 501 546 q 601 556 568 549 q 665 578 635 564 q 714 606 694 592 l 714 457 z "},"₩":{"ha":1035,"x_min":35,"x_max":976,"o":"m 106 714 l 64 946 l 218 946 l 253 714 l 397 714 l 435 946 l 571 946 l 611 714 l 753 714 l 788 946 l 940 946 l 900 714 l 976 714 l 976 563 l 875 563 l 779 0 l 597 0 l 503 543 l 414 0 l 233 0 l 133 563 l 35 563 l 35 714 l 106 714 m 692 292 l 731 563 l 636 563 l 683 292 l 692 292 m 328 292 l 371 563 l 276 563 l 319 292 l 328 292 z "},"©":{"ha":990,"x_min":56,"x_max":946,"o":"m 578 947 q 721 919 654 947 q 838 843 788 892 q 917 729 888 794 q 946 592 946 664 l 946 354 q 917 216 946 281 q 838 103 888 151 q 721 26 788 54 q 578 -1 654 -1 l 422 -1 q 281 26 347 -1 q 164 103 214 54 q 85 216 114 151 q 56 354 56 281 l 56 592 q 85 729 56 664 q 164 843 114 794 q 281 919 214 892 q 422 947 347 947 l 578 947 m 204 358 q 224 260 204 304 q 279 186 244 217 q 358 138 314 156 q 451 121 403 121 l 550 121 q 640 138 597 121 q 717 187 683 156 q 772 261 750 218 q 797 358 793 304 l 797 594 q 778 683 797 642 q 726 753 758 724 q 651 800 694 783 q 563 817 608 817 l 442 817 q 351 801 394 817 q 276 756 308 785 q 224 685 243 726 q 204 594 204 644 l 204 358 m 518 336 q 555 347 540 336 q 575 375 569 357 l 686 375 q 635 268 678 308 q 518 228 592 228 l 479 228 q 351 275 397 228 q 304 403 304 322 l 304 528 q 351 654 304 607 q 479 701 397 701 l 518 701 q 636 661 592 701 q 686 551 681 621 l 576 551 q 556 583 571 571 q 518 594 540 594 l 479 594 q 431 575 450 594 q 411 525 411 556 l 411 404 q 431 356 411 375 q 479 336 450 336 l 518 336 z "},"＼":{"ha":1000,"x_min":38,"x_max":963,"o":"m 963 47 l 910 -3 l 38 958 l 89 1014 l 963 47 z "},"～":{"ha":758,"x_min":46,"x_max":714,"o":"m 714 790 q 694 772 714 785 q 643 749 675 760 q 569 732 611 739 q 485 729 528 725 q 420 748 450 732 q 360 781 390 764 q 297 812 331 799 q 226 825 264 825 q 131 801 172 822 q 46 747 90 781 l 46 904 q 134 958 90 943 q 225 974 178 974 q 294 963 258 974 q 363 938 331 951 q 424 909 396 924 q 474 888 453 894 q 535 881 501 879 q 601 890 568 882 q 665 911 635 897 q 714 939 694 925 l 714 790 z "},"‘":{"ha":289,"x_min":69,"x_max":240,"o":"m 107 808 l 69 1046 l 218 1046 l 240 808 l 107 808 z "},"’":{"ha":289,"x_min":47,"x_max":218,"o":"m 47 808 l 69 1046 l 218 1046 l 181 808 l 47 808 z "},"“":{"ha":428,"x_min":25,"x_max":385,"o":"m 63 808 l 25 1046 l 174 1046 l 196 808 l 63 808 m 251 808 l 214 1046 l 363 1046 l 385 808 l 251 808 z "},"”":{"ha":428,"x_min":25,"x_max":385,"o":"m 214 808 l 236 1046 l 385 1046 l 347 808 l 214 808 m 25 808 l 47 1046 l 196 1046 l 158 808 l 25 808 z "},"±":{"ha":633,"x_min":44,"x_max":590,"o":"m 386 704 l 590 704 l 590 567 l 386 567 l 386 364 l 247 364 l 247 567 l 44 567 l 44 704 l 247 704 l 247 908 l 386 908 l 386 704 m 585 238 l 585 100 l 50 100 l 50 238 l 585 238 z "},"×":{"ha":551,"x_min":31,"x_max":514,"o":"m 272 622 l 417 767 l 514 669 l 369 525 l 514 381 l 415 283 l 272 426 l 129 283 l 31 381 l 175 525 l 31 669 l 128 767 l 272 622 z "},"÷":{"ha":703,"x_min":33,"x_max":664,"o":"m 664 575 l 664 435 l 33 435 l 33 575 l 664 575 m 278 690 l 278 829 l 421 829 l 421 690 l 278 690 m 278 190 l 278 329 l 421 329 l 421 190 l 278 190 z "},"≠":{"ha":742,"x_min":44,"x_max":701,"o":"m 275 460 l 321 567 l 44 567 l 44 704 l 381 704 l 465 899 l 624 899 l 540 704 l 701 704 l 701 567 l 481 567 l 435 460 l 701 460 l 701 322 l 375 322 l 286 113 l 125 113 l 215 322 l 44 322 l 44 460 l 275 460 z "},"≤":{"ha":667,"x_min":38,"x_max":625,"o":"m 625 331 l 38 553 l 38 671 q 156 717 106 697 q 249 752 207 736 q 331 783 292 768 q 413 813 369 797 q 506 848 456 829 q 625 892 557 867 l 625 758 l 219 610 q 305 578 269 592 q 369 556 340 565 q 422 537 397 546 q 476 518 447 528 q 540 494 504 508 q 625 464 575 481 l 625 331 m 40 144 l 40 261 l 625 261 l 625 144 l 40 144 z "},"≥":{"ha":667,"x_min":38,"x_max":625,"o":"m 38 464 q 122 494 86 481 q 186 518 158 508 q 239 537 214 528 q 293 556 264 546 q 358 578 322 565 q 442 610 393 592 l 38 758 l 38 892 q 156 848 106 867 q 249 813 207 829 q 331 783 292 797 q 413 752 369 768 q 506 717 456 736 q 625 671 557 697 l 625 553 l 38 331 l 38 464 m 38 144 l 38 261 l 622 261 l 622 144 l 38 144 z "},"∞":{"ha":819,"x_min":25,"x_max":799,"o":"m 613 300 q 553 311 581 300 q 501 340 526 322 q 454 381 476 358 q 413 426 432 403 q 368 381 390 404 q 321 340 346 358 q 267 311 296 322 q 203 300 238 300 q 130 315 163 300 q 74 357 97 331 q 38 421 50 383 q 25 501 25 458 q 38 578 25 542 q 76 643 51 615 q 135 687 100 671 q 211 703 169 703 q 269 692 242 703 q 322 663 297 681 q 369 622 347 644 q 413 576 392 599 q 455 622 433 600 q 501 663 476 644 q 556 692 526 681 q 621 703 586 703 q 694 688 661 703 q 750 647 726 674 q 786 583 774 619 q 799 501 799 546 q 785 423 799 460 q 747 359 772 386 q 688 316 722 332 q 613 300 653 300 m 208 406 q 245 414 226 406 q 281 436 264 422 q 315 467 299 450 q 344 501 331 485 q 319 531 335 514 q 287 564 304 549 q 250 589 269 579 q 211 599 231 599 q 152 570 176 599 q 128 501 128 542 q 151 432 128 458 q 208 406 175 406 m 694 501 q 672 571 694 543 q 615 599 649 599 q 576 590 596 599 q 540 567 557 581 q 507 536 522 553 q 478 503 492 519 q 508 470 492 488 q 540 439 524 453 q 574 415 556 425 q 613 406 592 406 q 644 413 629 406 q 669 434 658 421 q 688 464 681 447 q 694 501 694 481 z "},"∴":{"ha":833,"x_min":76,"x_max":754,"o":"m 428 629 q 369 651 392 629 q 347 708 347 674 q 370 765 347 742 q 429 789 393 789 q 485 765 464 789 q 507 708 507 742 q 485 651 507 674 q 428 629 464 629 m 675 206 q 616 227 639 206 q 593 285 593 249 q 616 341 593 319 q 675 363 639 363 q 731 341 707 363 q 754 285 754 319 q 731 227 754 249 q 675 206 707 206 m 156 206 q 99 227 122 206 q 76 285 76 249 q 99 341 76 319 q 157 363 122 363 q 214 341 192 363 q 236 285 236 319 q 214 227 236 249 q 156 206 192 206 z "},"°":{"ha":421,"x_min":28,"x_max":396,"o":"m 210 928 q 172 919 189 928 q 144 896 156 910 q 126 864 132 882 q 119 826 119 846 q 146 758 119 786 q 211 729 172 729 q 278 758 251 729 q 304 829 304 786 q 298 865 304 847 q 281 896 292 882 q 251 919 269 910 q 211 928 233 928 l 210 928 m 214 1006 q 288 991 254 1006 q 345 953 321 976 q 383 897 369 929 q 396 831 396 864 q 380 758 396 790 q 339 702 364 725 q 281 666 314 679 q 211 653 247 653 q 137 667 171 653 q 79 703 103 681 q 42 758 56 726 q 28 825 28 789 q 42 897 28 864 q 82 954 57 931 q 140 992 107 978 q 213 1006 174 1006 l 214 1006 z "},"′":{"ha":274,"x_min":53,"x_max":226,"o":"m 53 714 l 67 957 l 226 957 l 185 714 l 53 714 z "},"″":{"ha":497,"x_min":53,"x_max":458,"o":"m 53 714 l 67 957 l 226 957 l 185 714 l 53 714 m 285 714 q 294 835 290 775 q 303 957 297 896 l 458 957 q 438 835 449 896 q 417 714 428 775 l 285 714 z "},"℃":{"ha":1011,"x_min":53,"x_max":939,"o":"m 186 1008 q 265 980 236 1008 q 293 903 293 951 l 293 871 q 265 793 293 822 q 186 764 236 764 l 161 764 q 82 793 111 764 q 53 871 53 822 l 53 903 q 82 980 53 951 q 161 1008 111 1008 l 186 1008 m 164 931 q 141 922 150 931 q 132 897 132 913 l 132 876 q 141 852 132 861 q 164 843 150 843 l 182 843 q 206 852 197 843 q 214 876 214 861 l 214 897 q 206 922 214 913 q 182 931 197 931 l 164 931 m 676 164 q 735 188 717 164 q 764 247 754 213 l 939 247 q 913 151 933 196 q 858 72 892 106 q 777 19 824 39 q 678 0 731 0 l 558 0 q 453 22 503 0 q 365 81 403 43 q 306 168 328 118 q 285 275 285 218 l 285 669 q 306 777 285 726 q 365 865 328 828 q 453 924 403 903 q 558 946 503 946 l 678 946 q 778 926 732 946 q 858 873 824 907 q 913 793 892 839 q 939 694 933 747 l 764 694 q 738 756 757 731 q 676 781 718 781 l 560 781 q 483 746 511 781 q 454 661 454 711 l 454 285 q 483 199 454 235 q 560 164 511 164 l 676 164 z "},"￠":{"ha":675,"x_min":54,"x_max":625,"o":"m 590 776 l 547 649 q 625 483 615 589 l 492 483 l 383 160 q 433 179 413 164 q 460 219 453 194 l 625 219 q 547 60 613 119 q 372 0 482 0 l 331 0 l 308 -65 l 158 -65 l 189 25 q 90 115 125 56 q 54 258 54 175 l 54 449 q 73 556 54 508 q 125 636 92 603 q 207 688 158 669 q 315 707 256 707 l 372 707 q 419 703 396 707 l 443 776 l 590 776 m 214 264 q 244 186 214 215 l 365 547 l 315 547 q 242 519 271 547 q 214 444 214 490 l 214 264 z "},"￡":{"ha":611,"x_min":28,"x_max":588,"o":"m 36 464 l 119 464 l 119 557 q 143 681 119 629 q 206 765 167 732 q 296 813 244 797 q 404 829 347 829 q 513 819 469 829 q 582 794 556 808 l 582 669 q 519 685 549 681 q 444 690 490 690 q 388 684 415 690 q 340 662 361 678 q 305 617 318 646 q 292 544 292 589 l 292 464 l 488 464 l 488 347 l 292 347 l 292 319 q 272 206 292 247 q 214 136 253 165 l 214 135 l 588 135 l 588 0 l 28 0 l 28 122 q 96 185 72 144 q 119 297 119 225 l 119 347 l 36 347 l 36 464 z "},"￥":{"ha":715,"x_min":25,"x_max":681,"o":"m 203 560 l 25 946 l 204 946 l 350 644 l 358 644 q 393 718 375 681 q 431 794 411 756 l 503 946 l 681 946 l 496 560 l 624 560 l 624 422 l 433 422 l 433 315 l 624 315 l 624 178 l 433 178 l 433 0 l 264 0 l 264 178 l 78 178 l 78 315 l 264 315 l 264 422 l 78 422 l 78 560 l 203 560 z "},"♂":{"ha":863,"x_min":43,"x_max":819,"o":"m 175 456 q 190 383 175 418 q 228 323 204 349 q 286 282 253 297 q 358 267 319 267 q 431 282 397 267 q 488 323 464 297 q 527 383 513 349 q 542 456 542 418 q 527 527 542 493 q 488 588 513 561 q 431 628 464 614 q 358 643 397 643 q 286 628 319 643 q 228 588 253 614 q 190 527 204 561 q 175 456 175 493 m 43 456 q 67 578 43 519 q 135 678 92 636 q 235 744 178 719 q 358 769 292 769 q 549 708 469 769 q 569 728 551 711 q 606 766 586 746 q 642 803 625 786 q 664 822 660 819 l 557 822 l 557 915 l 819 915 l 819 653 l 726 653 l 726 758 q 706 740 724 757 q 668 702 689 722 q 631 665 647 682 q 611 644 614 647 q 674 456 674 565 q 649 333 674 390 q 582 232 625 275 q 482 164 539 189 q 358 139 425 139 q 235 164 292 139 q 135 232 178 189 q 67 333 92 275 q 43 456 43 390 z "},"♀":{"ha":725,"x_min":47,"x_max":678,"o":"m 179 685 q 193 613 179 647 q 232 553 207 579 q 290 512 257 526 q 363 497 324 497 q 433 512 400 497 q 491 553 467 526 q 530 613 515 579 q 544 685 544 647 q 530 756 544 722 q 491 816 515 790 q 433 858 467 842 q 363 874 400 874 q 290 858 324 874 q 232 816 257 842 q 193 756 207 790 q 179 685 179 722 m 317 372 q 210 407 260 381 q 124 474 161 433 q 67 569 88 515 q 47 685 47 624 q 72 807 47 750 q 138 907 96 864 q 238 975 181 950 q 363 1000 296 1000 q 485 975 428 1000 q 585 907 542 950 q 653 807 628 864 q 678 685 678 750 q 657 569 678 624 q 600 474 636 515 q 514 406 564 432 q 408 372 464 379 l 408 236 l 564 236 l 564 142 l 408 142 l 408 -8 l 317 -8 l 317 142 l 158 142 l 158 236 l 317 236 l 317 372 z "},"∠":{"ha":1031,"x_min":163,"x_max":867,"o":"m 867 158 l 163 158 l 163 264 l 681 869 l 796 775 l 389 303 l 867 303 l 867 158 z "},"⊥":{"ha":1031,"x_min":147,"x_max":882,"o":"m 882 158 l 147 158 l 147 303 l 440 303 l 440 829 l 592 829 l 592 303 l 882 303 l 882 158 z "},"⌒":{"ha":1031,"x_min":197,"x_max":825,"o":"m 661 806 q 599 863 639 843 q 511 882 558 882 q 424 863 465 882 q 363 806 383 843 l 197 806 q 250 886 219 849 q 319 951 281 924 q 406 993 358 978 q 511 1008 453 1008 q 617 993 569 1008 q 703 951 664 978 q 772 886 742 924 q 825 806 803 849 l 661 806 z "},"∂":{"ha":626,"x_min":19,"x_max":596,"o":"m 281 271 q 335 287 310 271 q 378 331 360 303 q 410 393 397 358 q 428 465 424 428 q 412 497 422 481 q 385 527 401 514 q 349 549 369 540 q 304 557 329 557 q 252 544 275 557 q 211 510 229 532 q 184 460 193 489 q 175 396 175 431 q 205 303 175 336 q 281 271 235 271 m 49 925 q 85 946 64 935 q 133 966 107 957 q 193 982 160 975 q 267 989 226 989 q 394 961 335 989 q 499 881 454 933 q 570 752 544 828 q 596 581 596 676 q 569 392 596 474 q 497 257 542 311 q 391 175 451 203 q 264 147 331 147 q 155 169 201 147 q 78 228 108 192 q 34 308 49 264 q 19 396 19 353 q 38 505 19 453 q 88 594 56 557 q 167 654 121 632 q 269 676 214 676 q 331 668 303 676 q 381 647 358 660 q 417 618 403 633 q 442 588 432 603 l 442 588 q 443 599 443 593 q 443 611 443 606 q 429 715 443 668 q 390 794 415 761 q 328 846 364 828 q 251 864 293 864 q 164 850 201 864 q 94 821 126 836 l 49 925 z "},"∇":{"ha":1004,"x_min":36,"x_max":968,"o":"m 710 710 l 293 710 l 501 381 l 710 710 m 968 850 l 501 119 l 36 850 l 968 850 z "},"≡":{"ha":733,"x_min":63,"x_max":669,"o":"m 669 649 l 63 649 l 63 736 l 669 736 l 669 649 m 669 471 l 63 471 l 63 560 l 669 560 l 669 471 m 669 292 l 63 292 l 63 381 l 669 381 l 669 292 z "},"≒":{"ha":733,"x_min":63,"x_max":669,"o":"m 597 258 q 578 210 597 231 q 529 189 558 189 q 480 210 500 189 q 460 258 460 231 q 480 306 460 286 q 529 326 500 326 q 578 306 558 326 q 597 258 597 286 m 274 774 q 253 724 274 744 q 203 704 232 704 q 155 724 175 704 q 135 774 135 744 q 155 823 135 803 q 203 843 175 843 q 253 823 232 843 q 274 774 274 803 m 669 565 l 63 565 l 63 647 l 669 647 l 669 565 m 669 386 l 63 386 l 63 469 l 669 469 l 669 386 z "},"§":{"ha":604,"x_min":13,"x_max":600,"o":"m 342 547 q 295 560 319 554 q 249 575 271 567 q 250 572 249 574 q 190 548 210 568 q 169 496 169 528 q 189 441 169 461 q 258 408 208 421 q 306 394 283 401 q 353 379 329 386 q 354 378 353 378 l 356 378 q 439 457 439 392 q 435 488 439 475 q 419 510 431 500 q 390 530 408 521 q 342 547 371 539 m 281 -32 q 158 -19 214 -32 q 60 15 103 -7 l 60 139 q 103 122 82 131 q 147 108 125 114 q 197 100 169 103 q 258 97 225 97 q 356 116 325 97 q 386 169 386 135 q 383 198 386 186 q 371 219 381 210 q 344 236 361 229 q 299 251 326 243 q 246 267 272 258 q 192 282 219 275 q 120 307 153 292 q 63 346 88 322 q 26 402 39 369 q 13 478 13 435 q 41 576 13 540 q 121 631 69 611 q 81 688 96 653 q 65 775 65 724 q 131 924 65 868 q 328 981 196 981 q 392 977 364 981 q 444 967 421 974 q 485 953 467 961 q 521 938 504 946 l 521 817 q 446 842 490 831 q 344 853 401 853 q 258 837 290 853 q 225 789 226 821 l 221 806 q 219 796 219 800 q 219 789 219 792 q 224 759 219 771 q 238 738 228 747 q 262 721 247 728 q 300 706 276 714 q 358 689 329 697 q 415 672 386 681 q 496 646 461 661 q 553 608 531 631 q 588 554 576 586 q 600 478 600 522 q 572 376 600 413 q 496 319 543 339 q 553 183 553 274 q 483 22 553 75 q 281 -32 413 -32 z "},"☆":{"ha":1022,"x_min":-12,"x_max":1035,"o":"m 513 738 l 451 551 l 250 551 l 410 431 l 347 246 l 513 358 l 671 246 l 614 431 l 771 551 l 574 551 l 513 738 m 640 636 l 1035 636 l 715 397 l 835 21 l 514 249 l 186 21 l 308 397 l -12 636 l 388 636 l 514 1008 l 640 636 z "},"★":{"ha":1022,"x_min":-12,"x_max":1035,"o":"m 640 636 l 1035 636 l 715 397 l 835 21 l 514 249 l 186 21 l 308 397 l -12 636 l 388 636 l 514 1008 l 640 636 z "},"○":{"ha":1022,"x_min":92,"x_max":929,"o":"m 197 518 q 222 396 197 453 q 289 296 247 339 q 388 228 331 253 q 510 204 444 204 q 633 228 575 204 q 733 296 690 253 q 799 396 775 339 q 824 518 824 453 q 799 640 824 582 q 733 740 775 697 q 633 806 690 782 q 510 831 575 831 q 388 806 444 831 q 289 740 331 782 q 222 640 247 697 q 197 518 197 582 m 92 518 q 125 681 92 604 q 215 814 158 757 q 347 903 271 871 q 510 936 424 936 q 674 903 597 936 q 807 814 750 871 q 897 681 864 757 q 929 518 929 604 q 897 354 929 431 q 807 221 864 278 q 674 131 750 164 q 510 97 597 97 q 347 131 424 97 q 215 221 271 164 q 125 354 158 278 q 92 518 92 431 z "},"●":{"ha":1022,"x_min":92,"x_max":929,"o":"m 92 518 q 125 681 92 604 q 215 814 158 757 q 347 903 271 871 q 510 936 424 936 q 674 903 597 936 q 807 814 750 871 q 897 681 864 757 q 929 518 929 604 q 897 354 929 431 q 807 221 864 278 q 674 131 750 164 q 510 97 597 97 q 347 131 424 97 q 215 221 271 164 q 125 354 158 278 q 92 518 92 431 z "},"◎":{"ha":1022,"x_min":88,"x_max":932,"o":"m 347 518 q 360 455 347 485 q 394 403 372 425 q 447 367 417 381 q 510 354 476 354 q 574 367 544 354 q 626 403 604 381 q 662 455 649 425 q 675 518 675 485 q 662 581 675 551 q 626 632 649 610 q 574 667 604 654 q 510 681 544 681 q 447 667 476 681 q 394 632 417 654 q 360 581 372 610 q 347 518 347 551 m 267 518 q 285 613 267 568 q 337 690 304 657 q 414 742 369 722 q 510 761 458 761 q 606 742 561 761 q 683 690 650 722 q 734 613 715 657 q 753 518 753 568 q 734 422 753 467 q 683 344 715 378 q 606 292 650 311 q 510 274 561 274 q 414 292 458 274 q 337 344 369 311 q 285 422 304 378 q 267 518 267 467 m 192 518 q 217 394 192 453 q 285 292 242 336 q 387 224 329 249 q 510 199 444 199 q 635 224 576 199 q 736 292 693 249 q 804 394 779 336 q 829 518 829 453 q 804 640 829 582 q 736 742 779 699 q 635 811 693 786 q 510 836 576 836 q 387 811 444 836 q 285 742 329 786 q 217 640 242 699 q 192 518 192 582 m 88 518 q 120 681 88 604 q 210 817 153 758 q 345 908 268 875 q 510 942 422 942 q 675 908 597 942 q 810 817 753 875 q 899 681 867 758 q 932 518 932 604 q 899 352 932 429 q 810 218 867 275 q 675 128 753 161 q 510 96 597 96 q 345 128 422 96 q 210 218 268 161 q 120 352 153 275 q 88 518 88 429 z "},"◇":{"ha":1022,"x_min":56,"x_max":965,"o":"m 511 783 l 243 518 l 511 249 l 778 517 l 511 783 m 511 972 l 965 517 l 511 61 l 56 517 l 511 972 z "},"◆":{"ha":1022,"x_min":56,"x_max":967,"o":"m 56 518 l 511 972 l 967 517 l 513 61 l 56 518 z "},"□":{"ha":1022,"x_min":108,"x_max":913,"o":"m 229 797 l 229 238 l 790 238 l 790 797 l 229 797 m 108 919 l 913 919 l 913 114 l 108 114 l 108 919 z "},"■":{"ha":1022,"x_min":108,"x_max":914,"o":"m 108 114 l 108 919 l 914 919 l 914 114 l 108 114 z "},"△":{"ha":1022,"x_min":75,"x_max":944,"o":"m 735 278 l 508 721 l 283 278 l 735 278 m 75 150 l 511 1003 l 944 150 l 75 150 z "},"▲":{"ha":1022,"x_min":79,"x_max":943,"o":"m 79 136 l 511 990 l 943 136 l 79 136 z "},"▽":{"ha":1022,"x_min":75,"x_max":944,"o":"m 286 832 l 511 386 l 736 832 l 286 832 m 944 947 l 511 94 l 75 947 l 944 947 z "},"▼":{"ha":1022,"x_min":79,"x_max":943,"o":"m 943 947 l 511 94 l 79 947 l 943 947 z "},"→":{"ha":1022,"x_min":17,"x_max":1000,"o":"m 17 586 l 825 586 l 740 731 l 758 750 l 1000 550 l 758 350 l 740 369 l 825 514 l 17 514 l 17 586 z "},"←":{"ha":1022,"x_min":42,"x_max":1011,"o":"m 1011 514 l 219 514 l 303 369 l 286 350 l 42 550 l 286 750 l 303 731 l 219 586 l 1011 586 l 1011 514 z "},"↑":{"ha":651,"x_min":125,"x_max":525,"o":"m 290 47 l 290 793 l 147 710 l 125 729 l 325 969 l 525 729 l 504 710 l 361 793 l 361 47 l 290 47 z "},"↓":{"ha":651,"x_min":125,"x_max":525,"o":"m 361 1022 l 361 307 l 506 389 l 525 372 l 325 131 l 125 371 l 146 389 l 290 307 l 290 1022 l 361 1022 z "},"↔":{"ha":1022,"x_min":14,"x_max":1007,"o":"m 275 369 l 256 350 l 14 550 l 256 750 l 275 731 l 189 586 l 831 586 l 747 731 l 765 750 l 1007 550 l 765 350 l 747 369 l 831 514 l 189 514 l 275 369 z "},"〓":{"ha":1067,"x_min":163,"x_max":904,"o":"m 904 606 l 163 606 l 163 647 l 904 647 l 904 606 m 904 381 l 163 381 l 163 424 l 904 424 l 904 381 z "},"√":{"ha":1067,"x_min":204,"x_max":863,"o":"m 863 1054 q 733 538 797 796 q 601 24 668 281 l 500 24 q 411 257 456 140 q 322 492 367 374 q 279 476 301 483 q 236 458 257 468 l 204 531 q 300 570 253 551 q 394 608 347 589 q 447 460 421 535 q 499 313 474 386 q 521 249 510 281 q 544 183 532 217 l 546 183 q 551 215 547 199 q 558 244 556 231 q 658 649 608 444 q 754 1054 707 854 l 863 1054 z "},"∽":{"ha":1067,"x_min":108,"x_max":958,"o":"m 958 519 q 943 436 958 475 q 899 367 928 397 q 833 319 871 336 q 749 303 794 303 q 608 353 681 303 l 646 419 q 699 391 674 401 q 749 381 724 381 q 801 392 776 381 q 842 421 825 403 q 867 464 858 439 q 876 519 876 489 q 867 570 876 546 q 842 613 858 594 q 801 643 825 632 q 750 654 778 654 q 651 617 692 654 q 574 508 611 579 q 540 447 560 482 q 490 379 519 411 q 417 325 460 347 q 317 303 375 303 q 240 317 278 303 q 173 357 203 331 q 126 424 143 383 q 108 519 108 464 q 125 610 108 569 q 172 678 142 650 q 238 719 201 706 q 315 733 275 733 q 392 720 356 733 q 460 686 428 707 l 421 618 q 324 653 369 653 q 228 616 264 653 q 192 519 192 579 q 226 422 192 458 q 322 385 260 385 q 393 403 363 385 q 447 448 424 421 q 486 506 469 475 q 515 558 503 536 q 556 624 533 592 q 607 680 578 656 q 671 719 636 704 q 747 733 706 733 q 832 715 793 733 q 899 668 871 697 q 943 600 928 639 q 958 519 958 561 z "},"∝":{"ha":1067,"x_min":147,"x_max":919,"o":"m 360 385 q 417 397 392 385 q 465 428 443 408 q 502 472 486 447 q 531 518 518 496 q 502 565 518 542 q 465 608 486 589 q 418 640 444 628 q 360 653 392 653 q 266 616 301 653 q 231 519 231 579 q 264 422 231 458 q 360 385 297 385 m 881 619 q 834 645 858 636 q 788 654 810 654 q 692 617 733 654 q 617 518 651 581 q 690 419 650 457 q 788 381 731 381 q 824 388 804 381 q 865 407 843 394 l 911 343 q 848 314 881 325 q 788 303 815 303 q 719 313 751 303 q 662 342 688 324 q 614 387 636 361 q 574 442 592 413 q 537 392 558 417 q 488 348 515 368 q 426 315 461 328 q 351 303 392 303 q 276 316 313 303 q 210 356 239 329 q 164 423 181 382 q 147 519 147 464 q 164 610 147 569 q 209 678 181 650 q 274 719 238 706 q 350 733 311 733 q 428 721 393 733 q 490 689 463 708 q 538 644 517 669 q 574 596 558 619 q 614 647 592 622 q 663 692 636 672 q 722 722 690 711 q 788 733 753 733 q 853 721 819 733 q 919 686 888 708 l 881 619 z "},"∵":{"ha":1067,"x_min":194,"x_max":872,"o":"m 521 369 q 579 347 556 369 q 603 290 603 325 q 579 235 603 258 q 519 213 556 213 q 463 235 485 213 q 442 290 442 258 q 464 347 442 325 q 521 369 486 369 m 275 796 q 332 773 310 796 q 354 714 354 750 q 332 658 354 681 q 275 636 310 636 q 218 658 242 636 q 194 714 194 681 q 218 773 194 750 q 275 796 242 796 m 793 796 q 850 773 828 796 q 872 717 872 750 q 849 658 872 681 q 792 636 826 636 q 735 658 758 636 q 713 717 713 681 q 735 773 713 750 q 793 796 758 796 z "},"∫":{"ha":1067,"x_min":344,"x_max":721,"o":"m 707 924 q 687 926 697 925 q 664 928 676 928 q 634 918 649 928 q 614 893 619 908 q 595 836 601 875 q 589 731 589 797 q 592 609 589 667 q 598 493 594 551 q 604 372 601 435 q 607 240 607 310 q 569 33 607 94 q 506 -33 544 -14 q 422 -51 467 -51 q 376 -49 399 -51 q 344 -37 354 -46 l 360 67 q 381 61 369 64 q 403 58 392 58 q 453 83 431 58 q 472 135 463 100 q 481 236 481 169 q 478 370 481 307 q 472 494 475 433 q 467 615 469 554 q 464 743 464 676 q 480 888 464 835 q 529 981 496 942 q 586 1019 553 1007 q 657 1031 619 1031 q 694 1028 675 1031 q 721 1022 713 1025 l 707 924 z "},"∬":{"ha":1067,"x_min":203,"x_max":864,"o":"m 850 915 q 831 919 840 918 q 808 919 821 919 q 779 911 793 919 q 758 886 765 903 q 738 829 744 868 q 731 724 731 790 q 733 603 731 660 q 740 488 736 546 q 747 370 744 431 q 750 240 750 310 q 714 33 750 94 q 649 -33 689 -14 q 565 -51 608 -51 q 520 -49 542 -51 q 488 -37 499 -46 l 504 67 q 547 58 525 58 q 574 65 563 58 q 593 83 585 71 q 616 135 607 100 q 625 236 625 169 q 622 369 625 307 q 616 490 619 431 q 610 609 613 549 q 607 736 607 669 q 610 817 607 781 q 622 881 614 853 q 643 931 631 908 q 672 974 656 954 q 729 1010 696 999 q 800 1022 763 1022 q 838 1020 819 1022 q 864 1014 856 1018 l 850 915 m 567 915 q 546 919 556 918 q 525 919 536 919 q 494 911 508 919 q 474 886 481 903 q 453 829 460 868 q 447 724 447 790 q 450 603 447 660 q 456 488 453 546 q 461 370 458 431 q 464 240 464 310 q 456 117 464 168 q 429 33 449 65 q 364 -33 403 -14 q 281 -51 325 -51 q 235 -49 258 -51 q 203 -37 213 -46 l 218 67 q 238 61 228 64 q 261 58 249 58 q 310 83 289 58 q 331 135 322 100 q 340 236 340 169 q 338 369 340 307 q 332 490 335 431 q 326 609 329 549 q 324 736 324 669 q 327 817 324 781 q 339 881 331 853 q 360 931 347 908 q 389 974 372 954 q 444 1010 411 999 q 514 1022 478 1022 q 553 1020 535 1022 q 581 1014 571 1018 l 567 915 z "},"∈":{"ha":1067,"x_min":136,"x_max":929,"o":"m 926 457 l 272 457 q 331 378 288 408 q 453 347 374 347 l 929 347 l 929 224 l 458 224 q 314 247 375 224 q 214 310 253 269 q 156 405 175 351 q 136 519 136 458 q 155 628 136 576 q 213 719 174 681 q 310 781 251 758 q 453 803 369 803 l 929 803 l 929 681 l 453 681 q 333 652 376 681 q 275 581 290 624 l 926 581 l 926 457 z "},"∋":{"ha":1067,"x_min":142,"x_max":924,"o":"m 142 581 l 781 581 q 722 647 764 619 q 607 675 681 675 l 143 675 l 143 803 l 607 803 q 749 780 690 803 q 847 717 808 757 q 905 626 886 678 q 924 519 924 575 q 904 408 924 461 q 844 313 885 354 q 744 248 804 272 q 601 224 683 224 l 143 224 l 143 349 l 607 349 q 726 381 683 349 q 786 457 769 413 l 142 457 l 142 581 z "},"⊆":{"ha":1067,"x_min":143,"x_max":924,"o":"m 921 81 l 181 81 l 181 206 l 921 206 l 921 81 m 924 667 l 460 667 q 373 657 408 667 q 315 630 338 647 q 281 589 292 613 q 271 539 271 565 q 315 443 271 479 q 460 407 358 407 l 924 407 l 924 281 l 464 281 q 320 301 381 281 q 220 356 260 321 q 162 439 181 392 q 143 542 143 486 q 162 639 143 593 q 219 719 181 685 q 317 772 258 753 q 460 792 376 792 l 924 792 l 924 667 z "},"⊇":{"ha":1067,"x_min":142,"x_max":925,"o":"m 143 792 l 608 792 q 751 772 692 792 q 849 719 811 753 q 906 639 888 685 q 925 542 925 593 q 906 439 925 486 q 847 356 886 392 q 747 301 807 321 q 603 281 686 281 l 143 281 l 143 407 l 608 407 q 694 416 658 407 q 751 443 729 425 q 783 485 774 461 q 793 539 793 508 q 783 589 793 565 q 752 630 774 613 q 694 657 731 647 q 608 667 658 667 l 143 667 l 143 792 m 142 206 l 886 206 l 886 81 l 142 81 l 142 206 z "},"⊂":{"ha":1067,"x_min":146,"x_max":921,"o":"m 921 667 l 463 667 q 376 655 411 667 q 317 623 340 643 q 284 576 294 603 q 274 519 274 550 q 284 460 274 488 q 317 412 294 432 q 376 380 340 392 q 463 368 413 368 l 921 368 l 921 243 l 467 243 q 323 265 383 243 q 223 326 263 288 q 165 415 183 364 q 146 524 146 465 q 164 628 146 579 q 221 713 182 676 q 319 771 260 750 q 463 792 379 792 l 921 792 l 921 667 z "},"⊃":{"ha":1067,"x_min":143,"x_max":922,"o":"m 143 788 l 604 788 q 748 767 688 788 q 847 709 808 746 q 904 624 886 672 q 922 519 922 575 q 903 410 922 461 q 843 322 883 360 q 742 261 803 283 q 599 239 682 239 l 143 239 l 143 364 l 604 364 q 690 375 656 364 q 747 407 725 386 q 779 456 769 428 q 789 515 789 483 q 779 572 789 546 q 748 619 769 599 q 691 651 726 639 q 604 663 656 663 l 143 663 l 143 788 z "},"∪":{"ha":729,"x_min":85,"x_max":643,"o":"m 214 878 l 214 415 q 226 328 214 364 q 258 270 238 293 q 304 237 278 247 q 360 226 331 226 q 470 271 426 226 q 514 415 514 315 l 514 878 l 643 878 l 643 421 q 621 278 643 338 q 560 178 599 218 q 469 120 521 139 q 357 101 417 101 q 252 119 301 101 q 165 175 203 136 q 106 273 128 214 q 85 415 85 332 l 85 878 l 214 878 z "},"∩":{"ha":729,"x_min":86,"x_max":642,"o":"m 364 897 q 476 878 425 897 q 563 819 526 858 q 621 719 600 779 q 642 575 642 658 l 642 101 l 514 101 l 514 581 q 472 726 514 681 q 364 771 431 771 q 256 726 297 771 q 215 581 215 681 l 215 101 l 86 101 l 86 575 q 107 719 86 658 q 165 819 128 779 q 253 878 203 858 q 364 897 304 897 z "},"∧":{"ha":1067,"x_min":158,"x_max":908,"o":"m 575 840 q 742 517 658 678 q 908 194 825 357 q 860 170 885 182 q 810 147 835 158 q 670 416 740 282 q 531 688 600 550 q 393 417 461 549 q 258 147 325 286 q 208 170 233 158 q 158 194 183 182 q 325 517 242 357 q 492 840 408 678 l 575 840 z "},"∨":{"ha":1067,"x_min":158,"x_max":908,"o":"m 810 856 q 860 831 835 843 q 908 804 885 818 q 742 483 825 644 q 575 163 658 322 l 492 163 q 325 483 408 322 q 158 804 242 644 q 208 831 183 818 q 258 856 233 843 l 533 319 q 669 589 603 458 q 810 856 736 719 z "},"⇒":{"ha":1067,"x_min":33,"x_max":1033,"o":"m 718 814 l 1033 499 l 718 181 l 660 236 l 775 350 l 33 350 l 33 435 l 858 435 l 919 497 l 858 560 l 33 560 l 33 644 l 771 644 l 660 757 l 718 814 z "},"⇔":{"ha":1067,"x_min":33,"x_max":1033,"o":"m 858 435 l 919 497 l 858 561 l 210 561 l 147 500 l 210 435 l 858 435 m 718 814 l 1033 500 l 718 181 l 660 238 l 775 350 l 293 350 l 407 238 l 349 181 l 33 500 l 349 814 l 407 758 l 294 646 l 771 646 l 660 758 l 718 814 z "},"∀":{"ha":1031,"x_min":157,"x_max":874,"o":"m 874 926 q 747 519 810 721 q 621 114 685 317 l 404 114 l 157 926 l 331 926 q 363 812 347 869 q 396 697 379 754 l 622 697 q 656 812 639 754 q 692 926 674 869 l 874 926 m 508 238 q 519 306 513 271 q 536 375 525 342 l 599 575 l 419 575 q 449 475 435 525 q 478 375 463 425 q 492 306 486 342 q 503 238 499 269 l 508 238 z "},"∃":{"ha":1031,"x_min":285,"x_max":746,"o":"m 319 607 l 578 607 l 578 794 l 306 794 l 306 932 l 746 932 l 746 114 l 285 114 l 285 251 l 578 251 l 578 471 l 319 471 l 319 607 z "},"∶":{"ha":1022,"x_min":142,"x_max":356,"o":"m 356 708 l 249 599 l 142 708 l 356 708 m 356 289 l 142 289 l 249 397 l 356 289 z "},"∮":{"ha":1000,"x_min":261,"x_max":739,"o":"m 471 626 q 411 581 436 614 q 382 500 386 547 q 399 416 378 450 q 458 371 419 382 q 464 501 463 429 q 467 565 465 535 q 471 626 469 596 m 626 500 q 608 585 631 547 q 540 631 586 622 q 533 501 536 574 q 531 433 532 465 q 525 369 529 400 q 594 415 567 381 q 626 500 622 450 m 685 876 q 661 909 675 897 q 628 921 647 921 q 580 854 603 921 q 543 665 557 788 q 600 650 574 663 q 646 617 626 638 q 676 567 665 596 q 682 500 686 538 q 665 435 679 464 q 630 385 651 407 q 580 352 608 364 q 521 336 551 340 q 474 128 506 208 q 427 58 454 85 q 367 31 400 31 q 261 97 296 31 l 313 126 q 336 93 322 106 q 369 81 350 81 q 418 147 394 81 q 454 336 442 214 q 401 354 425 342 q 359 388 376 367 q 333 436 342 408 q 326 500 324 464 q 343 563 331 535 q 376 610 356 590 q 422 644 396 631 q 475 663 447 657 q 525 875 492 790 q 569 944 543 918 q 631 971 596 971 q 739 900 704 971 l 685 876 z "},"∑":{"ha":567,"x_min":-24,"x_max":611,"o":"m 611 -22 l -24 -22 l -24 74 q 113 251 46 161 q 250 432 181 342 l -6 804 l -6 910 l 561 910 l 561 771 l 200 771 l 200 767 l 419 442 l 182 124 l 182 115 l 611 115 l 611 -22 z "},"∏":{"ha":714,"x_min":-19,"x_max":731,"o":"m 642 775 l 642 -25 l 485 -25 l 485 775 l 229 775 l 229 -25 l 71 -25 l 71 775 l -19 775 l -19 910 l 731 910 l 731 775 l 642 775 z "},"¤":{"ha":1089,"x_min":92,"x_max":985,"o":"m 985 804 l 850 683 q 884 598 871 643 q 897 501 897 553 q 881 396 897 447 q 840 303 865 344 q 865 279 844 297 q 910 240 886 261 q 954 199 933 218 q 981 176 975 181 l 901 86 l 758 217 q 654 156 711 178 q 531 133 597 133 q 415 151 469 133 q 313 206 360 169 q 308 202 315 208 q 286 183 300 196 q 254 154 272 169 q 219 124 236 139 q 190 99 203 110 q 175 86 178 88 l 96 176 l 228 294 q 183 390 200 338 q 165 501 165 443 q 219 692 165 604 q 194 712 214 694 q 153 749 175 729 q 113 786 132 769 q 92 804 94 803 l 178 890 l 297 785 q 404 842 344 819 q 531 865 464 865 q 660 842 600 865 q 769 776 719 818 q 774 780 767 774 q 794 797 781 786 q 824 824 807 808 q 856 853 842 839 q 883 876 871 867 q 897 890 894 886 l 985 804 m 786 501 q 766 601 786 554 q 711 681 746 647 q 630 735 676 715 q 531 756 583 756 q 431 735 476 756 q 350 681 385 715 q 295 601 315 647 q 275 501 275 554 q 295 401 275 447 q 350 321 315 356 q 431 267 385 286 q 531 247 476 247 q 630 267 583 247 q 711 321 676 286 q 766 401 746 356 q 786 501 786 447 z "},"℉":{"ha":942,"x_min":56,"x_max":892,"o":"m 511 0 l 351 0 l 351 946 l 890 946 l 890 786 l 507 786 l 507 553 l 892 553 l 892 394 l 511 394 l 511 0 m 188 1008 q 267 980 238 1008 q 296 903 296 951 l 296 871 q 267 793 296 822 q 188 764 238 764 l 164 764 q 85 793 114 764 q 56 871 56 822 l 56 903 q 85 980 56 951 q 164 1008 114 1008 l 188 1008 m 167 931 q 144 922 153 931 q 135 897 135 913 l 135 876 q 144 852 135 861 q 167 843 153 843 l 185 843 q 208 852 199 843 q 217 876 217 861 l 217 897 q 208 922 217 913 q 185 931 199 931 l 167 931 z "},"‰":{"ha":1310,"x_min":22,"x_max":1265,"o":"m 813 976 l 253 -32 l 81 -32 l 643 976 l 813 976 m 242 890 q 290 879 267 890 q 331 849 314 868 q 359 806 349 831 q 369 753 369 781 l 369 669 q 360 615 369 642 q 332 570 350 589 q 291 540 314 551 q 242 529 268 529 l 151 529 q 101 540 125 529 q 60 570 78 551 q 32 615 42 589 q 22 669 22 642 l 22 747 q 32 799 22 774 q 60 845 42 825 q 101 878 78 865 q 151 890 125 890 l 242 890 m 254 725 q 244 755 254 743 q 219 767 235 767 l 174 767 q 148 755 158 767 q 138 725 138 743 l 138 693 q 148 664 138 675 q 174 653 158 653 l 219 653 q 244 664 235 653 q 254 693 254 675 l 254 725 m 725 371 q 774 360 751 371 q 815 330 797 349 q 844 286 833 311 q 854 233 854 261 l 854 151 q 844 96 854 122 q 817 51 835 69 q 776 21 799 32 q 725 10 753 10 l 636 10 q 585 21 608 10 q 544 51 563 32 q 517 96 526 69 q 507 151 507 122 l 507 228 q 517 280 507 254 q 544 326 526 306 q 585 359 563 347 q 636 371 608 371 l 725 371 m 739 207 q 729 236 739 225 q 703 247 719 247 l 658 247 q 632 236 642 247 q 622 207 622 225 l 622 175 q 632 145 622 157 q 658 133 642 133 l 703 133 q 729 145 719 133 q 739 175 739 157 l 739 207 m 1136 371 q 1185 360 1163 371 q 1226 330 1208 349 q 1255 286 1244 311 q 1265 233 1265 261 l 1265 151 q 1256 96 1265 122 q 1228 51 1246 69 q 1187 21 1210 32 q 1136 10 1164 10 l 1047 10 q 997 21 1019 10 q 956 51 974 32 q 928 96 938 69 q 918 151 918 122 l 918 228 q 928 280 918 254 q 956 326 938 306 q 997 359 974 347 q 1047 371 1019 371 l 1136 371 m 1150 207 q 1140 236 1150 225 q 1114 247 1131 247 l 1069 247 q 1043 236 1053 247 q 1033 207 1033 225 l 1033 175 q 1043 145 1033 157 q 1069 133 1053 133 l 1114 133 q 1140 145 1131 133 q 1150 175 1150 157 l 1150 207 z "},"◁":{"ha":1067,"x_min":174,"x_max":893,"o":"m 893 47 l 174 501 l 893 958 l 893 47 m 803 208 l 803 797 l 333 501 l 803 208 z "},"◀":{"ha":1067,"x_min":174,"x_max":893,"o":"m 893 47 l 174 501 l 893 958 l 893 47 z "},"▷":{"ha":1067,"x_min":174,"x_max":893,"o":"m 893 501 l 174 47 l 174 958 l 893 501 m 732 501 l 264 797 l 264 208 l 732 501 z "},"▶":{"ha":1067,"x_min":174,"x_max":893,"o":"m 893 501 l 174 47 l 174 958 l 893 501 z "},"♤":{"ha":1067,"x_min":149,"x_max":918,"o":"m 918 385 q 906 313 918 346 q 873 258 894 281 q 822 222 851 235 q 754 208 792 208 q 688 222 719 208 q 611 260 657 235 q 618 209 613 238 q 632 151 624 181 q 651 94 640 122 q 672 43 661 65 q 675 42 674 43 q 681 38 678 39 q 672 23 686 28 q 635 16 658 18 q 584 14 611 14 q 535 14 557 14 q 481 14 508 14 q 430 16 453 14 q 394 23 407 18 q 385 38 381 28 q 396 43 396 43 q 417 97 407 68 q 434 153 426 125 q 447 208 442 181 q 456 260 453 236 q 380 222 411 235 q 314 208 349 208 q 246 222 276 208 q 194 258 215 235 q 160 313 172 281 q 149 385 149 346 q 184 506 149 436 q 275 657 219 576 q 399 824 331 738 q 535 992 468 910 q 669 824 601 910 q 792 657 736 738 q 883 506 847 576 q 918 385 918 436 m 810 407 q 783 497 810 443 q 715 611 756 551 q 625 732 674 671 q 535 844 576 793 q 443 732 492 793 q 353 611 394 671 q 285 497 313 551 q 258 407 258 443 q 263 369 258 389 q 279 332 268 349 q 308 305 290 315 q 353 294 326 294 q 392 303 374 294 q 428 322 411 311 q 458 340 444 332 q 481 349 471 349 q 510 317 508 349 q 501 242 511 286 q 478 153 492 199 q 478 133 474 136 q 497 129 483 131 q 503 130 497 129 q 515 131 508 131 q 528 131 522 131 q 535 131 533 131 q 553 131 543 131 q 571 131 564 131 q 587 136 581 132 q 589 153 593 140 q 565 242 575 199 q 557 317 556 286 q 565 342 558 335 q 588 349 572 349 q 610 340 597 349 q 639 322 622 332 q 675 303 656 311 q 715 294 694 294 q 760 305 742 294 q 789 332 778 315 q 805 369 800 349 q 810 407 810 389 z "},"♠":{"ha":1067,"x_min":150,"x_max":917,"o":"m 917 385 q 905 313 917 346 q 872 258 893 281 q 821 222 850 235 q 754 208 792 208 q 687 222 719 208 q 608 264 654 236 q 615 213 610 242 q 629 153 621 183 q 648 94 638 124 q 669 43 658 65 q 654 19 681 22 q 599 14 632 15 q 533 13 565 13 q 467 14 497 13 q 413 19 436 15 q 397 43 386 22 q 418 97 408 68 q 436 154 428 125 q 450 212 444 183 q 458 264 456 240 q 380 222 413 236 q 313 208 347 208 q 246 222 275 208 q 195 258 217 235 q 162 313 174 281 q 150 385 150 346 q 185 506 150 436 q 275 657 219 576 q 399 824 331 738 q 533 993 467 910 q 668 824 600 910 q 792 657 736 738 q 882 506 847 576 q 917 385 917 436 z "},"♡":{"ha":1067,"x_min":125,"x_max":942,"o":"m 942 710 q 902 533 942 625 q 801 352 863 442 q 669 182 740 263 q 533 40 597 101 q 398 182 469 101 q 265 352 326 263 q 165 533 204 442 q 125 710 125 625 q 141 800 125 758 q 185 872 157 842 q 250 921 213 903 q 331 939 288 939 q 456 890 404 939 q 533 728 507 842 q 611 890 560 842 q 736 939 663 939 q 817 921 779 939 q 882 872 854 903 q 926 800 910 842 q 942 710 942 758 m 829 667 q 794 779 829 735 q 682 824 758 824 q 640 812 658 824 q 609 782 622 800 q 586 742 596 764 q 571 700 576 719 q 558 667 565 683 q 533 650 550 650 q 509 667 517 650 q 496 700 501 683 q 480 742 490 719 q 456 782 469 764 q 425 812 443 800 q 385 824 407 824 q 272 779 308 824 q 235 667 235 735 q 264 542 235 608 q 337 411 293 476 q 433 285 381 346 q 533 175 486 224 q 633 285 581 224 q 728 411 685 346 q 800 542 771 476 q 829 667 829 608 z "},"♥":{"ha":1067,"x_min":125,"x_max":942,"o":"m 942 710 q 902 533 942 625 q 801 352 863 442 q 669 182 740 263 q 533 40 597 101 q 398 182 469 101 q 265 352 326 263 q 165 533 204 442 q 125 710 125 625 q 141 800 125 758 q 185 872 157 842 q 250 921 213 903 q 331 939 288 939 q 456 890 404 939 q 533 728 507 842 q 611 890 560 842 q 736 939 663 939 q 817 921 779 939 q 882 872 854 903 q 926 800 910 842 q 942 710 942 758 z "},"♧":{"ha":1067,"x_min":67,"x_max":1000,"o":"m 1000 396 q 986 314 1000 353 q 946 245 972 275 q 883 198 919 215 q 803 181 847 181 q 742 189 771 181 q 690 212 714 197 q 646 242 665 226 q 614 275 626 258 q 631 227 622 254 q 646 168 639 200 q 656 103 653 136 q 660 38 660 69 q 653 26 660 31 q 640 19 647 21 q 616 19 625 19 q 597 17 607 18 q 572 17 586 17 q 533 17 558 17 q 481 17 504 17 q 426 19 457 18 q 413 26 419 21 q 407 38 407 31 q 410 103 407 69 q 420 168 414 136 q 435 227 426 200 q 453 275 443 254 q 420 242 440 258 q 376 212 400 226 q 324 189 353 197 q 264 181 294 181 q 183 198 219 181 q 121 245 147 215 q 81 314 94 275 q 67 396 67 353 q 81 475 67 436 q 121 543 96 514 q 181 590 146 572 q 258 608 215 608 q 333 594 297 608 q 403 564 368 579 q 421 560 411 558 q 435 567 431 561 q 435 586 440 575 q 425 603 431 597 q 378 648 397 626 q 345 692 358 669 q 326 739 332 714 q 319 796 319 764 q 338 874 319 839 q 385 933 356 908 q 453 972 414 958 q 533 985 492 985 q 614 972 575 985 q 682 933 653 958 q 729 874 711 908 q 747 796 747 839 q 741 739 747 764 q 722 692 735 714 q 689 648 708 669 q 642 603 669 626 q 631 586 636 597 q 632 567 626 575 q 646 560 636 561 q 664 564 656 558 q 734 594 699 579 q 808 608 769 608 q 885 590 850 608 q 945 543 919 572 q 985 475 971 514 q 1000 396 1000 436 m 915 408 q 875 502 915 469 q 769 535 835 535 q 723 530 746 535 q 680 519 700 525 q 643 509 660 514 q 614 504 626 504 q 575 517 592 504 q 558 556 558 531 q 574 596 558 576 q 610 639 590 615 q 647 693 631 663 q 663 767 663 724 q 629 868 663 833 q 533 903 596 903 q 439 868 474 903 q 404 767 404 833 q 420 693 404 724 q 456 639 436 663 q 491 596 475 615 q 507 556 507 576 q 491 517 507 531 q 453 504 475 504 q 424 509 440 504 q 387 519 407 514 q 344 530 367 525 q 297 535 321 535 q 192 502 232 535 q 151 408 151 469 q 192 307 151 346 q 303 268 233 268 q 365 283 338 268 q 415 315 393 297 q 456 349 438 333 q 489 364 474 364 q 501 358 499 364 q 504 342 504 353 q 500 297 504 322 q 490 241 496 271 q 479 177 483 211 q 475 108 475 143 q 488 96 475 97 q 509 94 497 94 q 533 93 521 93 q 558 94 546 93 q 579 96 569 94 q 592 108 592 97 q 588 177 592 143 q 577 241 583 211 q 567 297 571 271 q 563 342 563 322 q 565 358 563 353 q 578 364 568 364 q 610 349 592 364 q 650 315 628 333 q 700 283 672 297 q 764 268 728 268 q 874 307 833 268 q 915 408 915 346 z "},"♣":{"ha":1067,"x_min":67,"x_max":1000,"o":"m 1000 396 q 986 314 1000 353 q 946 245 972 275 q 883 198 919 215 q 803 181 847 181 q 742 189 771 181 q 690 212 714 197 q 646 242 665 226 q 614 275 626 258 q 631 227 622 254 q 646 168 639 200 q 656 103 653 136 q 660 38 660 69 q 653 26 660 31 q 640 19 647 21 q 616 19 625 19 q 597 17 607 18 q 572 17 586 17 q 533 17 558 17 q 481 17 504 17 q 426 19 457 18 q 413 26 419 21 q 407 38 407 31 q 410 103 407 69 q 420 168 414 136 q 435 227 426 200 q 453 275 443 254 q 420 242 440 258 q 376 212 400 226 q 324 189 353 197 q 264 181 294 181 q 183 198 219 181 q 121 245 147 215 q 81 314 94 275 q 67 396 67 353 q 81 475 67 436 q 121 543 96 514 q 181 590 146 572 q 258 608 215 608 q 333 594 297 608 q 403 564 368 579 q 421 560 411 558 q 435 567 431 561 q 435 586 440 575 q 425 603 431 597 q 378 648 397 626 q 345 692 358 669 q 326 739 332 714 q 319 796 319 764 q 338 874 319 839 q 385 933 356 908 q 453 972 414 958 q 533 985 492 985 q 614 972 575 985 q 682 933 653 958 q 729 874 711 908 q 747 796 747 839 q 741 739 747 764 q 722 692 735 714 q 689 648 708 669 q 642 603 669 626 q 631 586 636 597 q 632 567 626 575 q 646 560 636 561 q 664 564 656 558 q 734 594 699 579 q 808 608 769 608 q 885 590 850 608 q 945 543 919 572 q 985 475 971 514 q 1000 396 1000 436 z "},"◉":{"ha":1067,"x_min":76,"x_max":990,"o":"m 990 500 q 954 322 990 406 q 856 177 918 239 q 711 79 794 115 q 533 43 628 43 q 358 79 440 43 q 212 177 275 115 q 113 322 149 239 q 76 500 76 406 q 113 678 76 594 q 212 823 149 761 q 358 921 275 885 q 533 957 440 957 q 711 921 628 957 q 856 823 794 885 q 954 678 918 761 q 990 500 990 594 m 892 500 q 864 640 892 575 q 787 753 836 704 q 673 831 738 803 q 533 858 608 858 q 394 831 458 858 q 281 753 329 803 q 203 640 232 704 q 175 500 175 575 q 203 360 175 425 q 281 247 232 296 q 394 170 329 199 q 533 142 458 142 q 673 170 608 142 q 787 247 738 199 q 864 360 836 296 q 892 500 892 425 m 710 500 q 696 431 710 464 q 658 375 682 399 q 602 338 635 351 q 533 324 569 324 q 465 338 497 324 q 409 375 433 351 q 371 431 385 399 q 357 500 357 464 q 371 569 357 536 q 409 625 385 601 q 465 663 433 649 q 533 676 497 676 q 602 663 569 676 q 658 625 635 649 q 696 569 682 601 q 710 500 710 536 z "},"◈":{"ha":1067,"x_min":25,"x_max":1042,"o":"m 1042 499 l 532 -10 l 25 497 l 533 1008 l 1042 499 m 957 499 l 533 921 l 107 497 l 532 72 l 957 499 m 831 497 l 533 201 l 236 497 l 533 794 l 831 497 z "},"▣":{"ha":1067,"x_min":97,"x_max":969,"o":"m 969 64 l 97 64 l 97 933 l 969 933 l 969 64 m 903 129 l 903 868 l 164 868 l 164 129 l 903 129 m 786 243 l 279 243 l 279 750 l 786 750 l 786 243 z "},"◐":{"ha":1067,"x_min":89,"x_max":978,"o":"m 978 500 q 943 328 978 408 q 847 186 908 247 q 706 90 786 125 q 533 56 625 56 q 362 90 443 56 q 220 186 281 125 q 124 328 160 247 q 89 500 89 408 q 124 672 89 592 q 220 814 160 753 q 362 910 281 875 q 533 944 443 944 q 706 910 625 944 q 847 814 786 875 q 943 672 908 753 q 978 500 978 592 m 932 500 q 901 653 932 581 q 815 781 869 726 q 687 867 760 836 q 533 899 614 899 l 533 103 q 687 134 614 103 q 815 219 760 165 q 901 346 869 274 q 932 500 932 418 z "},"◑":{"ha":1067,"x_min":89,"x_max":978,"o":"m 978 500 q 942 328 978 408 q 847 186 907 247 q 705 90 786 125 q 533 56 624 56 q 361 90 442 56 q 219 186 281 125 q 124 328 158 247 q 89 500 89 408 q 124 672 89 592 q 219 814 158 753 q 361 910 281 875 q 533 944 442 944 q 705 910 624 944 q 847 814 786 875 q 942 672 907 753 q 978 500 978 592 m 533 899 q 379 867 451 899 q 252 781 307 836 q 166 653 197 726 q 135 500 135 581 q 166 346 135 418 q 252 219 197 274 q 379 134 307 165 q 533 103 451 103 l 533 899 z "},"▒":{"ha":1067,"x_min":111,"x_max":956,"o":"m 956 76 l 111 76 l 111 919 l 956 919 l 956 76 m 919 114 l 919 883 l 147 883 l 147 114 l 919 114 m 882 821 q 874 800 882 808 q 853 792 865 792 q 825 821 825 792 q 833 842 825 833 q 853 850 840 850 q 874 842 865 850 q 882 821 882 833 m 775 821 q 747 792 775 792 q 719 821 719 792 q 727 842 719 833 q 747 850 735 850 q 767 842 758 850 q 775 821 775 833 m 882 714 q 874 694 882 703 q 853 686 865 686 q 833 694 840 686 q 825 714 825 703 q 833 733 825 725 q 853 742 840 742 q 874 733 865 742 q 882 714 882 725 m 775 714 q 767 694 775 703 q 747 686 758 686 q 727 694 735 686 q 719 714 719 703 q 727 733 719 725 q 747 742 735 742 q 767 733 758 742 q 775 714 775 725 m 669 821 q 661 800 669 808 q 642 792 653 792 q 619 800 629 792 q 610 821 610 808 q 619 842 610 833 q 642 850 629 850 q 661 842 653 850 q 669 821 669 833 m 882 608 q 874 588 882 597 q 853 578 865 578 q 833 588 840 578 q 825 608 825 597 q 833 629 825 621 q 853 638 840 638 q 874 629 865 638 q 882 608 882 621 m 669 714 q 661 694 669 703 q 642 686 653 686 q 619 694 629 686 q 610 714 610 703 q 619 733 610 725 q 642 742 629 742 q 661 733 653 742 q 669 714 669 725 m 775 608 q 767 588 775 597 q 747 578 758 578 q 727 588 735 578 q 719 608 719 597 q 727 629 719 621 q 747 638 735 638 q 767 629 758 638 q 775 608 775 621 m 561 821 q 533 792 561 792 q 513 800 522 792 q 504 821 504 808 q 513 842 504 833 q 533 850 522 850 q 553 842 546 850 q 561 821 561 833 m 882 501 q 874 482 882 490 q 853 474 865 474 q 833 482 840 474 q 825 501 825 490 q 853 531 825 531 q 874 522 865 531 q 882 501 882 514 m 561 714 q 553 694 561 703 q 533 686 546 686 q 513 694 522 686 q 504 714 504 703 q 513 733 504 725 q 533 742 522 742 q 553 733 546 742 q 561 714 561 725 m 669 608 q 661 588 669 597 q 642 578 653 578 q 619 588 629 578 q 610 608 610 597 q 619 629 610 621 q 642 638 629 638 q 661 629 653 638 q 669 608 669 621 m 775 501 q 767 482 775 490 q 747 474 758 474 q 727 482 735 474 q 719 501 719 490 q 747 531 719 531 q 775 501 775 531 m 457 821 q 447 800 457 808 q 425 792 438 792 q 397 821 397 792 q 406 842 397 833 q 425 850 414 850 q 447 842 438 850 q 457 821 457 833 m 882 393 q 874 372 882 381 q 853 364 865 364 q 833 372 840 364 q 825 393 825 381 q 833 415 825 406 q 853 425 840 425 q 874 415 865 425 q 882 393 882 406 m 457 714 q 447 694 457 703 q 425 686 438 686 q 406 694 414 686 q 397 714 397 703 q 406 733 397 725 q 425 742 414 742 q 447 733 438 742 q 457 714 457 725 m 561 608 q 553 588 561 597 q 533 578 546 578 q 513 588 522 578 q 504 608 504 597 q 513 629 504 621 q 533 638 522 638 q 553 629 546 638 q 561 608 561 621 m 669 501 q 661 482 669 490 q 642 474 653 474 q 619 482 629 474 q 610 501 610 490 q 619 522 610 514 q 642 531 629 531 q 661 522 653 531 q 669 501 669 514 m 775 393 q 767 372 775 381 q 747 364 758 364 q 727 372 735 364 q 719 393 719 381 q 727 415 719 406 q 747 425 735 425 q 767 415 758 425 q 775 393 775 406 m 349 821 q 340 800 349 808 q 321 792 332 792 q 300 800 308 792 q 292 821 292 808 q 300 842 292 833 q 321 850 308 850 q 340 842 332 850 q 349 821 349 833 m 882 289 q 874 268 882 276 q 853 260 865 260 q 833 268 840 260 q 825 289 825 276 q 833 308 825 300 q 853 315 840 315 q 874 308 865 315 q 882 289 882 300 m 242 821 q 214 792 242 792 q 194 800 203 792 q 186 821 186 808 q 194 842 186 833 q 214 850 203 850 q 235 842 228 850 q 242 821 242 833 m 349 714 q 340 694 349 703 q 321 686 332 686 q 300 694 308 686 q 292 714 292 703 q 300 733 292 725 q 321 742 308 742 q 340 733 332 742 q 349 714 349 725 m 457 608 q 447 588 457 597 q 425 578 438 578 q 406 588 414 578 q 397 608 397 597 q 406 629 397 621 q 425 638 414 638 q 447 629 438 638 q 457 608 457 621 m 561 501 q 553 482 561 490 q 533 474 546 474 q 513 482 522 474 q 504 501 504 490 q 513 522 504 514 q 533 531 522 531 q 561 501 561 531 m 669 393 q 661 372 669 381 q 642 364 653 364 q 619 372 629 364 q 610 393 610 381 q 619 415 610 406 q 642 425 629 425 q 661 415 653 425 q 669 393 669 406 m 775 289 q 767 268 775 276 q 747 260 758 260 q 727 268 735 260 q 719 289 719 276 q 727 308 719 300 q 747 315 735 315 q 767 308 758 315 q 775 289 775 300 m 882 181 q 874 161 882 169 q 853 153 865 153 q 833 161 840 153 q 825 181 825 169 q 853 210 825 210 q 874 202 865 210 q 882 181 882 194 m 242 714 q 235 694 242 703 q 214 686 228 686 q 194 694 203 686 q 186 714 186 703 q 194 733 186 725 q 214 742 203 742 q 235 733 228 742 q 242 714 242 725 m 775 181 q 767 161 775 169 q 747 153 758 153 q 727 161 735 153 q 719 181 719 169 q 747 210 719 210 q 775 181 775 210 m 349 608 q 340 588 349 597 q 321 578 332 578 q 300 588 308 578 q 292 608 292 597 q 300 629 292 621 q 321 638 308 638 q 340 629 332 638 q 349 608 349 621 m 457 501 q 447 482 457 490 q 425 474 438 474 q 406 482 414 474 q 397 501 397 490 q 425 531 397 531 q 447 522 438 531 q 457 501 457 514 m 561 393 q 553 372 561 381 q 533 364 546 364 q 513 372 522 364 q 504 393 504 381 q 513 415 504 406 q 533 425 522 425 q 553 415 546 425 q 561 393 561 406 m 669 289 q 661 268 669 276 q 642 260 653 260 q 619 268 629 260 q 610 289 610 276 q 619 308 610 300 q 642 315 629 315 q 661 308 653 315 q 669 289 669 300 m 242 608 q 235 588 242 597 q 214 578 228 578 q 194 588 203 578 q 186 608 186 597 q 194 629 186 621 q 214 638 203 638 q 235 629 228 638 q 242 608 242 621 m 669 181 q 661 161 669 169 q 642 153 653 153 q 619 161 629 153 q 610 181 610 169 q 619 202 610 194 q 642 210 629 210 q 661 202 653 210 q 669 181 669 194 m 349 501 q 340 482 349 490 q 321 474 332 474 q 300 482 308 474 q 292 501 292 490 q 300 522 292 514 q 321 531 308 531 q 340 522 332 531 q 349 501 349 514 m 457 393 q 447 372 457 381 q 425 364 438 364 q 406 372 414 364 q 397 393 397 381 q 406 415 397 406 q 425 425 414 425 q 447 415 438 425 q 457 393 457 406 m 561 289 q 553 268 561 276 q 533 260 546 260 q 513 268 522 260 q 504 289 504 276 q 513 308 504 300 q 533 315 522 315 q 553 308 546 315 q 561 289 561 300 m 242 501 q 235 482 242 490 q 214 474 228 474 q 194 482 203 474 q 186 501 186 490 q 194 522 186 514 q 214 531 203 531 q 242 501 242 531 m 561 181 q 553 161 561 169 q 533 153 546 153 q 513 161 522 153 q 504 181 504 169 q 513 202 504 194 q 533 210 522 210 q 561 181 561 210 m 349 393 q 340 372 349 381 q 321 364 332 364 q 300 372 308 364 q 292 393 292 381 q 300 415 292 406 q 321 425 308 425 q 340 415 332 425 q 349 393 349 406 m 457 289 q 447 268 457 276 q 425 260 438 260 q 406 268 414 260 q 397 289 397 276 q 406 308 397 300 q 425 315 414 315 q 447 308 438 315 q 457 289 457 300 m 242 393 q 235 372 242 381 q 214 364 228 364 q 194 372 203 364 q 186 393 186 381 q 194 415 186 406 q 214 425 203 425 q 235 415 228 425 q 242 393 242 406 m 457 181 q 447 161 457 169 q 425 153 438 153 q 406 161 414 153 q 397 181 397 169 q 425 210 397 210 q 447 202 438 210 q 457 181 457 194 m 349 289 q 340 268 349 276 q 321 260 332 260 q 300 268 308 260 q 292 289 292 276 q 300 308 292 300 q 321 315 308 315 q 340 308 332 315 q 349 289 349 300 m 242 289 q 235 268 242 276 q 214 260 228 260 q 194 268 203 260 q 186 289 186 276 q 194 308 186 300 q 214 315 203 315 q 235 308 228 315 q 242 289 242 300 m 349 181 q 340 161 349 169 q 321 153 332 153 q 300 161 308 153 q 292 181 292 169 q 300 202 292 194 q 321 210 308 210 q 340 202 332 210 q 349 181 349 194 m 242 181 q 235 161 242 169 q 214 153 228 153 q 194 161 203 153 q 186 181 186 169 q 194 202 186 194 q 214 210 203 210 q 242 181 242 210 z "},"▤":{"ha":1067,"x_min":111,"x_max":956,"o":"m 956 76 l 111 76 l 111 919 l 956 919 l 956 76 m 919 806 l 919 883 l 147 883 l 147 806 l 919 806 m 919 686 l 919 769 l 147 769 l 147 686 l 919 686 m 919 575 l 919 651 l 147 651 l 147 575 l 919 575 m 919 458 l 919 539 l 147 539 l 147 458 l 919 458 m 919 339 l 919 422 l 147 422 l 147 339 l 919 339 m 919 225 l 919 303 l 147 303 l 147 225 l 919 225 m 919 114 l 919 190 l 147 190 l 147 114 l 919 114 z "},"▥":{"ha":1067,"x_min":111,"x_max":956,"o":"m 956 76 l 111 76 l 111 919 l 956 919 l 956 76 m 919 114 l 919 883 l 842 883 l 842 114 l 919 114 m 806 114 l 806 883 l 728 883 l 728 114 l 806 114 m 692 114 l 692 883 l 608 883 l 608 114 l 692 114 m 574 114 l 574 883 l 492 883 l 492 114 l 574 114 m 457 114 l 457 883 l 381 883 l 381 114 l 457 114 m 344 114 l 344 883 l 261 883 l 261 114 l 344 114 m 225 114 l 225 883 l 147 883 l 147 114 l 225 114 z "},"▨":{"ha":1067,"x_min":111,"x_max":956,"o":"m 956 76 l 111 76 l 111 919 l 956 919 l 956 76 m 919 722 l 919 857 l 175 114 l 310 114 l 919 722 m 919 535 l 919 669 l 364 114 l 497 114 l 919 535 m 919 344 l 919 481 l 553 114 l 688 114 l 919 344 m 919 114 l 919 292 l 742 114 l 919 114 m 325 883 l 147 883 l 147 708 l 325 883 m 514 883 l 378 883 l 147 654 l 147 518 l 514 883 m 703 883 l 569 883 l 147 464 l 147 329 l 703 883 m 890 883 l 757 883 l 147 275 l 147 142 l 890 883 z "},"▧":{"ha":1067,"x_min":111,"x_max":956,"o":"m 956 76 l 111 76 l 111 919 l 956 919 l 956 76 m 919 708 l 919 883 l 742 883 l 919 708 m 919 518 l 919 654 l 689 883 l 553 883 l 919 518 m 919 329 l 919 464 l 497 883 l 364 883 l 919 329 m 919 142 l 919 275 l 310 883 l 176 883 l 919 142 m 892 114 l 147 857 l 147 722 l 757 114 l 892 114 m 703 114 l 147 669 l 147 535 l 569 114 l 703 114 m 514 114 l 147 481 l 147 344 l 379 114 l 514 114 m 325 114 l 147 292 l 147 114 l 325 114 z "},"▦":{"ha":1067,"x_min":111,"x_max":956,"o":"m 956 76 l 111 76 l 111 919 l 956 919 l 956 76 m 919 803 l 919 883 l 838 883 l 838 803 l 919 803 m 919 688 l 919 769 l 838 769 l 838 688 l 919 688 m 803 803 l 803 883 l 722 883 l 722 803 l 803 803 m 919 572 l 919 654 l 838 654 l 838 572 l 919 572 m 689 803 l 689 883 l 607 883 l 607 803 l 689 803 m 803 688 l 803 769 l 722 769 l 722 688 l 803 688 m 919 458 l 919 539 l 838 539 l 838 458 l 919 458 m 574 803 l 574 883 l 492 883 l 492 803 l 574 803 m 689 688 l 689 769 l 607 769 l 607 688 l 689 688 m 803 572 l 803 654 l 722 654 l 722 572 l 803 572 m 919 342 l 919 425 l 838 425 l 838 342 l 919 342 m 458 803 l 458 883 l 376 883 l 376 803 l 458 803 m 574 688 l 574 769 l 492 769 l 492 688 l 574 688 m 689 572 l 689 654 l 607 654 l 607 572 l 689 572 m 803 458 l 803 539 l 722 539 l 722 458 l 803 458 m 919 228 l 919 308 l 838 308 l 838 228 l 919 228 m 343 803 l 343 883 l 263 883 l 263 803 l 343 803 m 458 688 l 458 769 l 376 769 l 376 688 l 458 688 m 574 572 l 574 654 l 492 654 l 492 572 l 574 572 m 689 458 l 689 539 l 607 539 l 607 458 l 689 458 m 803 342 l 803 425 l 722 425 l 722 342 l 803 342 m 919 114 l 919 194 l 838 194 l 838 114 l 919 114 m 229 803 l 229 883 l 147 883 l 147 803 l 229 803 m 343 688 l 343 769 l 263 769 l 263 688 l 343 688 m 458 572 l 458 654 l 376 654 l 376 572 l 458 572 m 574 458 l 574 539 l 492 539 l 492 458 l 574 458 m 689 342 l 689 425 l 607 425 l 607 342 l 689 342 m 803 228 l 803 308 l 722 308 l 722 228 l 803 228 m 803 114 l 803 194 l 722 194 l 722 114 l 803 114 m 229 688 l 229 769 l 147 769 l 147 688 l 229 688 m 343 572 l 343 654 l 263 654 l 263 572 l 343 572 m 458 458 l 458 539 l 376 539 l 376 458 l 458 458 m 574 342 l 574 425 l 492 425 l 492 342 l 574 342 m 689 228 l 689 308 l 607 308 l 607 228 l 689 228 m 689 114 l 689 194 l 607 194 l 607 114 l 689 114 m 229 572 l 229 654 l 147 654 l 147 572 l 229 572 m 343 458 l 343 539 l 263 539 l 263 458 l 343 458 m 458 342 l 458 425 l 376 425 l 376 342 l 458 342 m 574 228 l 574 308 l 492 308 l 492 228 l 574 228 m 574 114 l 574 194 l 492 194 l 492 114 l 574 114 m 229 458 l 229 539 l 147 539 l 147 458 l 229 458 m 343 342 l 343 425 l 263 425 l 263 342 l 343 342 m 458 228 l 458 308 l 376 308 l 376 228 l 458 228 m 458 114 l 458 194 l 376 194 l 376 114 l 458 114 m 229 342 l 229 425 l 147 425 l 147 342 l 229 342 m 343 228 l 343 308 l 263 308 l 263 228 l 343 228 m 343 114 l 343 194 l 263 194 l 263 114 l 343 114 m 229 228 l 229 308 l 147 308 l 147 228 l 229 228 m 229 114 l 229 194 l 147 194 l 147 114 l 229 114 z "},"▩":{"ha":1067,"x_min":111,"x_max":956,"o":"m 956 76 l 111 76 l 111 919 l 956 919 l 956 76 m 919 708 l 919 858 l 842 783 l 919 708 m 889 883 l 742 883 l 815 810 l 889 883 m 892 681 l 817 758 l 747 689 l 824 614 l 892 681 m 786 783 l 715 856 l 647 789 l 721 714 l 786 783 m 690 883 l 553 883 l 622 815 l 690 883 m 919 517 l 919 654 l 851 586 l 919 517 m 593 789 l 525 856 l 458 789 l 525 721 l 593 789 m 694 689 l 621 761 l 553 694 l 628 622 l 694 689 m 797 588 l 721 663 l 654 596 l 729 518 l 797 588 m 892 492 l 824 558 l 756 492 l 825 425 l 892 492 m 497 883 l 364 883 l 431 817 l 497 883 m 919 329 l 919 464 l 853 396 l 919 329 m 703 492 l 626 567 l 558 500 l 636 425 l 703 492 m 403 789 l 336 857 l 269 790 l 336 722 l 403 789 m 597 596 l 525 668 l 460 601 l 532 528 l 597 596 m 797 396 l 729 464 l 664 397 l 731 329 l 797 396 m 892 303 l 825 369 l 757 303 l 825 235 l 892 303 m 497 694 l 429 763 l 364 696 l 431 628 l 497 694 m 310 883 l 176 883 l 242 818 l 310 883 m 919 142 l 919 275 l 853 208 l 919 142 m 892 114 l 825 181 l 757 114 l 892 114 m 214 790 l 147 857 l 147 722 l 214 790 m 608 396 l 532 475 l 465 404 l 540 331 l 608 396 m 310 696 l 242 764 l 175 696 l 242 629 l 310 696 m 403 603 l 336 669 l 269 603 l 336 535 l 403 603 m 503 500 l 431 574 l 364 507 l 436 435 l 503 500 m 703 303 l 636 369 l 569 303 l 636 235 l 703 303 m 797 208 l 731 275 l 664 208 l 731 142 l 797 208 m 703 114 l 636 181 l 569 114 l 703 114 m 214 603 l 147 669 l 147 535 l 214 603 m 310 507 l 242 574 l 175 507 l 242 440 l 310 507 m 408 406 l 336 481 l 269 411 l 342 339 l 408 406 m 514 303 l 436 379 l 369 313 l 444 235 l 514 303 m 608 208 l 542 275 l 475 208 l 542 142 l 608 208 m 214 411 l 147 481 l 147 346 l 214 411 m 514 114 l 446 181 l 378 114 l 514 114 m 315 313 l 242 385 l 175 318 l 247 247 l 315 313 m 418 208 l 342 286 l 275 218 l 353 142 l 418 208 m 219 218 l 147 292 l 147 146 l 219 218 m 325 114 l 247 192 l 172 114 l 325 114 z "},"♨":{"ha":1067,"x_min":79,"x_max":986,"o":"m 763 499 q 756 422 765 456 q 734 363 747 389 q 706 315 721 336 q 682 275 692 293 q 660 225 667 247 q 650 192 653 203 q 642 183 647 186 q 635 192 638 181 q 629 214 631 200 q 628 243 628 228 q 631 275 628 258 q 639 304 633 292 q 659 362 649 331 q 676 426 669 393 q 681 493 682 460 q 668 556 681 526 q 641 634 647 599 q 636 701 635 669 q 647 763 638 733 q 668 821 656 792 q 680 863 676 840 q 683 899 683 885 q 688 911 683 908 q 699 901 693 914 q 715 844 708 883 q 713 738 721 804 q 713 673 707 699 q 727 622 718 647 q 747 569 736 597 q 763 499 758 542 m 613 486 q 610 429 618 460 q 591 369 603 399 q 565 313 579 339 q 542 271 550 286 q 508 186 510 208 q 500 177 508 176 q 489 186 492 178 q 480 242 481 204 q 497 325 479 279 q 518 406 514 365 q 519 480 522 446 q 508 539 515 514 q 497 572 501 564 q 470 666 474 625 q 474 740 467 707 q 495 800 482 774 q 521 850 508 826 q 542 911 536 883 q 547 957 547 939 q 553 969 547 969 q 564 958 558 968 q 575 926 569 946 q 582 881 581 906 q 581 828 583 856 q 568 772 578 800 q 555 697 553 731 q 567 632 557 664 q 590 565 576 600 q 613 486 603 531 m 453 457 q 436 372 456 421 q 388 269 417 324 q 368 225 374 242 q 361 199 363 208 q 353 188 360 189 q 342 199 347 188 q 333 244 336 214 q 342 308 329 274 q 353 353 347 325 q 363 415 360 381 q 364 485 367 449 q 349 553 361 521 q 329 628 333 592 q 329 701 325 665 q 345 770 333 736 q 374 836 357 804 q 400 904 393 869 q 408 913 403 914 q 415 906 414 913 q 422 847 421 889 q 404 735 424 804 q 402 679 397 710 q 416 614 407 649 q 436 539 425 579 q 453 457 447 499 m 986 275 q 950 180 986 224 q 852 104 914 136 q 709 54 790 72 q 539 36 628 36 q 366 51 449 36 q 219 94 283 67 q 117 160 156 122 q 79 243 79 197 q 108 324 79 289 q 174 383 136 358 q 253 423 213 408 q 317 444 293 438 q 331 440 329 449 q 319 425 333 431 q 289 410 314 422 q 236 377 264 397 q 185 329 208 357 q 163 268 163 301 q 196 216 163 238 q 283 180 229 194 q 403 158 336 165 q 540 151 471 151 q 675 160 608 151 q 796 188 742 169 q 883 233 850 207 q 917 292 917 258 q 901 334 917 314 q 866 371 886 354 q 823 399 846 388 q 785 414 800 410 q 775 428 771 419 q 792 435 779 436 q 840 421 808 432 q 905 390 872 410 q 962 342 938 369 q 986 275 986 314 z "},"☏":{"ha":1067,"x_min":42,"x_max":1025,"o":"m 1014 533 q 992 518 1008 521 q 955 517 975 515 q 910 525 935 519 q 865 536 886 531 q 801 562 831 547 q 768 599 772 576 q 767 619 765 607 q 772 644 769 631 q 778 669 775 657 q 781 688 781 681 q 760 712 775 710 q 725 714 746 714 q 721 688 722 700 q 721 663 719 676 q 726 632 722 650 q 736 586 729 614 q 755 535 744 557 q 778 497 765 514 q 808 467 792 481 q 842 438 824 453 q 886 387 869 414 q 910 334 903 360 q 919 286 918 308 q 921 247 921 264 q 935 231 931 242 q 943 208 940 221 q 946 180 946 194 q 944 154 946 165 q 933 140 943 144 q 907 136 924 136 l 160 136 q 133 140 143 136 q 122 154 124 144 q 121 180 121 165 q 124 208 121 194 q 131 231 126 221 q 146 247 136 242 q 147 286 146 264 q 156 334 149 308 q 181 387 164 360 q 225 438 197 414 q 259 467 243 453 q 288 497 275 481 q 312 535 301 514 q 331 586 322 557 q 340 632 336 614 q 345 663 344 650 q 344 688 346 676 q 342 714 343 700 q 306 712 321 714 q 286 688 292 710 q 288 669 285 681 q 294 644 290 657 q 299 619 297 631 q 299 599 301 607 q 265 562 294 576 q 201 536 236 547 q 156 525 179 531 q 112 517 132 519 q 75 518 92 515 q 53 533 58 521 q 44 566 46 544 q 45 613 42 588 q 58 663 49 638 q 83 708 68 689 q 160 771 111 744 q 268 814 208 797 q 396 839 328 831 q 533 847 464 847 q 670 839 601 847 q 799 814 739 831 q 907 771 858 797 q 983 708 956 744 q 1008 663 999 689 q 1022 613 1018 638 q 1023 566 1025 588 q 1014 533 1021 544 m 596 649 l 596 706 q 533 694 569 694 q 471 706 497 694 l 471 649 l 596 649 m 963 571 q 972 586 969 571 q 969 624 975 601 q 947 674 963 647 q 899 724 931 700 q 831 757 875 742 q 735 783 786 772 q 630 799 683 793 q 533 804 576 804 q 421 799 476 804 q 317 783 365 793 q 229 757 268 772 q 165 724 190 742 q 119 674 135 701 q 97 625 103 647 q 94 587 92 603 q 103 571 97 571 q 186 579 147 567 q 242 613 225 592 q 245 629 247 618 q 240 655 243 640 q 235 685 236 669 q 242 717 235 701 q 297 748 253 736 q 414 760 340 760 q 437 757 425 760 q 464 753 449 754 q 499 744 483 747 q 533 742 514 742 q 569 744 553 742 q 603 753 585 747 q 630 757 618 754 q 653 760 642 760 q 770 749 726 760 q 825 717 814 738 q 831 685 832 701 q 827 655 831 669 q 822 629 824 640 q 825 613 819 618 q 848 594 833 603 q 881 581 863 586 q 920 572 899 575 q 963 571 942 569 m 872 192 q 876 200 875 192 q 877 219 878 208 q 873 242 876 231 q 861 258 869 253 q 858 289 861 269 q 850 328 856 308 q 835 367 844 347 q 810 397 825 386 q 769 436 786 419 q 741 467 753 453 q 720 495 729 481 q 704 529 711 510 q 681 628 686 581 q 679 708 676 675 l 646 708 l 646 604 l 421 604 l 421 708 l 386 708 q 385 628 390 675 q 363 529 381 581 q 347 495 356 510 q 325 467 338 481 q 296 436 313 453 q 257 397 279 419 q 232 367 242 386 q 217 328 222 347 q 208 289 211 308 q 206 258 206 269 q 193 242 197 253 q 188 219 189 231 q 190 200 188 208 q 194 192 192 192 l 872 192 m 700 390 q 687 326 700 357 q 651 272 674 296 q 598 235 628 249 q 533 222 568 222 q 469 235 499 222 q 416 272 439 249 q 380 326 393 296 q 367 390 367 357 q 380 454 367 424 q 416 508 393 485 q 469 544 439 531 q 533 557 499 557 q 598 544 568 557 q 651 508 628 531 q 687 454 674 485 q 700 390 700 424 m 643 390 q 635 433 643 414 q 612 468 626 453 q 577 492 597 483 q 533 500 557 500 q 490 492 510 500 q 455 468 469 483 q 432 433 440 453 q 424 390 424 414 q 455 312 424 343 q 533 281 486 281 q 612 312 581 281 q 643 390 643 343 z "},"☎":{"ha":1067,"x_min":42,"x_max":1025,"o":"m 1014 533 q 992 518 1008 521 q 955 517 975 515 q 910 525 935 519 q 865 536 886 531 q 801 562 831 547 q 768 599 772 576 q 769 619 765 607 q 776 644 772 631 q 784 669 781 657 q 786 688 788 681 q 763 717 781 710 q 725 729 746 725 q 721 672 721 703 q 736 586 721 640 q 755 535 744 557 q 778 497 765 514 q 808 467 792 481 q 842 438 824 453 q 886 387 869 414 q 910 334 903 360 q 919 286 918 308 q 921 247 921 264 q 935 231 931 242 q 943 208 940 221 q 946 180 946 194 q 944 154 946 165 q 933 140 943 144 q 907 136 924 136 l 160 136 q 133 140 143 136 q 122 154 124 144 q 121 180 121 165 q 124 208 121 194 q 131 231 126 221 q 146 247 136 242 q 147 286 146 264 q 156 334 149 308 q 181 387 164 360 q 225 438 197 414 q 259 467 243 453 q 288 497 275 481 q 312 535 301 514 q 331 586 322 557 q 345 672 344 640 q 342 729 346 703 q 303 717 321 725 q 281 688 286 710 q 281 669 278 681 q 290 644 285 657 q 298 619 294 631 q 299 599 301 607 q 265 562 294 576 q 201 536 236 547 q 156 525 179 531 q 112 517 132 519 q 75 518 92 515 q 53 533 58 521 q 44 566 46 544 q 45 613 42 588 q 58 665 49 639 q 83 710 68 690 q 160 773 111 747 q 268 815 208 799 q 396 840 328 832 q 533 847 464 847 q 670 840 601 847 q 799 815 739 832 q 907 773 858 799 q 983 710 956 747 q 1008 665 999 690 q 1022 613 1018 639 q 1023 566 1025 588 q 1014 533 1021 544 m 624 660 l 624 732 q 582 724 606 728 q 533 721 558 721 q 485 724 508 721 q 443 732 461 728 l 443 660 l 624 660 m 701 396 q 688 461 701 431 q 653 514 675 492 q 599 550 631 536 q 533 564 568 564 q 467 550 497 564 q 414 514 436 536 q 378 461 392 492 q 365 396 365 431 q 378 331 365 361 q 414 278 392 301 q 467 243 436 256 q 533 231 497 231 q 599 243 568 231 q 653 278 631 256 q 688 331 675 301 q 701 396 701 361 z "},"☜":{"ha":1067,"x_min":86,"x_max":981,"o":"m 981 369 l 892 369 l 892 392 l 860 392 q 786 358 831 375 q 669 331 742 342 q 617 326 647 326 q 556 325 588 325 q 497 326 525 325 q 450 331 468 328 q 410 341 428 333 q 386 368 392 349 q 389 389 383 381 q 403 403 394 397 q 374 414 388 403 q 360 442 361 425 q 363 462 358 454 q 372 476 367 469 q 344 487 357 479 q 332 514 332 494 q 353 549 332 539 q 425 558 375 558 l 421 568 q 373 569 394 569 q 330 570 351 569 q 283 572 308 571 q 228 575 258 574 q 178 578 203 576 q 132 584 153 579 q 99 599 111 589 q 86 625 86 608 q 97 649 86 640 q 125 660 107 657 q 167 666 143 664 q 221 669 192 668 q 272 672 236 671 q 352 674 307 674 q 448 675 397 675 q 547 675 499 675 q 621 675 583 675 q 694 669 658 675 q 763 650 729 664 q 825 608 796 636 q 863 603 844 604 q 893 603 881 601 l 893 638 l 981 638 l 981 369 m 893 406 l 893 581 q 869 581 885 581 q 843 585 854 582 q 847 575 846 576 q 847 564 849 564 q 838 569 844 564 q 813 596 829 581 q 771 626 797 611 q 725 645 754 638 q 665 656 696 653 q 605 659 633 658 q 563 658 576 660 q 524 649 546 656 q 486 631 503 642 q 473 617 478 625 q 463 600 468 608 q 453 583 458 592 q 439 571 447 575 q 442 561 435 565 q 475 565 450 557 q 496 577 486 569 q 513 591 506 585 q 524 602 519 597 q 531 603 528 607 q 525 585 536 597 q 549 579 535 581 q 572 581 564 578 q 606 596 594 588 q 621 600 618 604 q 618 586 624 594 q 603 572 613 578 q 634 544 610 563 q 694 514 658 525 q 735 503 717 506 q 769 499 754 500 q 791 495 783 497 q 799 489 799 493 q 788 485 799 486 q 763 485 778 483 q 731 489 747 486 q 700 494 714 492 q 658 513 676 503 q 624 533 639 522 q 600 554 610 544 q 586 569 590 564 q 573 566 581 567 q 558 565 565 565 q 531 569 543 567 q 513 574 518 571 l 494 558 q 545 551 525 558 q 569 531 565 544 q 569 503 574 515 q 556 485 564 492 q 592 453 588 476 q 588 429 593 436 q 575 417 583 422 q 610 383 607 406 q 606 356 614 365 q 596 346 597 346 q 636 346 613 342 q 778 373 725 353 q 865 418 831 393 q 872 421 869 421 q 874 417 875 421 l 871 406 l 893 406 m 503 658 q 373 657 447 658 q 222 653 299 656 q 135 647 167 651 q 104 625 104 643 q 131 604 104 608 q 222 596 158 600 l 433 585 q 443 601 438 592 q 458 622 449 610 q 478 644 468 635 q 503 658 488 653 m 963 386 l 963 619 l 911 619 l 911 386 l 963 386 m 574 442 q 567 464 575 458 q 542 474 558 469 q 515 475 533 475 q 476 475 497 475 q 435 474 454 475 q 406 474 415 474 q 387 463 394 471 q 379 444 379 456 q 408 422 379 426 q 435 420 414 421 q 478 419 456 419 q 518 419 500 419 q 538 419 536 419 q 560 424 549 419 q 574 442 572 429 m 592 381 q 580 396 592 392 q 557 400 568 400 q 490 401 526 401 q 428 399 453 401 q 410 389 415 397 q 408 372 406 381 q 414 359 408 365 q 428 351 419 353 q 494 345 458 346 q 558 347 531 344 q 592 381 596 347 m 547 519 q 542 531 547 525 q 525 539 536 538 q 444 542 482 542 q 371 539 407 543 q 354 529 360 536 q 350 514 349 522 q 356 499 350 506 q 372 492 361 492 q 411 492 390 492 q 453 492 432 492 q 494 492 475 492 q 525 494 513 493 q 541 502 535 497 q 547 519 547 507 z "},"☞":{"ha":1067,"x_min":86,"x_max":981,"o":"m 981 625 q 967 599 981 608 q 934 584 954 589 q 888 578 914 579 q 838 575 863 576 q 782 572 806 574 q 736 570 758 571 q 692 569 714 569 q 644 568 671 569 l 642 558 q 713 549 692 558 q 733 514 733 539 q 721 487 733 494 q 693 476 708 479 q 703 462 699 469 q 706 442 707 454 q 691 414 704 425 q 663 403 678 403 q 676 389 671 397 q 681 368 682 381 q 656 341 675 349 q 615 331 638 333 q 569 326 597 328 q 510 325 542 325 q 448 326 478 325 q 397 331 418 326 q 280 358 324 342 q 206 392 236 375 l 174 392 l 174 369 l 86 369 l 86 638 l 172 638 l 172 603 q 203 603 186 601 q 240 608 221 604 q 303 650 269 636 q 372 669 336 664 q 445 675 408 675 q 519 675 482 675 q 618 675 567 675 q 714 674 669 675 q 794 672 758 674 q 844 669 829 671 q 897 666 872 668 q 940 660 922 664 q 969 649 958 657 q 981 625 981 640 m 626 571 q 613 583 618 575 q 603 600 608 592 q 592 617 597 608 q 579 631 588 625 q 541 649 563 642 q 503 658 519 656 q 460 659 488 660 q 401 656 432 658 q 340 645 369 653 q 294 626 311 638 q 253 596 269 611 q 228 569 236 581 q 219 564 221 564 q 219 575 217 564 q 221 579 221 578 q 222 585 221 581 q 196 581 211 582 q 172 581 181 581 l 172 406 l 194 406 l 192 417 q 194 420 192 419 q 200 418 197 421 q 289 373 236 393 q 429 346 342 353 q 469 346 453 342 q 460 357 467 347 q 456 383 453 367 q 492 417 458 406 q 477 429 482 422 q 475 453 472 436 q 485 472 476 464 q 510 485 493 481 q 497 503 501 492 q 497 531 492 515 q 522 551 501 544 q 571 558 542 558 l 553 574 q 535 569 547 571 q 507 565 522 567 q 493 566 500 565 q 481 569 486 567 q 465 554 475 564 q 441 533 456 544 q 408 513 426 522 q 365 494 389 503 q 335 489 353 492 q 303 485 318 486 q 277 485 288 483 q 267 489 267 486 q 274 495 267 493 q 297 499 282 497 q 330 503 311 500 q 371 514 349 506 q 431 544 407 525 q 463 572 456 563 q 447 586 453 578 q 444 600 442 594 q 459 596 447 604 q 493 581 471 588 q 517 579 503 578 q 540 585 531 581 q 536 603 531 597 q 542 602 538 607 q 553 591 547 597 q 569 577 560 585 q 590 565 578 569 q 623 561 615 557 q 626 571 631 565 m 961 625 q 930 647 961 643 q 843 653 899 651 q 693 657 767 656 q 563 658 619 658 q 588 644 578 653 q 607 622 597 635 q 622 601 617 610 q 632 585 628 592 l 843 596 q 934 604 907 600 q 961 625 961 608 m 154 386 l 154 619 l 103 619 l 103 386 l 154 386 m 686 444 q 678 463 686 456 q 660 474 671 471 q 631 474 650 474 q 590 475 611 475 q 551 475 569 475 q 525 474 532 475 q 500 464 508 469 q 492 442 492 458 q 505 424 493 429 q 528 419 517 419 q 547 419 529 419 q 588 419 565 419 q 631 420 610 419 q 658 422 653 421 q 686 444 686 426 m 658 372 q 655 389 660 381 q 638 399 650 397 q 576 401 613 401 q 508 400 539 401 q 486 396 497 400 q 474 381 475 392 q 508 347 469 347 q 572 345 536 344 q 638 351 607 346 q 652 359 647 353 q 658 372 657 365 m 715 514 q 711 529 717 522 q 694 539 706 536 q 621 542 658 543 q 542 539 583 542 q 524 531 529 538 q 519 519 519 525 q 525 502 519 507 q 540 494 531 497 q 572 492 553 493 q 613 492 592 492 q 654 492 633 492 q 693 492 675 492 q 710 499 704 492 q 715 514 715 506 z "},"¶":{"ha":681,"x_min":33,"x_max":604,"o":"m 317 519 l 272 519 q 179 533 222 519 q 103 575 136 547 q 51 642 69 603 q 33 732 33 681 q 49 817 33 778 q 97 885 64 857 q 180 931 129 914 q 304 947 231 947 l 604 947 l 604 -10 l 503 -10 l 503 854 l 417 854 l 417 -10 l 317 -10 l 317 519 z "},"†":{"ha":628,"x_min":36,"x_max":593,"o":"m 376 992 l 374 733 l 593 736 l 593 631 l 374 635 l 376 113 l 253 113 l 254 635 l 36 631 l 36 736 l 254 733 l 253 992 l 376 992 z "},"‡":{"ha":625,"x_min":36,"x_max":592,"o":"m 379 992 l 375 750 l 592 753 l 592 647 l 375 650 l 375 525 l 592 528 l 592 425 l 375 429 l 379 113 l 247 113 l 250 429 l 36 425 l 36 528 l 251 525 l 251 650 l 36 647 l 36 753 l 251 750 l 247 992 l 379 992 z "},"↕":{"ha":651,"x_min":129,"x_max":522,"o":"m 358 786 l 358 314 l 503 396 l 522 379 l 325 143 l 129 379 l 147 396 l 292 314 l 292 786 l 147 703 l 129 719 l 325 956 l 522 719 l 503 703 l 358 786 z "},"↗":{"ha":894,"x_min":46,"x_max":849,"o":"m 46 194 l 707 854 l 546 896 l 544 922 l 849 950 l 821 646 l 794 647 l 753 808 l 92 147 l 46 194 z "},"↙":{"ha":896,"x_min":46,"x_max":850,"o":"m 850 906 l 188 246 l 349 203 l 351 176 l 46 149 l 74 454 l 100 453 l 142 292 l 803 953 l 850 906 z "},"↖":{"ha":894,"x_min":46,"x_max":849,"o":"m 803 147 l 142 808 l 100 647 l 74 646 l 46 950 l 350 922 l 349 896 l 188 854 l 849 194 l 803 147 z "},"↘":{"ha":896,"x_min":46,"x_max":850,"o":"m 92 953 l 753 292 l 796 453 l 822 454 l 850 149 l 544 176 l 547 203 l 708 246 l 46 906 l 92 953 z "},"♭":{"ha":575,"x_min":106,"x_max":469,"o":"m 469 463 q 453 349 469 397 q 408 264 436 300 q 344 203 381 228 q 267 163 308 179 q 185 140 226 147 q 106 131 143 133 l 106 888 l 176 888 l 176 514 q 194 551 183 532 q 224 587 206 571 q 270 613 243 603 q 336 624 297 624 q 388 612 364 624 q 430 579 413 600 q 458 528 447 558 q 469 463 469 499 m 383 419 q 362 522 385 481 q 301 564 339 564 q 246 551 269 564 q 207 517 222 538 q 184 474 192 497 q 176 431 176 451 l 176 186 q 247 203 210 189 q 314 244 283 217 q 364 315 344 271 q 383 419 383 358 z "},"♩":{"ha":431,"x_min":107,"x_max":324,"o":"m 324 292 q 316 210 324 242 q 282 149 308 178 q 246 115 267 131 q 203 91 225 99 q 160 86 181 83 q 124 107 139 89 q 108 146 108 125 q 116 188 107 167 q 143 228 125 210 q 182 261 161 247 q 279 293 225 286 l 279 913 l 324 913 l 324 292 z "},"♪":{"ha":599,"x_min":60,"x_max":536,"o":"m 536 546 q 526 476 536 511 q 493 403 517 440 q 437 337 471 369 q 371 286 403 304 q 355 285 358 279 q 360 300 351 292 q 394 336 375 314 q 432 386 414 358 q 462 447 450 414 q 474 519 474 481 q 452 583 474 557 q 400 628 431 610 q 335 658 369 647 q 275 678 300 669 l 275 292 q 267 210 275 242 q 236 149 260 178 q 199 115 219 131 q 156 91 178 99 q 113 86 135 83 q 78 107 92 89 q 61 146 63 125 q 69 188 60 167 q 97 228 79 210 q 135 261 114 247 q 232 293 178 286 l 232 861 q 233 892 232 876 q 242 907 235 907 q 257 901 250 907 q 278 881 264 896 q 308 844 292 863 q 357 799 325 825 q 440 722 406 757 q 497 656 475 686 q 527 599 518 625 q 536 546 536 572 z "},"♬":{"ha":769,"x_min":53,"x_max":717,"o":"m 717 376 q 694 303 717 338 q 639 243 672 269 q 606 220 625 231 q 569 206 588 210 q 534 206 551 203 q 503 226 517 210 q 494 258 493 240 q 503 293 496 275 q 524 328 511 311 q 553 356 536 344 q 612 386 585 379 q 671 397 639 393 l 671 607 l 275 519 l 275 268 q 253 193 275 228 q 200 132 232 158 q 167 110 186 119 q 129 96 149 100 q 92 96 110 92 q 63 117 75 100 q 53 147 53 131 q 62 183 54 164 q 83 218 69 201 q 111 247 96 235 q 172 277 144 269 q 231 289 200 285 l 231 796 l 717 893 l 717 376 m 671 713 l 671 779 l 275 694 l 275 629 l 671 713 z "},"㉿":{"ha":1031,"x_min":29,"x_max":1000,"o":"m 758 254 l 632 254 l 444 471 l 440 465 l 440 254 l 343 254 l 343 772 l 440 772 l 440 575 l 604 768 l 724 768 l 508 526 l 758 254 m 879 664 q 736 836 835 771 q 631 889 686 871 q 514 907 576 907 q 249 807 364 908 q 114 560 136 710 l 254 560 l 254 479 l 29 479 l 29 503 q 171 843 29 703 q 328 950 243 915 q 514 986 414 985 q 796 897 669 986 q 969 664 915 808 l 879 664 m 1000 503 q 858 158 1000 300 q 514 18 715 18 q 211 125 342 18 q 102 245 144 179 q 42 394 60 311 l 131 396 q 182 277 147 331 q 269 182 217 224 q 384 118 324 139 q 514 97 444 97 q 792 208 674 97 q 917 479 908 319 l 694 479 l 694 560 l 997 560 q 1000 503 1000 531 z "},"㈜":{"ha":1067,"x_min":8,"x_max":1057,"o":"m 538 863 l 289 863 l 289 1003 q 194 760 225 885 q 164 508 164 636 q 197 250 164 378 q 297 3 231 122 l 147 3 q 43 249 78 121 q 8 508 8 376 q 43 768 8 639 q 147 1019 78 897 l 297 1019 l 293 1013 l 771 1013 l 768 1019 l 919 1019 q 1022 768 988 897 q 1057 508 1057 639 q 1022 249 1057 376 q 919 3 988 121 l 768 3 q 869 250 836 122 q 903 508 903 378 q 870 763 903 636 q 774 1008 838 889 l 774 885 l 619 753 l 788 644 l 788 472 l 510 660 l 289 472 l 289 658 l 538 863 m 853 400 l 853 261 l 604 261 l 604 -32 l 449 -32 l 449 261 l 197 261 l 197 400 l 853 400 z "},"№":{"ha":1067,"x_min":8,"x_max":1058,"o":"m 711 946 q 814 924 772 946 q 882 865 856 903 q 919 777 908 828 q 931 669 931 726 l 931 275 q 919 168 931 218 q 882 81 908 118 q 814 22 856 43 q 711 0 772 0 l 681 0 q 578 22 619 0 q 510 81 536 43 q 474 168 485 118 q 463 275 463 218 l 463 669 q 474 777 463 726 q 510 865 485 828 q 578 924 536 903 q 681 946 619 946 l 711 946 m 793 672 q 788 719 793 697 q 772 757 782 740 q 746 783 761 774 q 710 792 731 792 l 682 792 q 647 783 663 792 q 620 757 631 774 q 604 719 610 740 q 599 672 599 697 l 599 274 q 604 227 599 249 q 620 189 610 206 q 647 163 631 172 q 682 153 663 153 l 710 153 q 746 163 731 153 q 772 189 761 172 q 788 227 782 206 q 793 274 793 249 l 793 672 m 914 -21 l 914 118 l 1058 118 l 1058 -21 l 914 -21 m 154 457 l 154 0 l 8 0 l 8 946 l 154 946 l 275 483 l 275 946 l 419 946 l 419 0 l 275 0 l 154 457 z "},"㏇":{"ha":1067,"x_min":3,"x_max":1063,"o":"m 919 -21 l 919 118 l 1063 118 l 1063 -21 l 919 -21 m 240 153 q 265 161 254 153 q 283 183 275 169 q 297 213 292 196 q 304 247 301 231 l 447 247 q 429 151 442 196 q 393 72 417 106 q 332 19 369 39 q 242 0 294 0 l 211 0 q 115 22 154 0 q 50 81 75 43 q 14 168 25 118 q 3 275 3 218 l 3 669 q 14 777 3 726 q 50 865 25 828 q 115 924 75 903 q 211 946 154 946 l 242 946 q 333 926 296 946 q 393 873 369 907 q 429 793 417 839 q 447 694 442 747 l 306 694 q 299 730 303 713 q 287 761 294 747 q 268 783 279 775 q 240 792 257 792 l 224 792 q 188 783 203 792 q 162 757 172 774 q 146 719 151 740 q 140 672 140 697 l 140 274 q 144 227 140 249 q 157 189 147 206 q 183 163 167 172 q 224 153 199 153 l 240 153 m 710 946 q 813 924 771 946 q 881 865 854 903 q 918 777 907 828 q 929 669 929 726 l 929 275 q 918 168 929 218 q 881 81 907 118 q 813 22 854 43 q 710 0 771 0 l 681 0 q 578 22 619 0 q 510 81 536 43 q 472 168 483 118 q 461 275 461 218 l 461 669 q 472 777 461 726 q 510 865 483 828 q 578 924 536 903 q 681 946 619 946 l 710 946 m 792 672 q 786 719 792 697 q 770 757 781 740 q 744 783 760 774 q 708 792 729 792 l 681 792 q 646 783 661 792 q 619 757 631 774 q 603 719 608 740 q 597 672 597 697 l 597 274 q 603 227 597 249 q 619 189 608 206 q 646 163 631 172 q 681 153 661 153 l 708 153 q 744 163 729 153 q 770 189 760 172 q 786 227 781 206 q 792 274 792 249 l 792 672 z "},"™":{"ha":1067,"x_min":65,"x_max":1000,"o":"m 197 793 l 65 793 l 65 946 l 476 946 l 476 793 l 343 793 l 343 556 l 197 556 l 197 793 m 751 707 l 760 707 l 813 944 l 1000 944 l 1000 556 l 886 556 l 886 792 l 876 792 l 818 556 l 688 556 l 636 790 l 628 790 l 628 556 l 513 556 l 513 944 l 700 944 l 751 707 z "},"㏂":{"ha":1067,"x_min":0,"x_max":1057,"o":"m 894 571 q 872 541 876 571 q 868 465 868 511 l 868 0 l 738 0 l 738 454 q 733 538 738 504 q 710 571 729 571 l 706 571 q 681 538 686 571 q 675 454 675 504 l 675 0 l 544 0 l 544 707 l 675 707 l 675 699 q 693 705 683 703 q 713 707 703 707 l 717 707 q 769 694 746 707 q 811 660 792 682 q 853 694 831 682 q 901 707 876 707 l 917 707 q 982 688 956 707 q 1025 635 1008 668 q 1049 558 1042 603 q 1057 465 1057 514 l 1057 0 l 928 0 l 928 454 q 924 538 928 504 q 900 571 919 571 l 894 571 m 7 483 q 19 568 10 528 q 48 639 28 608 q 102 688 68 669 q 188 707 136 707 l 193 707 q 282 686 247 707 q 338 631 317 665 q 367 553 358 597 q 375 465 375 510 l 375 0 l 192 0 q 109 17 144 0 q 49 63 74 35 q 13 131 25 92 q 0 214 0 169 q 11 294 0 257 q 44 359 22 332 q 99 402 65 386 q 176 418 132 418 l 247 418 l 247 454 q 235 538 247 504 q 192 571 224 571 l 179 571 q 153 564 164 571 q 136 544 142 557 q 127 515 131 531 q 122 483 124 500 l 7 483 m 115 214 q 131 155 115 178 q 164 132 146 132 l 247 132 l 247 296 l 164 296 q 131 272 146 296 q 115 214 115 249 m 392 -21 l 392 107 l 525 107 l 525 -21 l 392 -21 z "},"㏘":{"ha":1067,"x_min":8,"x_max":1058,"o":"m 192 707 q 291 688 251 707 q 354 636 331 669 q 388 556 378 603 q 397 449 397 508 l 397 258 q 390 152 397 200 q 363 70 382 104 q 310 18 343 36 q 225 0 276 0 l 192 0 q 168 1 179 0 q 146 6 157 3 l 146 -242 l 8 -242 l 8 707 l 192 707 m 897 571 q 874 541 879 571 q 869 465 869 511 l 869 0 l 740 0 l 740 454 q 735 538 740 504 q 713 571 731 571 l 708 571 q 685 543 692 571 q 676 474 678 515 l 676 0 l 547 0 l 547 465 l 547 475 l 547 707 l 676 707 l 676 699 q 695 705 686 703 q 714 707 704 707 l 719 707 q 771 694 747 707 q 814 660 794 682 q 856 694 833 682 q 903 707 879 707 l 919 707 q 985 688 958 707 q 1028 635 1011 668 q 1051 558 1044 603 q 1058 465 1058 514 l 1058 0 l 931 0 l 931 454 q 926 538 931 504 q 903 571 921 571 l 897 571 m 146 569 l 146 242 q 154 167 146 196 q 190 138 163 138 l 225 138 q 261 167 251 138 q 271 242 271 196 l 271 467 q 269 508 271 489 q 263 540 268 526 q 245 562 257 554 q 214 569 233 569 l 146 569 m 394 -21 l 394 107 l 526 107 l 526 -21 l 394 -21 z "},"℡":{"ha":1067,"x_min":28,"x_max":1038,"o":"m 381 456 q 399 552 381 507 q 446 632 417 597 q 511 687 475 667 q 586 707 547 707 l 656 707 q 744 684 706 707 q 808 626 782 661 q 848 547 835 590 q 861 461 861 503 l 861 288 l 522 288 l 522 222 q 531 185 522 201 q 555 156 540 168 q 588 138 569 144 q 625 131 606 131 l 836 131 l 836 -3 l 610 -3 q 440 62 499 -3 q 381 240 381 126 l 381 456 m 186 793 l 28 793 l 28 946 l 506 946 l 506 793 l 344 793 l 344 0 l 186 0 l 186 793 m 897 946 l 1038 946 l 1038 0 l 897 0 l 897 946 m 525 408 l 722 408 l 722 443 q 715 492 722 469 q 696 532 708 515 q 667 558 683 549 q 631 568 650 568 l 611 568 q 577 558 593 568 q 549 531 561 547 q 531 491 538 514 q 525 443 525 468 l 525 408 z "},"！":{"ha":1067,"x_min":451,"x_max":614,"o":"m 614 239 l 451 239 l 451 1007 l 614 1007 l 614 239 m 614 0 l 451 0 l 451 163 l 614 163 l 614 0 z "},"＂":{"ha":1067,"x_min":353,"x_max":713,"o":"m 390 808 l 353 1046 l 501 1046 l 524 808 l 390 808 m 579 808 l 542 1046 l 690 1046 l 713 808 l 579 808 z "},"＃":{"ha":1067,"x_min":38,"x_max":1028,"o":"m 263 358 l 326 549 l 158 549 l 218 706 l 379 706 l 453 926 l 613 926 l 538 706 l 699 706 l 774 926 l 931 926 l 857 706 l 1028 706 l 968 549 l 804 549 l 740 358 l 908 358 l 847 201 l 688 201 l 610 -32 l 451 -32 l 529 201 l 369 201 l 292 -32 l 131 -32 l 208 201 l 38 201 l 97 358 l 263 358 m 421 358 l 582 358 l 647 549 l 486 549 l 421 358 z "},"＄":{"ha":1067,"x_min":179,"x_max":886,"o":"m 631 558 q 731 538 685 558 q 813 482 778 517 q 867 400 847 447 q 886 299 886 353 q 867 199 886 246 q 812 117 847 153 q 731 62 776 82 q 631 42 685 42 l 626 42 l 603 42 l 603 -32 l 464 -32 l 464 40 l 224 40 l 224 188 l 464 188 l 464 411 l 436 411 q 335 432 382 411 q 254 488 289 453 q 199 569 219 522 q 179 669 179 617 q 199 770 179 724 q 254 851 219 817 q 335 907 289 886 q 436 928 382 928 l 464 928 l 464 1001 l 603 1001 l 603 928 l 774 928 l 774 781 l 603 781 l 603 558 l 631 558 m 603 411 l 603 188 l 633 188 q 709 222 678 190 q 740 299 740 253 q 731 343 740 322 q 707 378 722 364 q 672 402 692 393 q 629 411 653 411 l 603 411 m 325 669 q 356 592 325 625 q 433 558 388 560 l 464 558 l 464 781 l 436 781 q 358 749 390 781 q 325 669 325 717 z "},"％":{"ha":1067,"x_min":72,"x_max":993,"o":"m 785 976 l 447 -32 l 286 -32 l 626 976 l 785 976 m 292 935 q 340 924 317 935 q 381 894 364 913 q 409 850 399 875 q 419 797 419 825 l 419 669 q 410 615 419 642 q 382 570 400 589 q 341 540 364 551 q 292 529 318 529 l 201 529 q 151 540 175 529 q 110 570 128 551 q 82 615 92 589 q 72 669 72 642 l 72 792 q 82 844 72 818 q 110 890 92 869 q 151 922 128 910 q 201 935 175 935 l 292 935 m 304 764 q 292 795 304 782 q 265 808 281 808 l 226 808 q 199 795 211 808 q 188 764 188 782 l 188 699 q 199 668 188 681 q 226 656 211 656 l 265 656 q 292 668 281 656 q 304 699 304 681 l 304 764 m 864 415 q 913 404 890 415 q 954 374 936 393 q 983 331 972 356 q 993 278 993 306 l 993 151 q 983 96 993 122 q 956 51 974 69 q 915 21 938 32 q 864 10 892 10 l 775 10 q 724 21 747 10 q 683 51 701 32 q 656 96 665 69 q 646 151 646 122 l 646 272 q 656 324 646 299 q 683 371 665 350 q 724 403 701 392 q 775 415 747 415 l 864 415 m 878 244 q 866 276 878 264 q 839 289 854 289 l 800 289 q 773 276 785 289 q 761 244 761 264 l 761 181 q 773 149 761 163 q 800 136 785 136 l 839 136 q 866 149 854 136 q 878 181 878 163 l 878 244 z "},"＆":{"ha":1067,"x_min":168,"x_max":899,"o":"m 899 -11 l 725 -11 l 664 69 q 637 34 651 50 q 605 6 622 18 q 565 -14 588 -7 q 514 -21 543 -21 l 321 -21 q 258 -8 286 -21 q 210 29 231 6 q 179 86 190 53 q 168 160 168 119 l 168 353 q 183 409 168 383 q 220 455 199 435 q 265 490 242 475 q 303 517 288 504 q 274 553 290 533 q 244 598 258 574 q 219 651 229 622 q 208 713 208 679 l 208 781 q 222 890 208 846 q 260 960 235 933 q 322 1000 285 988 q 408 1013 358 1013 l 514 1013 q 660 956 614 1013 q 707 781 707 899 l 707 701 q 653 577 701 629 q 522 475 606 525 l 657 299 l 742 433 l 847 371 l 736 189 l 899 -11 m 426 869 q 360 783 360 869 l 360 713 q 369 678 360 697 q 392 639 379 658 q 417 604 404 619 q 436 585 431 589 q 479 612 458 597 q 517 642 500 626 q 543 672 533 657 q 554 701 553 686 l 554 783 q 539 849 554 829 q 488 869 524 869 l 426 869 m 315 194 q 333 137 315 154 q 382 119 351 119 l 482 119 q 514 125 500 119 q 539 140 528 131 q 559 159 550 149 q 575 181 568 169 l 403 413 q 378 395 393 406 q 350 373 364 385 q 326 349 336 361 q 315 328 315 338 l 315 194 z "},"＇":{"ha":1067,"x_min":447,"x_max":618,"o":"m 447 808 l 469 1046 l 618 1046 l 581 808 l 447 808 z "},"（":{"ha":1067,"x_min":722,"x_max":1011,"o":"m 1011 1019 q 910 769 943 897 q 876 508 876 640 q 910 250 876 378 q 1011 3 943 122 l 860 3 q 757 249 792 121 q 722 508 722 376 q 757 768 722 639 q 860 1019 792 897 l 1011 1019 z "},"）":{"ha":1067,"x_min":56,"x_max":344,"o":"m 207 1019 q 310 768 275 897 q 344 508 344 639 q 310 249 344 376 q 207 3 275 121 l 56 3 q 157 250 124 122 q 190 508 190 378 q 157 769 190 640 q 56 1019 124 897 l 207 1019 z "},"＊":{"ha":1067,"x_min":204,"x_max":861,"o":"m 428 406 l 204 406 l 204 532 l 428 532 l 322 729 l 433 788 l 533 603 l 633 788 l 744 729 l 639 532 l 861 532 l 861 406 l 639 406 l 744 210 l 632 150 l 532 336 l 433 150 l 322 210 l 428 406 z "},"＋":{"ha":1067,"x_min":260,"x_max":806,"o":"m 601 571 l 806 571 l 806 433 l 601 433 l 601 231 l 464 231 l 464 433 l 260 433 l 260 571 l 464 571 l 464 775 l 601 775 l 601 571 z "},"，":{"ha":1067,"x_min":440,"x_max":626,"o":"m 440 -54 l 463 128 l 626 128 l 590 -54 l 440 -54 z "},"－":{"ha":1067,"x_min":274,"x_max":793,"o":"m 793 581 l 793 429 l 274 429 l 274 581 l 793 581 z "},"．":{"ha":1067,"x_min":451,"x_max":615,"o":"m 451 -32 l 451 128 l 615 128 l 615 -32 l 451 -32 z "},"／":{"ha":1067,"x_min":285,"x_max":782,"o":"m 782 976 l 444 -32 l 285 -32 l 625 976 l 782 976 z "},"０":{"ha":1067,"x_min":204,"x_max":863,"o":"m 603 951 q 704 931 657 951 q 786 875 751 910 q 842 793 821 840 q 863 692 863 746 l 863 258 q 842 158 863 206 q 786 76 821 111 q 704 21 751 42 q 603 0 657 0 l 463 0 q 361 21 408 0 q 279 76 314 42 q 224 158 244 111 q 204 258 204 206 l 204 692 q 224 793 204 746 q 279 875 244 840 q 361 931 314 910 q 463 951 408 951 l 603 951 m 701 664 q 692 709 701 688 q 667 747 682 731 q 630 773 651 764 q 585 782 608 782 l 481 782 q 435 773 457 782 q 398 747 414 764 q 373 709 382 731 q 364 664 364 688 l 364 288 q 373 242 364 264 q 398 203 382 219 q 435 178 414 188 q 481 169 457 169 l 585 169 q 630 178 608 169 q 667 203 651 188 q 692 242 682 219 q 701 288 701 264 l 701 664 z "},"１":{"ha":1067,"x_min":386,"x_max":681,"o":"m 386 774 l 494 946 l 681 946 l 681 0 l 519 0 l 519 774 l 386 774 z "},"２":{"ha":1067,"x_min":225,"x_max":842,"o":"m 233 210 q 422 363 331 283 q 596 519 513 442 q 634 558 618 540 q 660 593 650 575 q 675 633 669 611 q 681 686 681 654 q 672 730 681 708 q 647 767 663 751 q 611 791 631 782 q 568 800 592 800 l 490 800 q 446 791 467 800 q 410 767 425 782 q 385 730 394 751 q 376 686 376 708 l 376 653 l 225 653 l 225 714 q 244 810 225 765 q 297 889 264 856 q 376 942 331 922 q 472 961 421 961 l 593 961 q 690 942 644 961 q 769 889 735 922 q 822 810 803 856 q 842 714 842 765 l 842 693 q 838 617 842 651 q 822 551 833 582 q 790 491 811 519 q 736 431 769 463 q 569 280 656 354 q 393 142 482 206 l 825 142 l 825 0 l 233 0 l 233 210 z "},"３":{"ha":1067,"x_min":206,"x_max":886,"o":"m 839 783 q 851 640 864 710 q 778 515 838 569 l 769 506 l 778 497 q 833 413 815 458 q 833 160 886 286 q 783 80 815 115 q 707 25 750 44 q 643 3 675 10 q 579 -5 611 -3 q 515 -6 547 -7 q 449 -6 483 -6 q 354 14 399 -6 q 276 67 310 33 q 224 147 243 101 q 206 242 206 192 l 206 269 l 356 269 q 364 226 356 246 q 390 189 372 203 q 432 167 408 175 q 481 156 456 158 q 526 156 506 154 q 585 164 556 158 q 640 188 615 169 q 680 254 671 211 q 678 339 689 297 q 575 426 658 411 q 486 435 542 435 l 438 435 l 438 578 l 486 578 q 575 586 542 578 q 640 611 617 592 q 667 645 657 625 q 677 688 676 665 q 669 731 678 710 q 640 771 660 753 q 598 793 625 785 q 540 803 571 801 q 475 799 508 804 q 415 781 442 794 q 372 743 389 767 q 356 686 356 719 l 206 686 l 206 715 q 231 822 206 775 q 296 899 256 868 q 388 945 336 929 q 493 961 440 961 q 535 961 519 961 q 560 960 551 961 q 572 960 568 960 q 575 960 575 960 q 609 957 592 958 q 643 953 626 956 q 705 931 674 946 q 760 896 736 917 q 807 844 786 874 q 839 783 828 815 z "},"４":{"ha":1067,"x_min":167,"x_max":900,"o":"m 756 333 l 900 333 l 900 189 l 756 189 l 756 0 l 593 0 l 593 186 l 167 186 l 167 333 l 474 946 l 756 946 l 756 333 m 593 333 l 593 817 l 344 333 l 593 333 z "},"５":{"ha":1067,"x_min":206,"x_max":860,"o":"m 538 628 q 672 606 613 628 q 774 544 732 585 q 838 442 815 503 q 860 304 860 381 q 778 67 860 153 q 531 -19 696 -19 q 397 -1 457 -19 q 294 56 336 18 q 229 151 253 93 q 206 286 206 208 l 364 286 q 401 178 364 219 q 524 138 439 138 q 649 181 603 138 q 694 303 694 224 q 681 380 694 349 q 644 430 668 411 q 588 457 619 449 q 519 465 556 465 q 390 422 431 465 l 228 422 l 228 940 l 814 940 l 814 775 l 403 775 l 403 601 q 463 622 425 615 q 538 628 500 628 z "},"６":{"ha":1067,"x_min":204,"x_max":861,"o":"m 479 -6 q 372 16 422 -6 q 285 75 322 38 q 226 163 247 113 q 204 269 204 213 l 204 314 l 204 325 l 204 681 q 226 787 204 736 q 285 875 247 838 q 372 934 322 913 q 479 956 422 956 l 597 956 q 698 936 653 956 q 777 883 743 917 q 832 803 811 849 q 858 704 853 758 l 685 704 q 657 767 676 742 q 597 792 638 792 l 481 792 q 403 756 431 792 q 375 671 375 721 l 375 569 q 479 590 425 590 l 586 590 q 693 569 643 590 q 781 510 743 547 q 840 422 818 472 q 861 314 861 371 l 861 269 q 840 163 861 213 q 781 75 818 113 q 693 16 743 38 q 586 -6 643 -6 l 479 -6 m 375 274 q 405 192 376 225 q 481 158 433 158 l 586 158 q 663 194 635 158 q 692 279 692 229 l 692 306 q 663 390 692 356 q 586 425 635 425 l 481 425 q 403 391 431 425 q 375 307 375 357 l 375 274 z "},"７":{"ha":1067,"x_min":215,"x_max":850,"o":"m 215 935 l 850 935 l 683 0 l 506 0 l 639 764 l 392 764 l 392 622 l 215 622 l 215 935 z "},"８":{"ha":1067,"x_min":204,"x_max":863,"o":"m 583 957 q 687 937 640 957 q 767 882 733 917 q 818 798 800 847 q 836 692 836 749 l 836 651 q 819 560 836 601 q 775 485 803 518 q 838 407 814 453 q 863 303 863 361 l 863 242 q 842 143 863 189 q 786 64 821 97 q 704 13 751 31 q 603 -6 657 -6 l 463 -6 q 361 13 408 -6 q 279 64 314 31 q 224 143 244 97 q 204 242 204 189 l 204 303 q 228 409 204 363 q 293 486 253 456 q 250 561 265 519 q 235 651 235 603 l 235 692 q 253 798 235 749 q 303 882 271 847 q 383 937 336 917 q 486 957 431 957 l 583 957 m 701 279 q 667 360 701 329 q 585 392 633 392 l 572 392 l 561 392 l 508 392 l 497 392 l 481 392 q 398 360 432 392 q 364 279 364 329 l 364 263 q 398 183 364 213 q 481 154 432 154 l 585 154 q 667 183 633 154 q 701 263 701 213 l 701 279 m 669 681 q 664 727 669 706 q 647 765 658 749 q 618 792 636 782 q 575 801 600 801 l 494 801 q 423 766 446 801 q 400 681 400 731 l 400 660 q 423 576 400 611 q 494 540 446 540 l 575 540 q 618 549 600 540 q 647 575 636 558 q 664 614 658 592 q 669 660 669 636 l 669 681 z "},"９":{"ha":1067,"x_min":221,"x_max":844,"o":"m 614 957 q 715 937 671 957 q 787 882 758 917 q 830 798 815 847 q 844 692 844 749 l 844 569 q 822 444 844 501 l 738 0 l 581 0 l 640 307 q 627 306 633 306 q 614 306 621 306 l 451 306 q 351 326 394 306 q 279 381 308 346 q 235 464 250 415 q 221 569 221 513 l 221 692 q 235 798 221 749 q 279 882 250 847 q 351 937 308 917 q 451 957 394 957 l 614 957 m 675 683 q 658 763 675 733 q 592 792 640 792 l 475 792 q 408 763 425 792 q 392 683 392 733 l 392 579 q 408 499 392 529 q 475 469 425 469 l 592 469 q 658 499 640 469 q 675 579 675 529 l 675 683 z "},"：":{"ha":1067,"x_min":454,"x_max":613,"o":"m 454 253 l 613 253 l 613 101 l 454 101 l 454 253 m 454 707 l 613 707 l 613 556 l 454 556 l 454 707 z "},"；":{"ha":1067,"x_min":444,"x_max":621,"o":"m 461 708 l 619 708 l 619 557 l 461 557 l 461 708 m 460 243 l 621 243 l 568 -3 l 444 -3 l 460 243 z "},"＜":{"ha":1067,"x_min":610,"x_max":1013,"o":"m 833 1014 l 1013 1014 l 788 514 l 1013 3 l 833 3 l 610 514 l 833 1014 z "},"＝":{"ha":1067,"x_min":265,"x_max":800,"o":"m 800 693 l 800 556 l 265 556 l 265 693 l 800 693 m 800 449 l 800 311 l 265 311 l 265 449 l 800 449 z "},"＞":{"ha":1067,"x_min":54,"x_max":457,"o":"m 457 514 l 233 3 l 54 3 l 279 514 l 54 1014 l 233 1014 l 457 514 z "},"？":{"ha":1067,"x_min":247,"x_max":819,"o":"m 247 739 q 255 831 247 783 q 283 917 263 878 q 338 981 303 956 q 429 1007 372 1007 l 624 1007 q 705 988 669 1007 q 763 940 740 969 q 799 874 786 911 q 816 799 813 836 q 813 726 819 761 q 793 665 807 692 l 638 381 l 638 256 l 478 256 l 478 397 l 625 654 q 642 708 638 675 q 642 773 647 742 q 622 826 638 804 q 576 849 606 849 l 486 849 q 447 841 463 849 q 423 819 432 833 q 411 784 414 804 q 408 739 408 764 l 247 739 m 642 0 l 478 0 l 478 163 l 642 163 l 642 0 z "},"＠":{"ha":1067,"x_min":93,"x_max":972,"o":"m 892 169 q 831 157 860 150 q 763 192 801 164 q 727 215 744 203 q 694 242 710 228 q 589 199 644 199 l 478 199 q 415 213 444 199 q 365 251 386 226 q 331 307 343 275 q 319 375 319 339 l 319 492 q 328 544 319 515 q 357 598 338 574 q 405 639 376 622 q 471 656 433 656 l 553 656 q 606 649 583 656 q 638 631 629 642 l 638 669 l 749 669 l 749 382 q 768 349 749 368 q 808 317 788 331 q 822 310 814 313 q 835 321 831 308 l 835 550 q 816 639 835 597 q 766 712 797 681 q 693 762 735 743 q 606 781 651 781 l 468 781 q 383 761 424 781 q 311 710 342 742 q 261 636 281 678 q 242 550 242 594 l 242 325 q 259 235 242 275 q 306 165 276 194 q 375 120 336 136 q 458 104 414 104 l 604 104 l 885 106 l 885 -24 l 438 -24 q 299 4 363 -24 q 190 81 236 32 q 119 194 144 129 q 93 332 93 258 l 93 569 q 126 707 93 642 q 212 821 158 772 q 336 897 265 869 q 482 925 407 925 l 593 925 q 738 897 669 925 q 859 821 807 869 q 942 707 911 772 q 972 569 972 642 l 972 388 q 971 308 972 340 q 962 251 969 275 q 938 208 954 226 q 892 169 921 189 m 624 464 q 605 522 624 499 q 547 544 586 544 l 510 544 q 458 522 478 544 q 438 464 438 499 l 438 397 q 441 373 438 386 q 453 349 444 360 q 474 331 461 338 q 507 324 486 324 l 563 324 q 592 331 581 324 q 611 350 604 339 q 621 374 618 361 q 624 397 624 388 l 624 464 z "},"Ａ":{"ha":1067,"x_min":204,"x_max":861,"o":"m 661 144 l 407 144 l 372 0 l 204 0 l 447 946 l 628 946 l 861 0 l 694 0 l 661 144 m 440 285 l 629 285 l 542 671 l 532 671 l 440 285 z "},"Ｂ":{"ha":1067,"x_min":206,"x_max":861,"o":"m 849 638 q 831 549 849 592 q 782 474 814 506 l 783 474 q 843 399 825 443 q 861 308 861 356 l 861 250 q 844 144 861 192 q 798 65 828 97 q 727 17 768 33 q 636 0 686 0 l 206 0 l 206 946 l 624 946 q 715 929 674 946 q 787 882 757 913 q 833 808 817 851 q 849 714 849 765 l 849 638 m 369 553 l 593 553 q 629 561 613 553 q 658 583 646 569 q 678 616 671 597 q 686 656 686 635 l 686 669 q 678 710 686 692 q 658 742 671 728 q 629 765 646 757 q 593 774 613 774 l 369 774 l 369 553 m 697 289 q 690 328 697 310 q 671 361 683 347 q 641 383 658 375 q 604 392 624 392 l 369 392 l 369 175 l 604 175 q 641 183 624 175 q 671 206 658 192 q 690 238 683 219 q 697 279 697 257 l 697 289 z "},"Ｃ":{"ha":1067,"x_min":206,"x_max":860,"o":"m 597 164 q 656 188 638 164 q 685 247 675 213 l 860 247 q 833 151 854 196 q 778 72 813 106 q 699 19 744 39 q 599 0 653 0 l 481 0 q 374 22 424 0 q 286 81 324 43 q 227 168 249 118 q 206 275 206 218 l 206 669 q 227 777 206 726 q 286 865 249 828 q 374 924 324 903 q 481 946 424 946 l 599 946 q 699 926 653 946 q 778 873 744 907 q 833 793 813 839 q 860 694 854 747 l 686 694 q 658 756 678 731 q 597 781 639 781 l 481 781 q 403 746 432 781 q 375 661 375 711 l 375 285 q 403 199 375 235 q 481 164 432 164 l 597 164 z "},"Ｄ":{"ha":1067,"x_min":206,"x_max":861,"o":"m 206 946 l 636 946 q 724 926 683 946 q 795 872 765 907 q 843 792 825 838 q 861 696 861 747 l 861 250 q 843 153 861 197 q 795 74 825 108 q 724 19 765 39 q 636 0 683 0 l 206 0 l 206 946 m 594 175 q 631 183 614 175 q 662 206 649 192 q 682 238 675 219 q 689 279 689 257 l 689 668 q 682 708 689 689 q 662 741 675 726 q 631 764 649 756 q 594 772 614 772 l 379 772 l 379 175 l 594 175 z "},"Ｅ":{"ha":1067,"x_min":208,"x_max":858,"o":"m 386 160 l 858 160 l 858 0 l 208 0 l 208 946 l 858 946 l 858 786 l 386 786 l 386 553 l 858 553 l 858 394 l 386 394 l 386 160 z "},"Ｆ":{"ha":1067,"x_min":208,"x_max":858,"o":"m 368 0 l 208 0 l 208 946 l 858 946 l 858 786 l 364 786 l 364 553 l 858 553 l 858 394 l 368 394 l 368 0 z "},"Ｇ":{"ha":1067,"x_min":206,"x_max":861,"o":"m 603 164 q 668 188 643 164 q 703 247 693 213 l 703 404 l 544 404 l 544 553 l 861 553 l 861 0 l 703 0 l 703 31 q 641 8 674 15 q 575 0 608 0 l 481 0 q 374 22 424 0 q 286 81 324 43 q 227 168 249 118 q 206 275 206 218 l 206 669 q 227 777 206 726 q 286 865 249 828 q 374 924 324 903 q 481 946 424 946 l 599 946 q 699 926 653 946 q 778 873 744 907 q 833 793 813 839 q 860 694 854 747 l 689 694 q 660 756 681 731 q 597 781 639 781 l 481 781 q 437 772 457 781 q 403 746 417 763 q 381 708 389 729 q 374 661 374 686 l 374 285 q 381 238 374 260 q 403 200 389 217 q 437 174 417 183 q 481 164 457 164 l 603 164 z "},"Ｈ":{"ha":1067,"x_min":206,"x_max":861,"o":"m 861 0 l 686 0 l 686 394 l 382 394 l 382 0 l 206 0 l 206 946 l 382 946 l 382 553 l 686 553 l 686 946 l 861 946 l 861 0 z "},"Ｉ":{"ha":1067,"x_min":446,"x_max":621,"o":"m 446 946 l 621 946 l 621 0 l 446 0 l 446 946 z "},"Ｊ":{"ha":1067,"x_min":232,"x_max":835,"o":"m 835 275 q 813 168 835 218 q 753 81 792 118 q 666 22 715 43 q 560 0 617 0 l 492 0 q 393 19 439 0 q 313 72 347 39 q 258 151 279 106 q 232 247 236 196 l 403 247 q 433 188 413 213 q 493 164 454 164 l 553 164 q 597 174 576 164 q 631 200 617 183 q 654 238 646 217 q 663 285 663 260 l 663 946 l 835 946 l 835 275 z "},"Ｋ":{"ha":1067,"x_min":206,"x_max":861,"o":"m 504 479 l 682 239 q 772 118 728 178 q 861 0 817 58 l 676 0 l 392 374 l 385 374 l 385 0 l 206 0 l 206 946 l 385 946 l 385 572 l 392 572 l 676 946 l 860 946 l 504 479 z "},"Ｌ":{"ha":1067,"x_min":193,"x_max":872,"o":"m 360 160 l 872 160 l 872 0 l 193 0 l 193 946 l 360 946 l 360 160 z "},"Ｍ":{"ha":1067,"x_min":178,"x_max":888,"o":"m 528 263 l 536 263 q 613 603 575 433 q 689 944 651 774 l 888 944 l 888 0 l 751 0 l 751 614 l 742 614 q 674 306 710 460 q 606 0 638 153 l 453 -1 l 325 613 l 315 613 l 315 0 l 178 0 l 178 944 l 376 944 l 528 263 z "},"Ｎ":{"ha":1067,"x_min":206,"x_max":861,"o":"m 375 619 l 375 0 l 206 0 l 206 946 l 375 946 l 696 321 l 696 946 l 861 946 l 861 0 l 696 0 l 375 619 z "},"Ｏ":{"ha":1067,"x_min":204,"x_max":861,"o":"m 586 946 q 693 924 643 946 q 781 865 743 903 q 840 777 818 828 q 861 669 861 726 l 861 275 q 840 168 861 218 q 781 81 818 118 q 693 22 743 43 q 586 0 643 0 l 479 0 q 372 22 422 0 q 285 81 322 43 q 226 168 247 118 q 204 275 204 218 l 204 669 q 226 777 204 726 q 285 865 247 828 q 372 924 322 903 q 479 946 422 946 l 586 946 m 692 661 q 663 746 692 711 q 586 781 635 781 l 481 781 q 403 746 431 781 q 375 661 375 711 l 375 285 q 403 199 375 235 q 481 164 431 164 l 586 164 q 663 199 635 164 q 692 285 692 235 l 692 661 z "},"Ｐ":{"ha":1067,"x_min":203,"x_max":864,"o":"m 608 946 q 708 926 661 946 q 790 871 756 906 q 844 789 825 836 q 864 689 864 742 l 864 647 q 844 548 864 594 q 790 466 825 501 q 708 411 756 431 q 608 392 661 392 l 369 392 l 369 0 l 203 0 l 203 946 l 608 946 m 369 781 l 369 557 l 581 557 q 667 586 640 557 q 694 668 694 615 q 667 749 694 718 q 581 781 639 781 l 369 781 z "},"Ｑ":{"ha":1067,"x_min":158,"x_max":907,"o":"m 542 946 q 649 924 599 946 q 736 865 699 903 q 794 777 774 828 q 815 669 815 726 l 815 275 q 808 210 815 242 q 786 151 800 179 l 907 0 l 744 0 l 703 53 q 628 14 669 28 q 542 0 588 0 l 433 0 q 326 22 376 0 q 240 81 276 43 q 181 168 203 118 q 158 275 158 218 l 158 669 q 181 777 158 726 q 240 865 203 828 q 326 924 276 903 q 433 946 376 946 l 542 946 m 646 329 l 646 661 q 638 708 646 686 q 617 746 631 729 q 583 772 603 763 q 542 781 564 781 l 435 781 q 358 746 386 781 q 329 661 329 711 l 329 285 q 358 199 329 235 q 435 164 386 164 l 542 164 q 597 182 574 164 l 410 417 l 576 417 l 646 329 z "},"Ｒ":{"ha":1067,"x_min":193,"x_max":872,"o":"m 369 382 l 369 0 l 193 0 l 193 946 l 599 946 q 700 926 653 946 q 781 871 747 906 q 835 789 815 836 q 856 689 856 742 l 856 647 q 835 548 856 594 q 781 466 815 501 q 700 411 747 431 q 599 392 653 392 l 551 392 l 872 0 l 671 0 l 369 382 m 369 781 l 369 557 l 571 557 q 658 586 631 557 q 686 668 686 615 q 658 749 686 718 q 571 781 631 781 l 369 781 z "},"Ｓ":{"ha":1067,"x_min":172,"x_max":893,"o":"m 619 586 q 728 564 678 586 q 816 502 779 542 q 873 408 853 463 q 893 288 893 353 q 874 174 893 226 q 821 83 856 121 q 739 22 786 44 q 633 0 692 0 l 203 0 l 203 175 l 583 175 q 637 182 611 175 q 681 203 663 189 q 710 238 699 217 q 721 288 721 258 q 685 372 721 342 q 597 403 650 403 l 485 403 q 356 418 414 403 q 257 467 297 433 q 194 553 217 500 q 172 679 172 606 q 190 779 172 731 q 240 865 208 828 q 318 924 272 901 q 419 946 364 946 l 810 946 l 810 761 l 492 761 q 440 758 464 761 q 399 745 417 754 q 371 718 381 736 q 361 669 361 700 q 385 610 361 635 q 449 586 408 586 l 619 586 z "},"Ｔ":{"ha":1067,"x_min":206,"x_max":861,"o":"m 447 771 l 206 771 l 206 946 l 861 946 l 861 771 l 617 771 l 617 0 l 447 0 l 447 771 z "},"Ｕ":{"ha":1067,"x_min":204,"x_max":861,"o":"m 861 275 q 840 168 861 218 q 782 81 819 118 q 694 22 744 43 q 588 0 644 0 l 481 0 q 374 22 424 0 q 285 81 324 43 q 226 168 247 118 q 204 275 204 218 l 204 946 l 375 946 l 375 285 q 384 238 375 260 q 409 200 393 217 q 447 174 425 183 q 492 164 468 164 l 575 164 q 620 174 599 164 q 657 200 642 183 q 682 238 672 217 q 692 285 692 260 l 692 946 l 861 946 l 861 275 z "},"Ｖ":{"ha":1067,"x_min":206,"x_max":860,"o":"m 532 325 l 542 325 q 615 633 576 481 q 692 946 653 786 l 860 946 l 628 0 l 447 0 l 206 946 l 375 946 l 532 325 z "},"Ｗ":{"ha":1067,"x_min":-37,"x_max":1104,"o":"m 775 325 l 785 325 q 859 634 821 482 q 936 946 897 786 l 1104 946 l 871 0 l 690 0 l 535 608 l 385 0 l 203 0 l -37 946 l 132 946 l 289 325 l 297 325 l 335 476 q 392 710 364 594 q 449 946 419 826 l 619 946 l 775 325 z "},"Ｘ":{"ha":1067,"x_min":204,"x_max":861,"o":"m 636 479 l 861 0 l 682 0 l 539 349 l 531 349 l 383 0 l 204 0 l 422 479 q 313 713 369 594 q 204 946 257 831 l 383 946 l 531 644 l 539 644 q 574 718 556 681 q 610 794 592 756 l 682 946 l 861 946 l 636 479 z "},"Ｙ":{"ha":1067,"x_min":204,"x_max":861,"o":"m 444 431 l 204 946 l 385 946 l 531 644 l 539 644 q 574 718 556 681 q 610 794 592 756 l 682 946 l 861 946 l 614 429 l 614 0 l 444 0 l 444 431 z "},"Ｚ":{"ha":1067,"x_min":206,"x_max":860,"o":"m 676 786 l 206 786 l 206 946 l 860 946 l 860 786 l 389 160 l 860 160 l 860 0 l 206 0 l 206 160 l 676 786 z "},"［":{"ha":1067,"x_min":697,"x_max":1035,"o":"m 697 1019 l 1035 1019 l 1035 860 l 861 860 l 861 160 l 1035 160 l 1035 1 l 697 1 l 697 1019 z "},"￦":{"ha":1067,"x_min":63,"x_max":1004,"o":"m 133 714 l 92 946 l 246 946 l 281 714 l 425 714 l 463 946 l 599 946 l 639 714 l 781 714 l 815 946 l 968 946 l 928 714 l 1004 714 l 1004 563 l 903 563 l 807 0 l 625 0 l 531 543 l 442 0 l 261 0 l 161 563 l 63 563 l 63 714 l 133 714 m 719 292 l 758 563 l 664 563 l 711 292 l 719 292 m 356 292 l 399 563 l 304 563 l 347 292 l 356 292 z "},"］":{"ha":1067,"x_min":31,"x_max":368,"o":"m 368 1 l 31 1 l 31 160 l 204 160 l 204 860 l 31 860 l 31 1019 l 368 1019 l 368 1 z "},"＾":{"ha":1067,"x_min":286,"x_max":781,"o":"m 440 664 l 286 664 l 444 969 l 617 969 l 781 664 l 625 664 l 535 853 l 440 664 z "},"＿":{"ha":1067,"x_min":288,"x_max":778,"o":"m 778 115 l 778 -22 l 288 -22 l 288 115 l 778 115 z "},"｀":{"ha":1067,"x_min":447,"x_max":618,"o":"m 485 808 l 447 1046 l 596 1046 l 618 808 l 485 808 z "},"ａ":{"ha":1067,"x_min":240,"x_max":825,"o":"m 247 483 q 266 568 250 528 q 313 639 282 608 q 389 688 343 669 q 494 707 435 707 l 578 707 q 687 686 640 707 q 764 631 733 665 q 810 553 794 597 q 825 465 825 510 l 825 0 l 431 0 q 349 17 385 0 q 289 63 314 35 q 252 131 264 92 q 240 214 240 169 q 253 294 240 257 q 290 359 265 332 q 349 402 314 386 q 428 418 383 418 l 665 418 l 665 432 q 662 478 665 457 q 647 515 658 500 q 613 540 635 531 q 553 549 590 549 l 519 549 q 439 533 463 549 q 407 483 415 517 l 247 483 m 389 214 q 404 160 389 178 q 436 143 419 143 l 665 143 l 665 285 l 436 285 q 404 267 419 285 q 389 214 389 249 z "},"ｂ":{"ha":1067,"x_min":244,"x_max":822,"o":"m 561 707 q 669 688 621 707 q 752 636 718 669 q 804 556 786 603 q 822 449 822 508 l 822 258 q 804 152 822 200 q 752 70 786 104 q 669 18 718 36 q 561 0 621 0 l 504 0 q 396 18 444 0 q 314 70 347 36 q 263 152 281 104 q 244 258 244 200 l 244 449 l 244 460 l 244 946 l 408 946 l 408 689 q 517 707 458 707 l 561 707 m 504 547 q 435 519 461 547 q 408 449 408 492 l 408 264 q 434 189 408 218 q 504 160 460 160 l 561 160 q 633 189 606 160 q 661 264 661 218 l 661 444 q 633 519 661 490 q 561 547 606 547 l 504 547 z "},"ｃ":{"ha":1067,"x_min":247,"x_max":819,"o":"m 565 160 q 622 176 599 160 q 653 219 646 192 l 818 219 q 740 60 806 119 q 565 0 675 0 l 508 0 q 401 18 449 0 q 319 70 353 36 q 266 152 285 104 q 247 258 247 200 l 247 449 q 266 556 247 508 q 319 636 285 603 q 401 688 353 669 q 508 707 449 707 l 565 707 q 743 647 678 707 q 819 483 808 588 l 654 483 q 624 531 647 514 q 565 547 601 547 l 508 547 q 435 519 464 547 q 407 444 407 490 l 407 264 q 435 189 407 218 q 508 160 464 160 l 565 160 z "},"ｄ":{"ha":1067,"x_min":244,"x_max":822,"o":"m 504 0 q 396 18 444 0 q 314 70 347 36 q 263 152 281 104 q 244 258 244 200 l 244 449 q 263 556 244 508 q 314 636 281 603 q 396 688 347 669 q 504 707 444 707 l 561 707 q 665 690 619 707 l 665 946 l 822 946 l 822 0 l 504 0 m 665 160 l 665 444 q 635 519 665 490 q 561 547 606 547 l 504 547 q 428 519 460 547 q 397 444 397 490 l 397 264 q 428 189 397 218 q 504 160 460 160 l 665 160 z "},"ｅ":{"ha":1067,"x_min":226,"x_max":840,"o":"m 226 456 q 246 552 226 507 q 298 632 265 597 q 372 687 331 667 q 454 707 413 707 l 613 707 q 709 684 667 707 q 780 626 751 661 q 824 547 808 590 q 840 461 840 503 l 840 282 l 390 282 l 390 244 q 419 174 390 194 q 492 153 447 153 l 815 153 l 815 -3 l 456 -3 q 367 16 408 -3 q 294 67 325 35 q 245 143 264 99 q 226 240 226 188 l 226 456 m 392 414 l 679 414 l 679 421 q 651 510 679 475 q 576 546 624 546 l 490 546 q 450 535 468 546 q 419 508 432 525 q 399 469 407 492 q 392 421 392 446 l 392 414 z "},"ｆ":{"ha":1067,"x_min":319,"x_max":747,"o":"m 747 797 l 697 797 q 619 768 649 797 q 590 693 590 739 l 590 663 l 747 663 l 747 503 l 590 503 l 590 -1 l 444 -1 l 444 503 l 319 503 l 319 663 l 444 663 l 444 686 q 461 794 444 746 q 510 875 478 842 q 590 927 543 908 q 697 946 636 946 l 747 946 l 747 797 z "},"ｇ":{"ha":1067,"x_min":242,"x_max":825,"o":"m 825 707 l 825 -1 q 808 -102 825 -58 q 762 -177 792 -146 q 690 -224 732 -208 q 599 -240 649 -240 l 281 -240 l 281 -86 l 574 -86 q 644 -60 615 -86 q 674 14 674 -33 l 674 22 l 467 22 q 378 38 419 22 q 307 86 338 54 q 259 165 276 118 q 242 272 242 211 l 242 457 q 259 565 242 518 q 307 643 276 611 q 378 691 338 675 q 467 707 419 707 l 825 707 m 672 553 l 501 553 q 462 544 481 553 q 429 519 443 535 q 408 483 415 503 q 400 440 400 464 l 400 290 q 408 246 400 267 q 429 210 415 225 q 462 185 443 194 q 501 176 481 176 l 672 176 l 672 553 z "},"ｈ":{"ha":1067,"x_min":243,"x_max":822,"o":"m 515 549 q 456 540 479 549 q 421 515 433 531 q 403 478 408 500 q 399 432 399 457 l 399 0 l 243 0 l 243 946 l 399 946 l 399 692 q 442 703 419 699 q 492 707 465 707 l 575 707 q 683 686 636 707 q 760 631 729 665 q 807 553 792 597 q 822 465 822 510 l 822 0 l 665 0 l 665 432 q 661 478 665 457 q 644 515 657 500 q 608 540 631 531 q 550 549 586 549 l 515 549 z "},"ｉ":{"ha":1067,"x_min":451,"x_max":614,"o":"m 614 0 l 451 0 l 451 707 l 614 707 l 614 0 m 614 783 l 451 783 l 451 946 l 614 946 l 614 783 z "},"ｊ":{"ha":1067,"x_min":388,"x_max":678,"o":"m 675 783 l 522 783 l 522 946 l 675 946 l 675 783 m 388 -92 l 417 -92 q 491 -63 464 -92 q 518 11 518 -35 l 518 707 l 678 707 l 678 17 q 663 -90 678 -42 q 616 -171 647 -137 q 535 -223 585 -204 q 417 -242 486 -242 l 388 -242 l 388 -92 z "},"ｋ":{"ha":1067,"x_min":240,"x_max":825,"o":"m 825 0 l 642 0 l 403 269 l 403 0 l 240 0 l 240 946 l 403 946 l 403 483 l 629 707 l 821 707 l 481 381 l 825 0 z "},"ｌ":{"ha":1067,"x_min":451,"x_max":614,"o":"m 451 946 l 614 946 l 614 0 l 451 0 l 451 946 z "},"ｍ":{"ha":1067,"x_min":26,"x_max":1039,"o":"m 729 549 q 669 540 692 549 q 636 515 647 531 q 621 479 625 500 q 617 433 617 458 l 617 0 l 453 0 l 453 432 q 449 478 453 457 q 433 515 446 500 q 399 540 421 531 q 340 549 376 549 l 307 549 q 247 540 269 549 q 212 515 225 531 q 194 478 199 500 q 190 432 190 457 l 190 0 l 26 0 l 26 707 l 190 707 l 190 686 q 306 707 244 707 l 365 707 q 465 690 421 707 q 539 644 508 674 q 615 690 571 674 q 717 707 660 707 l 788 707 q 897 686 850 707 q 975 631 943 665 q 1023 553 1007 597 q 1039 465 1039 510 l 1039 0 l 876 0 l 876 432 q 873 478 876 457 q 857 515 869 500 q 822 540 844 531 q 764 549 800 549 l 729 549 z "},"ｎ":{"ha":1067,"x_min":238,"x_max":828,"o":"m 518 549 q 458 540 481 549 q 423 515 436 531 q 406 478 410 500 q 401 432 401 457 l 401 0 l 238 0 l 238 707 l 401 707 l 401 689 q 504 707 449 707 l 576 707 q 685 686 638 707 q 764 631 732 665 q 812 553 796 597 q 828 465 828 510 l 828 0 l 664 0 l 664 432 q 660 478 664 457 q 644 515 657 500 q 610 540 632 531 q 551 549 588 549 l 518 549 z "},"ｏ":{"ha":1067,"x_min":244,"x_max":822,"o":"m 561 707 q 671 688 622 707 q 753 636 719 669 q 804 556 786 603 q 822 449 822 508 l 822 258 q 804 152 822 200 q 753 70 786 104 q 671 18 719 36 q 561 0 622 0 l 504 0 q 396 18 444 0 q 314 70 347 36 q 263 152 281 104 q 244 258 244 200 l 244 449 q 263 556 244 508 q 314 636 281 603 q 396 688 347 669 q 504 707 444 707 l 561 707 m 504 547 q 432 519 461 547 q 403 444 403 490 l 403 264 q 432 189 403 218 q 504 160 461 160 l 561 160 q 635 189 606 160 q 664 264 664 218 l 664 444 q 635 519 664 490 q 561 547 606 547 l 504 547 z "},"ｐ":{"ha":1067,"x_min":244,"x_max":822,"o":"m 561 707 q 669 688 621 707 q 752 636 718 669 q 804 556 786 603 q 822 449 822 508 l 822 258 q 804 152 822 200 q 752 70 786 104 q 669 18 718 36 q 561 0 621 0 l 517 0 q 404 19 456 0 l 404 -242 l 244 -242 l 244 707 l 561 707 m 404 547 l 404 264 q 432 189 404 218 q 504 160 460 160 l 561 160 q 635 189 606 160 q 664 264 664 218 l 664 444 q 635 519 664 490 q 561 547 606 547 l 404 547 z "},"ｑ":{"ha":1067,"x_min":244,"x_max":822,"o":"m 504 0 q 396 18 444 0 q 314 70 347 36 q 263 152 281 104 q 244 258 244 200 l 244 449 q 263 556 244 508 q 314 636 281 603 q 396 688 347 669 q 504 707 444 707 l 822 707 l 822 258 l 822 247 l 822 -242 l 661 -242 l 661 19 q 550 0 610 0 l 504 0 m 561 160 q 633 189 606 160 q 661 264 661 218 l 661 547 l 504 547 q 431 519 460 547 q 403 444 403 490 l 403 264 q 431 189 403 218 q 504 160 460 160 l 561 160 z "},"ｒ":{"ha":1067,"x_min":289,"x_max":776,"o":"m 461 563 q 513 619 481 594 q 585 660 546 643 q 669 685 625 676 q 758 693 714 693 l 776 693 l 776 521 l 758 521 q 656 501 708 521 q 559 448 603 481 q 488 375 515 415 q 461 294 461 335 l 461 0 l 289 0 l 289 713 l 461 713 l 461 563 z "},"ｓ":{"ha":1067,"x_min":247,"x_max":818,"o":"m 750 569 l 475 569 q 444 563 457 569 q 424 546 432 557 q 412 522 415 535 q 408 496 408 508 q 425 448 408 469 q 468 426 442 426 l 622 426 q 708 410 671 426 q 769 364 744 393 q 806 294 793 335 q 818 208 818 254 l 818 204 q 803 121 818 158 q 762 57 788 83 q 700 15 736 31 q 622 0 664 0 l 286 0 l 286 138 l 575 138 q 635 156 608 138 q 664 210 661 174 l 664 208 q 656 243 664 229 q 635 266 647 257 q 608 279 624 275 q 575 283 592 283 l 451 283 q 349 303 389 283 q 287 353 310 322 q 256 422 264 383 q 247 501 247 461 q 260 582 247 543 q 297 651 274 621 q 357 697 321 681 q 440 714 393 714 l 750 714 l 750 569 z "},"ｔ":{"ha":1067,"x_min":319,"x_max":746,"o":"m 319 707 l 451 707 l 451 946 l 614 946 l 614 707 l 746 707 l 746 547 l 614 547 l 614 0 l 451 0 l 451 547 l 319 547 l 319 707 z "},"ｕ":{"ha":1067,"x_min":242,"x_max":825,"o":"m 547 158 q 603 167 582 158 q 639 189 625 175 q 658 222 653 203 q 664 264 663 242 l 664 707 l 825 707 l 825 0 l 664 0 l 664 18 q 615 4 640 8 q 560 0 589 0 l 489 0 q 380 21 426 0 q 303 76 333 42 q 257 153 272 110 q 242 242 242 197 l 242 707 l 403 707 l 403 275 q 406 229 403 250 q 423 192 410 208 q 458 167 436 176 q 517 158 481 158 l 547 158 z "},"ｖ":{"ha":1067,"x_min":244,"x_max":822,"o":"m 614 0 l 458 0 l 244 707 l 399 707 l 535 258 l 667 707 l 822 707 l 614 0 z "},"ｗ":{"ha":1067,"x_min":33,"x_max":1033,"o":"m 826 0 l 669 0 l 535 446 l 403 0 l 247 0 l 33 707 l 188 707 l 324 258 l 456 707 l 611 707 l 747 261 l 879 707 l 1033 707 l 826 0 z "},"ｘ":{"ha":1067,"x_min":243,"x_max":822,"o":"m 625 353 q 724 176 674 265 q 821 0 774 88 l 654 0 l 532 240 l 410 0 l 243 0 l 431 350 l 243 707 l 410 707 l 532 460 l 654 707 l 822 707 l 625 353 z "},"ｙ":{"ha":1067,"x_min":244,"x_max":822,"o":"m 542 -242 l 388 -242 l 458 3 l 244 707 l 399 707 l 535 256 l 668 707 l 822 707 l 542 -242 z "},"ｚ":{"ha":1067,"x_min":275,"x_max":792,"o":"m 792 556 l 468 160 l 792 160 l 792 0 l 275 0 l 275 151 l 597 547 l 275 547 l 275 707 l 792 707 l 792 556 z "},"｛":{"ha":1067,"x_min":342,"x_max":724,"o":"m 431 422 l 342 535 l 431 668 l 408 875 q 429 974 400 938 q 513 1008 458 1011 l 724 1008 l 724 849 l 621 849 q 583 843 597 851 q 572 815 569 835 l 594 668 l 506 533 l 594 424 l 572 271 q 568 240 569 256 q 569 212 567 225 q 578 190 571 199 q 606 179 586 181 l 724 165 l 724 1 l 503 19 q 447 39 468 24 q 417 79 426 54 q 407 138 408 104 q 408 213 406 172 l 431 422 z "},"｜":{"ha":1067,"x_min":451,"x_max":614,"o":"m 451 946 l 614 946 l 614 0 l 451 0 l 451 946 z "},"｝":{"ha":1067,"x_min":342,"x_max":724,"o":"m 657 213 q 659 138 660 172 q 649 79 658 104 q 618 39 639 54 q 563 19 597 24 l 342 1 l 342 165 l 460 179 q 486 190 478 181 q 497 212 494 199 q 497 240 499 225 q 493 271 496 256 l 471 424 l 560 533 l 471 668 l 493 815 q 482 843 496 835 q 444 849 468 851 l 342 849 l 342 1008 l 553 1008 q 637 974 608 1011 q 657 875 665 938 l 635 668 l 724 535 l 635 422 l 657 213 z "},"￣":{"ha":1067,"x_min":288,"x_max":778,"o":"m 778 904 l 778 767 l 288 767 l 288 904 l 778 904 z "},"ㄱ":{"ha":1067,"x_min":153,"x_max":875,"o":"m 807 135 l 646 135 l 699 686 l 153 686 l 153 835 l 875 835 l 875 686 l 807 135 z "},"ㄲ":{"ha":1067,"x_min":129,"x_max":943,"o":"m 440 135 l 279 135 l 332 686 l 129 686 l 129 835 l 508 835 l 508 686 l 440 135 m 875 135 l 714 135 l 767 686 l 544 686 l 544 835 l 943 835 l 943 686 l 875 135 z "},"ㄳ":{"ha":1067,"x_min":108,"x_max":964,"o":"m 964 135 l 814 135 l 722 704 l 614 135 l 313 135 l 313 685 l 108 685 l 108 833 l 476 833 l 476 201 l 603 833 l 842 833 l 964 135 z "},"ㄴ":{"ha":1067,"x_min":179,"x_max":913,"o":"m 356 286 l 913 286 l 913 135 l 179 135 l 179 833 l 356 833 l 356 286 z "},"ㄵ":{"ha":1067,"x_min":129,"x_max":974,"o":"m 796 685 l 521 685 l 521 833 l 974 833 l 974 685 l 808 474 l 972 319 l 974 111 l 719 358 l 535 122 l 535 343 l 796 685 m 306 286 l 513 286 l 513 135 l 129 135 l 129 833 l 306 833 l 306 286 z "},"ㄶ":{"ha":1067,"x_min":129,"x_max":942,"o":"m 864 611 q 903 521 890 572 q 917 403 917 469 q 901 276 917 331 q 858 184 886 221 q 792 128 831 147 q 708 108 754 108 q 557 184 614 108 q 500 403 500 260 q 551 611 500 532 l 469 611 l 469 753 l 643 753 l 643 864 l 775 864 l 775 753 l 942 753 l 942 611 l 864 611 m 303 286 l 501 286 l 501 135 l 129 135 l 129 833 l 303 833 l 303 286 m 636 389 q 641 335 636 360 q 655 291 646 310 q 678 262 664 272 q 708 251 692 251 q 761 291 742 251 q 781 389 781 331 l 781 417 q 776 470 781 444 q 761 514 771 496 q 738 543 751 532 q 708 554 725 554 q 678 543 692 554 q 655 514 664 532 q 641 470 646 496 q 636 417 636 444 l 636 389 z "},"ㄷ":{"ha":1067,"x_min":175,"x_max":919,"o":"m 919 279 l 919 135 l 175 135 l 175 833 l 897 833 l 897 689 l 347 689 l 347 279 l 919 279 z "},"ㄸ":{"ha":1067,"x_min":153,"x_max":917,"o":"m 524 279 l 524 135 l 153 135 l 153 833 l 514 833 l 514 689 l 325 689 l 325 279 l 524 279 m 917 279 l 917 135 l 558 135 l 558 833 l 901 833 l 901 689 l 731 689 l 731 279 l 917 279 z "},"ㄹ":{"ha":1067,"x_min":175,"x_max":919,"o":"m 897 833 l 897 414 l 340 414 l 340 278 l 919 278 l 919 135 l 175 135 l 175 551 l 732 551 l 732 690 l 175 690 l 175 833 l 897 833 z "},"ㄺ":{"ha":1067,"x_min":131,"x_max":929,"o":"m 929 136 l 764 136 l 764 685 l 560 685 l 560 832 l 929 832 l 929 136 m 521 833 l 521 414 l 296 414 l 296 278 l 525 278 l 525 135 l 131 135 l 131 551 l 376 551 l 376 690 l 131 690 l 131 833 l 521 833 z "},"ㄻ":{"ha":1067,"x_min":131,"x_max":921,"o":"m 510 833 l 510 414 l 296 414 l 296 278 l 514 278 l 514 135 l 131 135 l 131 551 l 365 551 l 365 690 l 131 690 l 131 833 l 510 833 m 921 833 l 921 133 l 549 133 l 549 833 l 921 833 m 778 683 l 692 683 l 692 283 l 778 283 l 778 683 z "},"ㄼ":{"ha":1067,"x_min":131,"x_max":921,"o":"m 921 133 l 550 133 l 550 832 l 690 832 l 690 640 l 781 640 l 781 832 l 921 832 l 921 133 m 510 833 l 510 414 l 296 414 l 296 278 l 514 278 l 514 135 l 131 135 l 131 551 l 365 551 l 365 690 l 131 690 l 131 833 l 510 833 m 781 285 l 781 481 l 690 481 l 690 285 l 781 285 z "},"ㄽ":{"ha":1067,"x_min":131,"x_max":926,"o":"m 926 135 l 778 135 l 731 681 l 678 135 l 522 135 l 618 832 l 849 832 l 926 135 m 510 833 l 510 414 l 296 414 l 296 278 l 514 278 l 514 135 l 131 135 l 131 551 l 365 551 l 365 690 l 131 690 l 131 833 l 510 833 z "},"ㄾ":{"ha":1067,"x_min":131,"x_max":921,"o":"m 510 833 l 510 414 l 296 414 l 296 278 l 514 278 l 514 135 l 131 135 l 131 551 l 365 551 l 365 690 l 131 690 l 131 833 l 510 833 m 921 265 l 921 133 l 549 133 l 549 833 l 910 833 l 910 701 l 711 701 l 711 547 l 897 547 l 897 417 l 711 417 l 711 265 l 921 265 z "},"ㄿ":{"ha":1067,"x_min":131,"x_max":929,"o":"m 540 135 l 540 275 l 583 275 l 583 692 l 540 692 l 540 833 l 929 833 l 929 692 l 882 692 l 882 275 l 929 275 l 929 135 l 540 135 m 510 833 l 510 414 l 296 414 l 296 278 l 514 278 l 514 135 l 131 135 l 131 551 l 365 551 l 365 690 l 131 690 l 131 833 l 510 833 m 704 275 l 761 275 l 761 692 l 704 692 l 704 275 z "},"ㅀ":{"ha":1067,"x_min":131,"x_max":917,"o":"m 844 613 q 876 522 865 574 q 888 403 888 469 q 841 184 888 260 q 708 108 794 108 q 575 184 621 108 q 529 403 529 260 q 571 613 529 535 l 513 613 l 513 753 l 642 753 l 642 865 l 776 865 l 776 753 l 917 753 l 917 613 l 844 613 m 488 833 l 488 414 l 285 414 l 285 278 l 503 278 l 503 135 l 131 135 l 131 551 l 343 551 l 343 690 l 131 690 l 131 833 l 488 833 m 660 372 q 671 280 660 318 q 708 242 682 242 q 746 280 735 242 q 757 372 757 318 l 757 432 q 746 524 757 486 q 708 563 735 563 q 671 524 682 563 q 660 432 660 486 l 660 372 z "},"ㅁ":{"ha":1067,"x_min":175,"x_max":897,"o":"m 897 832 l 897 135 l 175 135 l 175 832 l 897 832 m 732 690 l 340 690 l 340 276 l 732 276 l 732 690 z "},"ㅂ":{"ha":1067,"x_min":175,"x_max":897,"o":"m 897 135 l 175 135 l 175 833 l 347 833 l 347 625 l 722 625 l 722 833 l 897 833 l 897 135 m 722 279 l 722 481 l 347 481 l 347 279 l 722 279 z "},"ㅃ":{"ha":1067,"x_min":158,"x_max":931,"o":"m 525 135 l 158 135 l 158 833 l 299 833 l 299 610 l 385 610 l 385 833 l 525 833 l 525 135 m 931 135 l 563 135 l 563 833 l 703 833 l 703 610 l 789 610 l 789 833 l 931 833 l 931 135 m 385 261 l 385 496 l 299 496 l 299 261 l 385 261 m 789 261 l 789 496 l 703 496 l 703 261 l 789 261 z "},"ㅄ":{"ha":1067,"x_min":158,"x_max":926,"o":"m 926 135 l 778 135 l 731 681 l 678 135 l 158 135 l 158 833 l 299 833 l 299 610 l 385 610 l 385 833 l 525 833 l 525 158 l 618 832 l 849 832 l 926 135 m 385 261 l 385 496 l 299 496 l 299 261 l 385 261 z "},"ㅅ":{"ha":1067,"x_min":232,"x_max":833,"o":"m 833 135 l 665 135 l 542 714 l 400 135 l 232 135 l 418 833 l 667 833 l 833 135 z "},"ㅆ":{"ha":1067,"x_min":111,"x_max":954,"o":"m 954 133 l 788 133 l 733 714 l 628 133 l 438 133 l 350 714 l 278 133 l 111 133 l 225 833 l 458 833 l 536 353 l 625 833 l 858 833 l 954 133 z "},"ㅇ":{"ha":1067,"x_min":226,"x_max":836,"o":"m 226 619 q 251 714 226 669 q 317 792 275 758 q 413 846 358 826 q 531 865 468 865 q 649 846 594 865 q 746 792 704 826 q 812 714 788 758 q 836 619 836 669 l 836 342 q 812 248 836 292 q 746 173 788 204 q 649 123 704 142 q 531 104 594 104 q 413 123 468 104 q 317 173 358 142 q 251 248 275 204 q 226 342 226 292 l 226 619 m 403 342 q 440 267 403 294 q 531 239 478 239 q 622 267 585 239 q 658 342 658 294 l 658 619 q 622 694 658 667 q 531 722 585 722 q 440 694 478 722 q 403 619 403 667 l 403 342 z "},"ㅈ":{"ha":1067,"x_min":131,"x_max":943,"o":"m 764 697 l 153 697 l 153 846 l 943 846 l 943 640 l 686 472 l 943 303 l 942 106 l 550 383 l 131 108 l 131 288 l 764 697 z "},"ㅉ":{"ha":1067,"x_min":114,"x_max":972,"o":"m 399 697 l 115 697 l 115 846 l 972 846 l 972 697 l 804 476 l 972 319 l 972 111 l 717 361 l 535 122 l 303 344 l 114 111 l 114 331 l 399 697 m 796 697 l 588 697 l 401 465 l 535 343 l 796 697 z "},"ㅊ":{"ha":1067,"x_min":129,"x_max":943,"o":"m 633 822 l 943 822 l 943 614 l 683 453 l 942 285 l 942 110 l 553 372 l 129 110 l 129 281 l 756 675 l 139 675 l 139 822 l 453 822 l 453 975 l 633 975 l 633 822 z "},"ㅋ":{"ha":1067,"x_min":142,"x_max":942,"o":"m 874 124 l 713 124 l 736 379 l 142 379 l 142 524 l 749 524 l 765 697 l 158 697 l 158 846 l 942 846 l 942 697 l 874 124 z "},"ㅌ":{"ha":1067,"x_min":175,"x_max":919,"o":"m 919 279 l 919 135 l 175 135 l 175 833 l 897 833 l 897 689 l 347 689 l 347 561 l 868 561 l 868 413 l 347 413 l 347 279 l 919 279 z "},"ㅍ":{"ha":1067,"x_min":131,"x_max":942,"o":"m 276 275 l 276 692 l 131 692 l 131 832 l 942 832 l 942 692 l 808 692 l 808 275 l 942 275 l 942 133 l 131 133 l 131 275 l 276 275 m 453 275 l 632 275 l 632 692 l 453 692 l 453 275 z "},"ㅎ":{"ha":1067,"x_min":104,"x_max":947,"o":"m 636 753 l 947 753 l 947 597 l 796 597 q 849 522 829 564 q 868 426 868 479 l 868 381 q 844 259 868 314 q 775 165 819 204 q 669 106 731 126 q 532 85 607 85 q 394 106 457 85 q 288 165 332 126 q 220 259 244 204 q 196 381 196 314 l 196 425 q 215 522 196 479 q 268 597 233 564 l 104 597 l 104 753 l 429 753 l 429 899 l 636 899 l 636 753 m 361 375 q 408 263 361 306 q 531 221 454 221 q 652 263 607 221 q 697 375 697 306 l 697 426 q 684 491 697 463 q 649 539 671 519 q 595 569 626 558 q 531 581 564 581 q 467 570 497 581 q 413 540 436 560 q 375 492 389 521 q 361 426 361 464 l 361 375 z "},"ㅏ":{"ha":1067,"x_min":393,"x_max":674,"o":"m 560 629 l 674 629 l 674 478 l 560 478 l 560 -32 l 393 -32 l 393 1019 l 560 1019 l 560 629 z "},"ㅐ":{"ha":1067,"x_min":328,"x_max":739,"o":"m 328 -32 l 328 1019 l 485 1019 l 485 653 l 582 653 l 582 1019 l 739 1019 l 739 -32 l 582 -32 l 582 503 l 485 503 l 485 -32 l 328 -32 z "},"ㅑ":{"ha":1067,"x_min":393,"x_max":674,"o":"m 674 286 l 560 286 l 560 -32 l 393 -32 l 393 1019 l 560 1019 l 560 792 l 674 792 l 674 642 l 560 642 l 560 436 l 674 436 l 674 286 z "},"ㅒ":{"ha":1067,"x_min":328,"x_max":739,"o":"m 328 -32 l 328 1019 l 485 1019 l 485 772 l 582 772 l 582 1019 l 739 1019 l 739 -32 l 582 -32 l 582 269 l 485 269 l 485 -32 l 328 -32 m 485 417 l 582 417 l 582 625 l 485 625 l 485 417 z "},"ㅓ":{"ha":1067,"x_min":338,"x_max":729,"o":"m 729 -32 l 571 -32 l 571 475 l 338 475 l 338 629 l 571 629 l 571 1019 l 729 1019 l 729 -32 z "},"ㅔ":{"ha":1067,"x_min":219,"x_max":846,"o":"m 446 -32 l 446 503 l 219 503 l 219 653 l 446 653 l 446 1019 l 597 1019 l 597 -32 l 446 -32 m 693 -32 l 693 1019 l 846 1019 l 846 -32 l 693 -32 z "},"ㅕ":{"ha":1067,"x_min":350,"x_max":717,"o":"m 558 782 l 558 1019 l 717 1019 l 717 -32 l 558 -32 l 558 290 l 350 290 l 350 442 l 558 442 l 558 631 l 350 631 l 350 782 l 558 782 z "},"ㅖ":{"ha":1067,"x_min":222,"x_max":843,"o":"m 463 -32 l 463 271 l 222 271 l 222 422 l 463 422 l 463 585 l 222 585 l 222 736 l 463 736 l 463 1019 l 614 1019 l 614 -32 l 463 -32 m 692 -32 l 692 1019 l 843 1019 l 843 -32 l 692 -32 z "},"ㅗ":{"ha":1067,"x_min":56,"x_max":1011,"o":"m 450 114 l 450 558 l 613 558 l 613 114 l 1011 114 l 1011 -32 l 56 -32 l 56 114 l 450 114 z "},"ㅘ":{"ha":1067,"x_min":33,"x_max":1033,"o":"m 263 442 l 435 442 l 435 115 l 757 115 l 757 1019 l 919 1019 l 919 694 l 1033 694 l 1033 543 l 919 543 l 919 -32 l 33 -32 l 33 115 l 263 115 l 263 442 z "},"ㅙ":{"ha":1067,"x_min":61,"x_max":1006,"o":"m 61 -32 l 61 108 l 258 108 l 258 408 l 410 408 l 410 108 l 654 108 l 654 1019 l 789 1019 l 789 694 l 871 694 l 871 1019 l 1006 1019 l 1006 -32 l 871 -32 l 871 543 l 789 543 l 789 -32 l 61 -32 z "},"ㅚ":{"ha":1067,"x_min":75,"x_max":992,"o":"m 314 442 l 486 442 l 486 115 l 828 115 l 828 1019 l 992 1019 l 992 -32 l 75 -32 l 75 115 l 314 115 l 314 442 z "},"ㅛ":{"ha":1067,"x_min":56,"x_max":1011,"o":"m 272 115 l 272 501 l 439 501 l 439 115 l 628 115 l 628 501 l 794 501 l 794 115 l 1011 115 l 1011 -32 l 56 -32 l 56 115 l 272 115 z "},"ㅜ":{"ha":1067,"x_min":56,"x_max":1011,"o":"m 1011 371 l 1011 222 l 611 222 l 611 -32 l 456 -32 l 456 222 l 56 222 l 56 371 l 1011 371 z "},"ㅝ":{"ha":1067,"x_min":75,"x_max":992,"o":"m 619 115 l 828 115 l 828 261 l 497 261 l 497 -32 l 325 -32 l 325 261 l 75 261 l 75 408 l 828 408 l 828 1019 l 992 1019 l 992 -32 l 619 -32 l 619 115 z "},"ㅞ":{"ha":1067,"x_min":58,"x_max":1008,"o":"m 492 115 l 622 115 l 622 244 l 396 244 l 396 -32 l 240 -32 l 240 244 l 58 244 l 58 393 l 622 393 l 622 1019 l 776 1019 l 776 -32 l 492 -32 l 492 115 m 1008 -32 l 853 -32 l 853 1019 l 1008 1019 l 1008 -32 z "},"ㅟ":{"ha":1067,"x_min":75,"x_max":992,"o":"m 828 272 l 497 272 l 497 -32 l 325 -32 l 325 272 l 75 272 l 75 419 l 828 419 l 828 1019 l 992 1019 l 992 -32 l 828 -32 l 828 272 z "},"ㅠ":{"ha":1067,"x_min":56,"x_max":1011,"o":"m 1011 393 l 1011 244 l 800 244 l 800 -32 l 644 -32 l 644 244 l 422 244 l 422 -32 l 267 -32 l 267 244 l 56 244 l 56 393 l 1011 393 z "},"ㅡ":{"ha":1067,"x_min":56,"x_max":1011,"o":"m 1011 114 l 1011 -32 l 56 -32 l 56 114 l 1011 114 z "},"ㅢ":{"ha":1067,"x_min":75,"x_max":992,"o":"m 835 118 l 835 1019 l 992 1019 l 992 -32 l 75 -32 l 75 118 l 835 118 z "},"ㅣ":{"ha":1067,"x_min":447,"x_max":619,"o":"m 619 -32 l 447 -32 l 447 1019 l 619 1019 l 619 -32 z "},"ㅥ":{"ha":1067,"x_min":153,"x_max":917,"o":"m 329 286 l 522 286 l 522 135 l 153 135 l 153 835 l 329 835 l 329 286 m 735 286 l 917 286 l 917 135 l 558 135 l 558 835 l 735 835 l 735 286 z "},"ㅦ":{"ha":1067,"x_min":153,"x_max":917,"o":"m 329 286 l 522 286 l 522 135 l 153 135 l 153 835 l 329 835 l 329 286 m 917 279 l 917 135 l 558 135 l 558 833 l 901 833 l 901 689 l 731 689 l 731 279 l 917 279 z "},"ㅧ":{"ha":1067,"x_min":153,"x_max":964,"o":"m 964 135 l 814 135 l 722 717 l 614 135 l 153 135 l 153 835 l 329 835 l 329 286 l 493 286 l 603 846 l 842 846 l 964 135 z "},"ㅨ":{"ha":1067,"x_min":153,"x_max":931,"o":"m 931 135 l 497 135 l 603 846 l 842 846 l 931 135 m 329 286 l 486 286 l 486 135 l 153 135 l 153 835 l 329 835 l 329 286 m 664 275 l 765 275 l 722 717 l 664 275 z "},"ㅩ":{"ha":1067,"x_min":114,"x_max":1001,"o":"m 1001 135 l 885 135 l 831 661 l 771 135 l 525 135 l 525 692 l 432 692 l 432 832 l 654 832 l 654 135 l 742 835 l 919 835 l 1001 135 m 404 833 l 404 414 l 246 414 l 246 278 l 408 278 l 408 135 l 114 135 l 114 551 l 271 551 l 271 690 l 114 690 l 114 833 l 404 833 z "},"ㅪ":{"ha":1067,"x_min":131,"x_max":921,"o":"m 921 265 l 921 133 l 549 133 l 549 833 l 910 833 l 910 701 l 711 701 l 711 265 l 921 265 m 510 833 l 510 414 l 296 414 l 296 278 l 514 278 l 514 135 l 131 135 l 131 551 l 365 551 l 365 690 l 131 690 l 131 833 l 510 833 z "},"ㅫ":{"ha":1067,"x_min":114,"x_max":979,"o":"m 685 186 l 742 835 l 919 835 l 979 135 l 863 135 l 831 661 l 797 135 l 417 135 l 417 833 l 525 833 l 525 610 l 567 610 l 567 833 l 685 833 l 685 186 m 393 833 l 393 414 l 246 414 l 246 278 l 397 278 l 397 135 l 114 135 l 114 551 l 260 551 l 260 690 l 114 690 l 114 833 l 393 833 m 567 261 l 567 496 l 525 496 l 525 261 l 567 261 z "},"ㅬ":{"ha":1067,"x_min":131,"x_max":919,"o":"m 919 135 l 508 135 l 615 846 l 842 846 l 919 135 m 499 833 l 499 414 l 296 414 l 296 278 l 503 278 l 503 135 l 131 135 l 131 551 l 354 551 l 354 690 l 131 690 l 131 833 l 499 833 m 675 275 l 758 275 l 722 717 l 675 275 z "},"ㅭ":{"ha":1067,"x_min":131,"x_max":888,"o":"m 488 833 l 488 414 l 285 414 l 285 278 l 503 278 l 503 135 l 131 135 l 131 551 l 343 551 l 343 690 l 131 690 l 131 833 l 488 833 m 660 363 q 671 278 660 313 q 708 243 682 243 q 746 278 735 243 q 757 363 757 313 l 757 414 q 746 498 757 464 q 708 532 735 532 q 671 498 682 532 q 660 414 660 464 l 660 363 m 529 388 q 575 585 529 514 q 708 656 621 656 q 841 585 794 656 q 888 388 888 514 q 841 191 888 260 q 708 122 794 122 q 575 191 621 122 q 529 388 529 260 m 528 692 l 528 832 l 888 832 l 888 692 l 528 692 z "},"ㅮ":{"ha":1067,"x_min":131,"x_max":921,"o":"m 503 833 l 503 133 l 131 133 l 131 833 l 503 833 m 921 133 l 550 133 l 550 832 l 690 832 l 690 640 l 781 640 l 781 832 l 921 832 l 921 133 m 358 683 l 274 683 l 274 283 l 358 283 l 358 683 m 781 285 l 781 481 l 690 481 l 690 285 l 781 285 z "},"ㅯ":{"ha":1067,"x_min":131,"x_max":926,"o":"m 503 833 l 503 133 l 131 133 l 131 833 l 503 833 m 358 683 l 274 683 l 274 283 l 358 283 l 358 683 m 926 135 l 778 135 l 731 681 l 678 135 l 522 135 l 618 832 l 849 832 l 926 135 z "},"ㅰ":{"ha":1067,"x_min":131,"x_max":919,"o":"m 503 833 l 503 135 l 131 135 l 131 833 l 503 833 m 919 135 l 508 135 l 615 832 l 842 832 l 919 135 m 358 683 l 274 683 l 274 283 l 358 283 l 358 683 m 675 275 l 757 275 l 722 703 l 675 275 z "},"ㅱ":{"ha":1067,"x_min":297,"x_max":769,"o":"m 769 853 l 769 432 l 297 432 l 297 853 l 769 853 m 614 725 l 453 725 l 453 561 l 614 561 l 614 725 m 468 203 q 488 156 468 174 q 540 139 508 139 q 593 156 574 139 q 613 203 613 174 l 613 214 q 593 260 613 243 q 540 278 574 278 q 488 260 508 278 q 468 214 468 243 l 468 203 m 335 208 q 391 337 335 292 q 540 382 447 382 q 690 337 633 382 q 746 208 746 292 q 690 80 746 125 q 540 35 633 35 q 391 80 447 35 q 335 208 335 125 z "},"ㅲ":{"ha":1067,"x_min":131,"x_max":929,"o":"m 521 133 l 131 133 l 131 832 l 269 832 l 269 640 l 381 640 l 381 832 l 521 832 l 521 133 m 929 136 l 764 136 l 764 685 l 560 685 l 560 832 l 929 832 l 929 136 m 381 285 l 381 481 l 269 481 l 269 285 l 381 285 z "},"ㅳ":{"ha":1067,"x_min":131,"x_max":917,"o":"m 521 133 l 131 133 l 131 832 l 269 832 l 269 640 l 381 640 l 381 832 l 521 832 l 521 133 m 917 279 l 917 135 l 558 135 l 558 833 l 901 833 l 901 689 l 731 689 l 731 279 l 917 279 m 381 285 l 381 481 l 269 481 l 269 285 l 381 285 z "},"ㅴ":{"ha":1067,"x_min":114,"x_max":942,"o":"m 413 260 l 483 833 l 661 833 l 743 135 l 626 135 l 574 661 l 514 135 l 114 135 l 114 833 l 228 833 l 228 610 l 289 610 l 289 833 l 413 833 l 413 260 m 942 135 l 813 135 l 813 693 l 703 693 l 703 833 l 942 833 l 942 135 m 289 261 l 289 496 l 228 496 l 228 261 l 289 261 z "},"ㅵ":{"ha":1067,"x_min":114,"x_max":972,"o":"m 413 165 l 485 833 l 663 833 l 736 156 l 736 833 l 961 833 l 961 703 l 858 703 l 858 264 l 972 264 l 972 135 l 621 135 l 575 661 l 525 135 l 114 135 l 114 833 l 228 833 l 228 610 l 289 610 l 289 833 l 413 833 l 413 165 m 289 261 l 289 496 l 228 496 l 228 261 l 289 261 z "},"ㅶ":{"ha":1067,"x_min":131,"x_max":954,"o":"m 521 133 l 131 133 l 131 832 l 269 832 l 269 640 l 381 640 l 381 832 l 521 832 l 521 133 m 792 697 l 560 697 l 560 835 l 954 835 l 954 697 l 800 475 l 953 315 l 954 107 l 719 358 l 553 118 l 553 339 l 792 697 m 381 285 l 381 481 l 269 481 l 269 285 l 381 285 z "},"ㅷ":{"ha":1067,"x_min":131,"x_max":921,"o":"m 521 133 l 131 133 l 131 832 l 269 832 l 269 640 l 381 640 l 381 832 l 521 832 l 521 133 m 921 265 l 921 133 l 549 133 l 549 833 l 910 833 l 910 701 l 711 701 l 711 547 l 897 547 l 897 417 l 711 417 l 711 265 l 921 265 m 381 285 l 381 481 l 269 481 l 269 285 l 381 285 z "},"ㅸ":{"ha":1067,"x_min":297,"x_max":769,"o":"m 769 432 l 297 432 l 297 856 l 449 856 l 449 771 l 619 771 l 619 856 l 769 856 l 769 432 m 335 208 q 391 337 335 292 q 540 382 447 382 q 690 337 633 382 q 746 208 746 292 q 690 80 746 125 q 540 35 633 35 q 391 80 447 35 q 335 208 335 125 m 468 203 q 488 156 468 174 q 540 139 508 139 q 593 156 574 139 q 613 203 613 174 l 613 214 q 593 260 613 243 q 540 278 574 278 q 488 260 508 278 q 468 214 468 243 l 468 203 m 619 563 l 619 644 l 449 644 l 449 563 l 619 563 z "},"ㅹ":{"ha":1067,"x_min":242,"x_max":825,"o":"m 606 771 l 681 771 l 681 856 l 825 856 l 825 432 l 242 432 l 242 856 l 388 856 l 388 771 l 461 771 l 461 854 l 606 854 l 606 771 m 335 208 q 391 337 335 292 q 540 382 447 382 q 690 337 633 382 q 746 208 746 292 q 690 80 746 125 q 540 35 633 35 q 391 80 447 35 q 335 208 335 125 m 468 203 q 488 156 468 174 q 540 139 508 139 q 593 156 574 139 q 613 203 613 174 l 613 214 q 593 260 613 243 q 540 278 574 278 q 488 260 508 278 q 468 214 468 243 l 468 203 m 681 563 l 681 644 l 606 644 l 606 563 l 681 563 m 388 563 l 461 563 l 461 644 l 388 644 l 388 563 z "},"ㅺ":{"ha":1067,"x_min":131,"x_max":929,"o":"m 929 136 l 764 136 l 764 685 l 571 685 l 571 832 l 929 832 l 929 136 m 631 135 l 481 135 l 389 704 l 281 135 l 131 135 l 269 833 l 508 833 l 631 135 z "},"ㅻ":{"ha":1067,"x_min":119,"x_max":942,"o":"m 575 135 l 425 135 l 356 704 l 269 135 l 119 135 l 236 833 l 475 833 l 575 135 m 760 286 l 942 286 l 942 135 l 594 135 l 594 833 l 760 833 l 760 286 z "},"ㅼ":{"ha":1067,"x_min":119,"x_max":942,"o":"m 942 279 l 942 135 l 583 135 l 583 833 l 926 833 l 926 689 l 757 689 l 757 279 l 942 279 m 575 135 l 425 135 l 356 704 l 269 135 l 119 135 l 236 833 l 475 833 l 575 135 z "},"ㅽ":{"ha":1067,"x_min":119,"x_max":921,"o":"m 921 135 l 403 135 l 344 704 l 269 135 l 119 135 l 225 833 l 464 833 l 550 153 l 550 832 l 690 832 l 690 640 l 781 640 l 781 832 l 921 832 l 921 135 m 781 285 l 781 481 l 690 481 l 690 285 l 781 285 z "},"ㅾ":{"ha":1067,"x_min":119,"x_max":965,"o":"m 553 135 l 403 135 l 344 704 l 269 135 l 119 135 l 225 833 l 464 833 l 553 135 m 803 697 l 571 697 l 571 835 l 965 835 l 965 697 l 811 475 l 964 315 l 965 107 l 731 358 l 564 118 l 564 339 l 803 697 z "},"ㅿ":{"ha":1067,"x_min":164,"x_max":853,"o":"m 853 135 l 164 135 l 393 833 l 619 833 l 853 135 m 369 275 l 643 275 l 500 704 l 369 275 z "},"ㆀ":{"ha":1067,"x_min":111,"x_max":978,"o":"m 289 113 q 217 129 250 113 q 161 174 185 146 q 124 236 138 201 q 111 308 111 271 l 111 671 q 125 740 111 706 q 163 803 139 775 q 220 849 188 831 q 289 867 253 867 l 356 867 q 426 849 393 867 q 483 803 458 831 q 520 740 507 775 q 533 671 533 704 l 533 308 q 520 236 533 271 q 483 174 507 201 q 426 129 458 146 q 356 113 393 113 l 289 113 m 249 314 q 267 263 249 285 q 315 240 286 240 l 328 240 q 376 263 357 240 q 394 314 394 285 l 394 665 q 390 691 394 678 q 376 715 385 704 q 355 732 368 725 q 328 739 342 739 l 315 739 q 288 732 300 739 q 267 714 275 725 q 253 690 258 703 q 249 665 249 676 l 249 314 m 733 113 q 662 129 694 113 q 606 174 629 146 q 569 236 582 201 q 556 308 556 271 l 556 671 q 569 740 556 706 q 608 803 583 775 q 665 849 632 831 q 733 867 697 867 l 800 867 q 870 849 838 867 q 927 803 903 831 q 965 740 951 775 q 978 671 978 704 l 978 308 q 965 236 978 271 q 927 174 951 201 q 870 129 903 146 q 800 113 838 113 l 733 113 m 693 314 q 712 263 693 285 q 760 240 731 240 l 772 240 q 820 263 801 240 q 839 314 839 285 l 839 665 q 834 691 839 678 q 821 715 829 704 q 799 732 813 725 q 772 739 786 739 l 760 739 q 732 732 744 739 q 711 714 719 725 q 698 690 703 703 q 693 665 693 676 l 693 314 z "},"ㆁ":{"ha":1067,"x_min":311,"x_max":756,"o":"m 489 113 q 417 129 450 113 q 361 174 385 146 q 324 236 338 201 q 311 308 311 271 l 311 492 q 323 554 311 522 q 355 613 335 586 q 402 658 375 639 q 461 683 429 676 l 461 872 l 617 872 l 617 681 q 672 653 647 672 q 716 607 697 633 q 745 550 735 581 q 756 492 756 519 l 756 308 q 742 236 756 271 q 705 174 729 201 q 648 129 681 146 q 578 113 615 113 l 489 113 m 449 314 q 467 263 449 285 q 515 240 486 240 l 550 240 q 598 263 579 240 q 617 314 617 285 l 617 486 q 612 511 617 497 q 599 535 607 525 q 577 552 590 546 q 550 558 564 558 l 515 558 q 488 551 500 558 q 467 534 475 544 q 453 510 458 524 q 449 486 449 497 l 449 314 z "},"ㆂ":{"ha":1067,"x_min":131,"x_max":926,"o":"m 285 113 q 219 129 247 113 q 172 174 192 146 q 141 236 151 201 q 131 308 131 271 l 131 492 q 139 549 131 519 q 162 605 147 579 q 198 650 176 631 q 244 679 219 669 l 244 872 l 400 872 l 400 681 q 449 653 428 672 q 487 607 471 633 q 511 550 503 581 q 519 492 519 519 l 519 308 q 508 236 519 271 q 478 174 497 201 q 429 129 458 146 q 364 113 400 113 l 285 113 m 926 135 l 778 135 l 731 681 l 678 135 l 522 135 l 618 832 l 849 832 l 926 135 m 258 314 q 270 263 258 285 q 308 240 282 240 l 339 240 q 378 263 365 240 q 392 314 392 285 l 392 486 q 389 511 392 497 q 380 535 386 525 q 363 552 374 546 q 339 558 353 558 l 308 558 q 285 551 294 558 q 269 534 275 544 q 261 510 264 524 q 258 486 258 497 l 258 314 z "},"ㆃ":{"ha":1067,"x_min":128,"x_max":942,"o":"m 942 135 l 508 135 l 614 846 l 853 846 l 942 135 m 282 113 q 217 129 246 113 q 169 174 189 146 q 138 236 149 201 q 128 308 128 271 l 128 492 q 136 549 128 519 q 160 605 144 579 q 196 650 175 631 q 242 679 217 669 l 242 872 l 397 872 l 397 681 q 447 653 425 672 q 485 607 469 633 q 508 550 500 581 q 517 492 517 519 l 517 308 q 506 236 517 271 q 476 174 496 201 q 426 129 456 146 q 363 113 397 113 l 282 113 m 256 314 q 268 263 256 285 q 307 240 281 240 l 336 240 q 376 263 364 240 q 389 314 389 285 l 389 486 q 386 511 389 497 q 377 535 383 525 q 361 552 371 546 q 336 558 351 558 l 307 558 q 282 551 292 558 q 267 534 272 544 q 258 510 261 524 q 256 486 256 497 l 256 314 m 675 275 l 776 275 l 733 717 l 675 275 z "},"ㆄ":{"ha":1067,"x_min":236,"x_max":831,"o":"m 321 560 l 321 726 l 236 726 l 236 854 l 831 854 l 831 726 l 758 726 l 758 560 l 831 560 l 831 432 l 236 432 l 236 560 l 321 560 m 329 208 q 385 337 329 292 q 535 382 442 382 q 684 337 628 382 q 740 208 740 292 q 684 80 740 125 q 535 35 628 35 q 385 80 442 35 q 329 208 329 125 m 472 560 l 608 560 l 608 726 l 472 726 l 472 560 m 463 203 q 483 156 463 174 q 535 139 503 139 q 588 156 568 139 q 607 203 607 174 l 607 214 q 588 260 607 243 q 535 278 568 278 q 483 260 503 278 q 463 214 463 243 l 463 203 z "},"ㆅ":{"ha":1067,"x_min":124,"x_max":917,"o":"m 844 613 q 876 522 865 574 q 888 403 888 469 q 841 184 888 260 q 708 108 794 108 q 575 184 621 108 q 529 403 529 260 q 571 613 529 535 l 528 613 l 528 753 l 642 753 l 642 865 l 776 865 l 776 753 l 917 753 l 917 613 l 844 613 m 456 613 q 488 522 476 574 q 499 403 499 469 q 452 184 499 260 q 319 108 406 108 q 184 184 228 108 q 140 403 140 260 q 182 613 140 535 l 124 613 l 124 753 l 253 753 l 253 865 l 388 865 l 388 753 l 499 753 l 499 613 l 456 613 m 660 372 q 671 280 660 318 q 708 242 682 242 q 746 280 735 242 q 757 372 757 318 l 757 432 q 746 524 757 486 q 708 563 735 563 q 671 524 682 563 q 660 432 660 486 l 660 372 m 271 372 q 282 280 271 318 q 319 242 293 242 q 357 280 346 242 q 368 372 368 318 l 368 432 q 357 524 368 486 q 319 563 346 563 q 282 524 293 563 q 271 432 271 486 l 271 372 z "},"ㆆ":{"ha":1067,"x_min":189,"x_max":878,"o":"m 226 408 q 249 501 226 458 q 313 576 272 544 q 408 624 353 607 q 531 642 464 642 q 653 624 597 642 q 750 576 710 607 q 813 501 790 544 q 836 408 836 458 l 836 342 q 814 248 836 292 q 752 173 792 204 q 656 123 713 142 q 531 104 600 104 q 408 123 464 104 q 311 173 351 142 q 249 248 271 204 q 226 342 226 292 l 226 408 m 392 340 q 403 294 392 314 q 433 258 414 274 q 477 235 451 243 q 531 228 503 228 q 585 235 560 228 q 630 258 611 243 q 659 294 649 274 q 669 340 669 314 l 669 410 q 659 456 669 436 q 630 487 649 475 q 585 504 611 499 q 531 510 560 510 q 477 504 503 510 q 433 487 451 499 q 403 456 414 475 q 392 410 392 436 l 392 340 m 189 692 l 189 832 l 878 832 l 878 692 l 189 692 z "},"ㆇ":{"ha":1067,"x_min":33,"x_max":1033,"o":"m 161 115 l 161 442 l 328 442 l 328 115 l 472 115 l 472 442 l 639 442 l 639 115 l 757 115 l 757 1019 l 919 1019 l 919 772 l 1033 772 l 1033 621 l 919 621 l 919 381 l 1033 381 l 1033 231 l 919 231 l 919 -32 l 33 -32 l 33 115 l 161 115 z "},"ㆈ":{"ha":1067,"x_min":61,"x_max":1006,"o":"m 167 108 l 167 442 l 300 442 l 300 108 l 411 108 l 411 442 l 544 442 l 544 108 l 654 108 l 654 1019 l 789 1019 l 789 761 l 871 761 l 871 1019 l 1006 1019 l 1006 -32 l 871 -32 l 871 254 l 789 254 l 789 -32 l 61 -32 l 61 108 l 167 108 m 789 406 l 871 406 l 871 610 l 789 610 l 789 406 z "},"ㆉ":{"ha":1067,"x_min":75,"x_max":992,"o":"m 214 118 l 214 442 l 381 442 l 381 118 l 525 118 l 525 442 l 692 442 l 692 118 l 835 118 l 835 1019 l 992 1019 l 992 -32 l 75 -32 l 75 118 l 214 118 z "},"ㆊ":{"ha":1067,"x_min":75,"x_max":992,"o":"m 992 -32 l 831 -32 l 831 161 l 697 161 l 697 -32 l 542 -32 l 542 161 l 397 161 l 397 -32 l 242 -32 l 242 161 l 75 161 l 75 308 l 831 308 l 831 446 l 625 446 l 625 586 l 831 586 l 831 708 l 625 708 l 625 849 l 831 849 l 831 1019 l 992 1019 l 992 -32 z "},"ㆋ":{"ha":1067,"x_min":58,"x_max":1008,"o":"m 164 -32 l 164 244 l 58 244 l 58 371 l 622 371 l 622 490 l 464 490 l 464 631 l 622 631 l 622 742 l 464 742 l 464 882 l 622 882 l 622 1019 l 776 1019 l 776 -32 l 622 -32 l 622 244 l 531 244 l 531 -32 l 397 -32 l 397 244 l 297 244 l 297 -32 l 164 -32 m 1008 -32 l 853 -32 l 853 1019 l 1008 1019 l 1008 -32 z "},"ㆌ":{"ha":1067,"x_min":75,"x_max":992,"o":"m 828 272 l 697 272 l 697 -32 l 542 -32 l 542 272 l 397 272 l 397 -32 l 242 -32 l 242 272 l 75 272 l 75 419 l 828 419 l 828 1019 l 992 1019 l 992 -32 l 828 -32 l 828 272 z "},"ㆍ":{"ha":1067,"x_min":443,"x_max":622,"o":"m 443 497 q 448 522 443 508 q 461 545 453 535 q 482 563 469 556 q 510 569 494 569 l 556 569 q 583 563 569 569 q 604 547 596 557 q 617 522 613 536 q 622 497 622 508 l 622 469 q 603 418 622 440 q 556 396 585 396 l 510 396 q 462 418 481 396 q 443 469 443 440 l 443 497 z "},"ㆎ":{"ha":1067,"x_min":308,"x_max":758,"o":"m 758 -32 l 588 -32 l 588 1019 l 758 1019 l 758 -32 m 308 497 q 313 522 308 508 q 326 545 317 535 q 347 563 335 556 q 375 569 358 569 l 419 569 q 447 563 435 569 q 468 547 460 557 q 481 522 476 536 q 486 497 486 508 l 486 469 q 467 418 486 440 q 419 396 449 396 l 375 396 q 327 418 346 396 q 308 469 308 440 l 308 497 z "},"ⅰ":{"ha":1067,"x_min":447,"x_max":618,"o":"m 614 808 l 447 808 l 447 949 l 614 949 l 614 808 m 449 131 l 449 724 l 618 724 l 618 131 l 449 131 z "},"ⅱ":{"ha":1067,"x_min":297,"x_max":769,"o":"m 768 808 l 599 808 l 599 949 l 768 949 l 768 808 m 465 808 l 297 808 l 297 949 l 465 949 l 465 808 m 600 132 l 600 724 l 769 724 l 769 132 l 600 132 m 303 132 l 303 724 l 471 724 l 471 132 l 303 132 z "},"ⅲ":{"ha":1067,"x_min":206,"x_max":861,"o":"m 860 808 l 692 808 l 692 949 l 860 949 l 860 808 m 372 808 l 206 808 l 206 949 l 372 949 l 372 808 m 618 808 l 450 808 l 450 949 l 618 949 l 618 808 m 697 132 l 697 724 l 861 724 l 861 132 l 697 132 m 456 132 l 456 724 l 617 724 l 617 132 l 456 132 m 210 132 l 210 724 l 372 724 l 372 132 l 210 132 z "},"ⅳ":{"ha":1067,"x_min":147,"x_max":918,"o":"m 315 807 l 147 807 l 147 949 l 315 949 l 315 807 m 918 722 q 819 427 868 574 q 721 133 771 281 l 558 133 q 460 427 508 281 q 361 722 411 574 l 546 722 q 583 569 564 646 q 621 417 603 493 q 635 354 629 388 q 644 289 642 321 l 649 289 q 690 506 663 397 q 742 722 718 614 l 918 722 m 317 133 l 153 133 l 153 722 l 317 722 l 317 133 z "},"ⅴ":{"ha":1067,"x_min":221,"x_max":846,"o":"m 846 725 l 611 136 l 449 136 q 335 430 392 283 q 221 725 278 576 l 408 725 q 444 616 425 672 q 480 505 463 560 q 511 397 497 450 q 535 294 525 343 l 542 294 q 559 384 546 332 q 590 494 572 436 q 628 612 608 553 q 667 725 649 671 l 846 725 z "},"ⅵ":{"ha":1067,"x_min":153,"x_max":914,"o":"m 707 722 l 508 133 l 346 133 q 249 427 297 281 q 153 722 200 574 l 336 722 l 411 417 q 424 354 418 388 q 432 289 431 321 l 436 289 q 476 506 449 397 q 531 722 504 614 l 707 722 m 914 133 l 753 133 l 753 722 l 914 722 l 914 133 m 914 807 l 747 807 l 747 949 l 914 949 l 914 807 z "},"ⅶ":{"ha":1067,"x_min":79,"x_max":986,"o":"m 535 722 l 383 133 l 233 133 q 156 427 194 281 q 79 722 118 574 l 244 722 q 265 617 254 668 q 283 515 275 567 q 299 408 292 464 q 311 289 307 353 l 314 289 q 346 510 329 407 q 381 722 363 614 l 535 722 m 732 133 l 582 133 l 582 722 l 732 722 l 732 133 m 986 133 l 838 133 l 838 722 l 986 722 l 986 133 m 986 807 l 833 807 l 833 949 l 986 949 l 986 807 m 733 807 l 581 807 l 581 949 l 733 949 l 733 807 z "},"ⅷ":{"ha":1067,"x_min":69,"x_max":997,"o":"m 993 807 l 858 807 l 858 949 l 993 949 l 993 807 m 797 807 l 660 807 l 660 949 l 797 949 l 797 807 m 594 807 l 458 807 l 458 949 l 594 949 l 594 807 m 997 133 l 860 133 l 860 722 l 997 722 l 997 133 m 797 133 l 660 133 l 660 722 l 797 722 l 797 133 m 596 133 l 458 133 l 458 722 l 596 722 l 596 133 m 431 722 q 374 427 401 574 q 317 133 346 281 l 190 133 q 129 427 158 281 q 69 722 100 574 l 219 722 q 230 619 225 667 q 239 522 235 572 q 247 416 243 472 q 257 289 251 360 l 258 289 q 267 408 264 353 q 275 514 271 463 q 283 617 279 565 q 293 722 288 668 l 431 722 z "},"ⅸ":{"ha":1067,"x_min":157,"x_max":910,"o":"m 747 432 q 825 282 786 357 q 904 133 864 207 l 719 133 q 674 228 694 181 q 636 336 653 276 l 631 336 q 594 230 614 279 q 551 133 574 181 l 376 133 q 455 279 415 206 q 533 425 494 353 q 454 574 494 500 q 375 722 414 647 l 558 722 q 606 619 582 672 q 647 515 631 567 l 650 515 q 692 621 671 571 q 738 722 714 671 l 910 722 l 747 432 m 319 133 l 157 133 l 157 722 l 319 722 l 319 133 m 317 807 l 158 807 l 158 949 l 317 949 l 317 807 z "},"ⅹ":{"ha":1067,"x_min":231,"x_max":835,"o":"m 835 728 q 821 707 835 728 q 785 656 807 686 q 740 590 764 626 q 693 522 715 554 q 656 467 671 490 q 636 440 640 444 q 654 412 639 436 q 692 353 669 388 q 739 281 714 319 q 784 211 764 243 q 817 158 804 179 q 831 136 831 136 q 831 136 831 136 l 636 136 q 625 156 636 138 q 601 194 614 174 q 578 233 589 215 q 568 253 568 251 q 529 340 546 296 l 525 340 q 506 294 515 314 q 483 253 496 275 q 474 235 485 253 q 452 197 464 218 q 430 156 440 175 q 419 136 419 138 l 232 136 l 231 136 q 245 157 231 136 q 281 210 260 178 q 328 279 303 242 q 375 350 353 317 q 413 407 397 383 q 431 433 428 431 q 413 461 428 438 q 375 517 397 485 q 328 588 353 550 q 283 656 303 625 q 249 707 263 686 q 236 728 235 728 l 425 728 q 435 710 425 725 q 456 676 444 694 q 476 642 467 657 q 485 626 485 626 l 483 626 q 513 577 499 603 q 540 529 528 551 l 543 529 q 570 581 557 556 q 599 631 583 606 l 597 629 q 606 644 597 631 q 623 676 614 658 q 640 709 632 693 q 650 728 649 725 l 649 728 l 650 729 l 650 728 l 835 728 z "},"Ⅰ":{"ha":1067,"x_min":447,"x_max":618,"o":"m 618 954 l 618 132 l 447 132 l 447 954 l 618 954 z "},"Ⅱ":{"ha":1067,"x_min":297,"x_max":769,"o":"m 769 954 l 769 132 l 601 132 l 601 954 l 769 954 m 465 954 l 465 132 l 297 132 l 297 954 l 465 954 z "},"Ⅲ":{"ha":1067,"x_min":196,"x_max":871,"o":"m 871 954 l 871 132 l 711 132 l 711 954 l 871 954 m 356 954 l 356 132 l 196 132 l 196 954 l 356 954 m 604 954 l 604 132 l 446 132 l 446 954 l 604 954 z "},"Ⅳ":{"ha":1067,"x_min":110,"x_max":957,"o":"m 957 953 q 838 542 897 746 q 719 133 779 338 l 525 133 q 415 542 469 338 q 304 953 360 746 l 490 953 q 566 626 526 788 q 629 297 606 464 l 632 297 q 657 452 642 374 q 692 606 672 531 l 775 953 l 957 953 m 269 133 l 110 133 l 110 953 l 269 953 l 269 133 z "},"Ⅴ":{"ha":1067,"x_min":167,"x_max":900,"o":"m 900 953 q 757 542 828 746 q 614 133 686 338 l 424 133 l 167 953 l 353 953 q 400 784 375 869 q 450 615 425 699 q 494 450 475 531 q 526 293 514 369 l 529 293 q 561 448 540 368 q 608 611 582 528 q 663 781 635 694 q 719 953 692 867 l 900 953 z "},"Ⅵ":{"ha":1067,"x_min":93,"x_max":972,"o":"m 744 953 l 508 133 l 315 133 q 204 542 258 338 q 93 953 150 746 l 279 953 q 324 761 301 856 q 368 571 346 667 q 396 435 382 506 q 415 297 410 364 l 419 297 q 445 463 429 381 q 481 627 461 546 q 522 790 500 708 q 564 953 543 871 l 744 953 m 972 133 l 814 133 l 814 953 l 972 953 l 972 133 z "},"Ⅶ":{"ha":1067,"x_min":67,"x_max":1000,"o":"m 585 953 l 397 133 l 250 133 l 67 953 l 225 953 q 253 795 238 872 q 282 639 268 718 q 308 476 296 560 q 328 303 319 393 l 335 303 q 347 445 336 372 q 368 581 358 518 q 399 767 385 675 q 431 953 414 858 l 585 953 m 1000 133 l 853 133 l 853 953 l 1000 953 l 1000 133 m 753 133 l 606 133 l 606 953 l 753 953 l 753 133 z "},"Ⅷ":{"ha":1067,"x_min":60,"x_max":1007,"o":"m 494 953 q 422 542 458 746 q 347 133 386 338 l 211 133 l 60 953 l 206 953 l 254 583 q 270 456 260 531 q 283 307 281 381 l 289 307 q 297 453 290 381 q 310 588 303 525 q 329 770 319 679 q 350 953 339 861 l 494 953 m 829 133 l 696 133 l 696 953 l 829 953 l 829 133 m 649 133 l 518 133 l 518 953 l 649 953 l 649 133 m 1007 133 l 875 133 l 875 953 l 1007 953 l 1007 133 z "},"Ⅸ":{"ha":1067,"x_min":147,"x_max":919,"o":"m 735 547 q 826 340 781 443 q 919 133 872 236 l 742 133 q 713 212 728 171 q 682 292 697 253 q 654 369 667 332 q 632 438 642 407 l 629 438 q 585 290 611 372 q 533 133 558 208 l 361 133 q 449 339 406 236 q 536 546 493 442 l 365 953 l 538 953 q 594 803 567 876 q 642 653 622 731 l 647 653 q 692 807 669 736 q 742 953 715 878 l 913 953 q 824 750 869 850 q 735 547 779 650 m 306 133 l 147 133 l 147 953 l 306 953 l 306 133 z "},"Ⅹ":{"ha":1067,"x_min":197,"x_max":869,"o":"m 631 547 q 652 509 633 542 q 698 431 671 476 q 756 332 725 385 q 811 235 786 279 q 853 162 836 192 q 868 132 869 132 q 867 133 868 132 l 672 133 l 672 132 q 671 133 671 132 l 672 133 q 657 164 669 139 q 629 217 644 189 q 603 269 614 246 q 592 293 592 292 l 592 293 q 551 376 565 343 q 524 439 536 410 l 519 439 q 498 377 511 410 q 460 293 485 344 q 449 268 460 292 q 426 217 439 244 q 403 164 414 189 q 390 133 392 139 l 392 133 l 390 132 l 390 133 l 197 133 l 197 132 q 213 164 197 135 q 253 237 229 193 q 306 331 276 281 q 360 425 335 381 q 402 502 385 469 q 424 542 419 535 l 425 542 l 425 544 l 424 544 q 425 543 424 543 l 424 542 l 424 544 q 403 585 419 553 q 361 663 386 618 q 308 758 336 708 q 257 851 281 808 q 218 924 233 894 q 203 954 203 953 l 203 953 l 397 953 q 403 939 397 953 q 419 906 410 925 q 440 864 429 886 q 460 822 451 842 q 476 790 469 803 q 483 775 483 776 q 511 709 500 736 q 531 650 522 682 l 536 650 q 547 683 542 668 q 558 713 553 699 q 569 742 564 728 q 583 775 575 757 l 583 775 q 590 790 583 776 q 606 824 597 804 q 626 866 615 843 q 647 908 638 889 q 663 940 657 928 q 668 953 669 953 l 861 953 q 863 954 861 954 q 847 924 863 953 q 806 851 831 894 q 751 758 781 808 q 695 664 721 708 q 651 588 669 619 q 631 549 633 556 l 632 549 l 631 547 z "},"─":{"ha":1067,"x_min":22,"x_max":1044,"o":"m 1044 486 l 22 486 l 22 518 l 1044 518 l 1044 486 z "},"│":{"ha":1067,"x_min":517,"x_max":549,"o":"m 549 -54 l 517 -54 l 517 1057 l 549 1057 l 549 -54 z "},"┌":{"ha":1067,"x_min":269,"x_max":797,"o":"m 797 486 l 303 486 l 303 -54 l 269 -54 l 269 518 l 797 518 l 797 486 z "},"┐":{"ha":1067,"x_min":269,"x_max":797,"o":"m 797 -54 l 764 -54 l 764 486 l 269 486 l 269 518 l 797 518 l 797 -54 z "},"┘":{"ha":1067,"x_min":269,"x_max":797,"o":"m 797 486 l 269 486 l 269 518 l 764 518 l 764 1057 l 797 1057 l 797 486 z "},"└":{"ha":1067,"x_min":275,"x_max":792,"o":"m 792 486 l 275 486 l 275 1057 l 308 1057 l 308 518 l 792 518 l 792 486 z "},"├":{"ha":1067,"x_min":269,"x_max":797,"o":"m 797 486 l 303 486 l 303 -54 l 269 -54 l 269 1057 l 303 1057 l 303 518 l 797 518 l 797 486 z "},"┬":{"ha":1067,"x_min":22,"x_max":1044,"o":"m 1044 486 l 550 486 l 550 -54 l 518 -54 l 518 486 l 22 486 l 22 518 l 1044 518 l 1044 486 z "},"┤":{"ha":1067,"x_min":269,"x_max":797,"o":"m 797 -54 l 764 -54 l 764 486 l 269 486 l 269 518 l 764 518 l 764 1057 l 797 1057 l 797 -54 z "},"┴":{"ha":1067,"x_min":22,"x_max":1044,"o":"m 1044 486 l 22 486 l 22 518 l 518 518 l 518 1057 l 550 1057 l 550 518 l 1044 518 l 1044 486 z "},"┼":{"ha":1067,"x_min":22,"x_max":1044,"o":"m 1044 485 l 550 485 l 550 -54 l 518 -54 l 518 485 l 22 485 l 22 517 l 518 517 l 518 1057 l 550 1057 l 550 517 l 1044 517 l 1044 485 z "},"━":{"ha":1067,"x_min":22,"x_max":1044,"o":"m 1044 469 l 22 469 l 22 529 l 1044 529 l 1044 469 z "},"┃":{"ha":1067,"x_min":503,"x_max":564,"o":"m 564 -54 l 503 -54 l 503 1057 l 564 1057 l 564 -54 z "},"┏":{"ha":1067,"x_min":263,"x_max":803,"o":"m 803 469 l 322 469 l 322 -54 l 263 -54 l 263 529 l 803 529 l 803 469 z "},"┓":{"ha":1067,"x_min":263,"x_max":803,"o":"m 803 -54 l 743 -54 l 743 469 l 263 469 l 263 529 l 803 529 l 803 -54 z "},"┛":{"ha":1067,"x_min":263,"x_max":803,"o":"m 803 469 l 263 469 l 263 529 l 743 529 l 743 1057 l 803 1057 l 803 469 z "},"┗":{"ha":1067,"x_min":263,"x_max":803,"o":"m 803 469 l 263 469 l 263 1057 l 322 1057 l 322 529 l 803 529 l 803 469 z "},"┣":{"ha":1067,"x_min":263,"x_max":803,"o":"m 803 469 l 322 469 l 322 -54 l 263 -54 l 263 1057 l 322 1057 l 322 529 l 803 529 l 803 469 z "},"┳":{"ha":1067,"x_min":22,"x_max":1044,"o":"m 1044 469 l 564 469 l 564 -54 l 503 -54 l 503 469 l 22 469 l 22 529 l 1044 529 l 1044 469 z "},"┫":{"ha":1067,"x_min":263,"x_max":803,"o":"m 803 -54 l 743 -54 l 743 469 l 263 469 l 263 529 l 743 529 l 743 1057 l 803 1057 l 803 -54 z "},"┻":{"ha":1067,"x_min":22,"x_max":1044,"o":"m 1044 469 l 22 469 l 22 529 l 503 529 l 503 1057 l 564 1057 l 564 529 l 1044 529 l 1044 469 z "},"╋":{"ha":1067,"x_min":22,"x_max":1044,"o":"m 1044 469 l 564 469 l 564 -54 l 503 -54 l 503 469 l 22 469 l 22 529 l 503 529 l 503 1057 l 564 1057 l 564 529 l 1044 529 l 1044 469 z "},"┠":{"ha":1067,"x_min":256,"x_max":810,"o":"m 810 481 l 340 481 l 340 -54 l 256 -54 l 256 1057 l 340 1057 l 340 521 l 810 521 l 810 481 z "},"┯":{"ha":1067,"x_min":22,"x_max":1044,"o":"m 1044 461 l 554 461 l 554 -54 l 513 -54 l 513 461 l 22 461 l 22 542 l 1044 542 l 1044 461 z "},"┨":{"ha":1067,"x_min":257,"x_max":810,"o":"m 810 -54 l 725 -54 l 725 481 l 257 481 l 257 521 l 725 521 l 725 1057 l 810 1057 l 810 -54 z "},"┷":{"ha":1067,"x_min":22,"x_max":1044,"o":"m 1044 461 l 22 461 l 22 542 l 513 542 l 513 1057 l 554 1057 l 554 542 l 1044 542 l 1044 461 z "},"┿":{"ha":1067,"x_min":22,"x_max":1044,"o":"m 1044 461 l 554 461 l 554 -54 l 513 -54 l 513 461 l 22 461 l 22 542 l 513 542 l 513 1057 l 554 1057 l 554 542 l 1044 542 l 1044 461 z "},"┝":{"ha":1067,"x_min":267,"x_max":799,"o":"m 799 461 l 308 461 l 308 -54 l 267 -54 l 267 1057 l 308 1057 l 308 542 l 799 542 l 799 461 z "},"┰":{"ha":1067,"x_min":22,"x_max":1044,"o":"m 1044 481 l 575 481 l 575 -54 l 492 -54 l 492 481 l 22 481 l 22 521 l 1044 521 l 1044 481 z "},"┥":{"ha":1067,"x_min":267,"x_max":799,"o":"m 799 -54 l 757 -54 l 757 461 l 267 461 l 267 542 l 757 542 l 757 1057 l 799 1057 l 799 -54 z "},"┸":{"ha":1067,"x_min":22,"x_max":1044,"o":"m 1044 481 l 22 481 l 22 521 l 492 521 l 492 1057 l 575 1057 l 575 521 l 1044 521 l 1044 481 z "},"╂":{"ha":1067,"x_min":22,"x_max":1044,"o":"m 1044 481 l 575 481 l 575 -54 l 492 -54 l 492 481 l 22 481 l 22 521 l 492 521 l 492 1057 l 575 1057 l 575 521 l 1044 521 l 1044 481 z "},"┒":{"ha":1067,"x_min":257,"x_max":810,"o":"m 810 -54 l 725 -54 l 725 481 l 257 481 l 257 521 l 810 521 l 810 -54 z "},"┑":{"ha":1067,"x_min":267,"x_max":799,"o":"m 799 -54 l 757 -54 l 757 461 l 267 461 l 267 542 l 799 542 l 799 -54 z "},"┚":{"ha":1067,"x_min":257,"x_max":810,"o":"m 810 481 l 257 481 l 257 521 l 725 521 l 725 1057 l 810 1057 l 810 481 z "},"┙":{"ha":1067,"x_min":267,"x_max":799,"o":"m 799 461 l 267 461 l 267 542 l 757 542 l 757 1057 l 799 1057 l 799 461 z "},"┖":{"ha":1067,"x_min":257,"x_max":810,"o":"m 810 481 l 257 481 l 257 1057 l 342 1057 l 342 521 l 810 521 l 810 481 z "},"┕":{"ha":1067,"x_min":267,"x_max":799,"o":"m 799 461 l 267 461 l 267 1057 l 308 1057 l 308 542 l 799 542 l 799 461 z "},"┎":{"ha":1067,"x_min":257,"x_max":810,"o":"m 810 481 l 342 481 l 342 -54 l 257 -54 l 257 521 l 810 521 l 810 481 z "},"┍":{"ha":1067,"x_min":267,"x_max":799,"o":"m 799 461 l 308 461 l 308 -54 l 267 -54 l 267 542 l 799 542 l 799 461 z "},"┞":{"ha":1067,"x_min":257,"x_max":810,"o":"m 810 481 l 319 481 l 319 -54 l 278 -54 l 278 501 l 257 501 l 257 1057 l 342 1057 l 342 521 l 810 521 l 810 481 z "},"┟":{"ha":1067,"x_min":257,"x_max":810,"o":"m 810 481 l 342 481 l 342 -54 l 257 -54 l 257 501 l 278 501 l 278 1057 l 319 1057 l 319 521 l 810 521 l 810 481 z "},"┡":{"ha":1067,"x_min":257,"x_max":810,"o":"m 810 461 l 319 461 l 319 -54 l 278 -54 l 278 501 l 257 501 l 257 1057 l 342 1057 l 342 542 l 810 542 l 810 461 z "},"┢":{"ha":1067,"x_min":257,"x_max":810,"o":"m 810 461 l 342 461 l 342 -54 l 257 -54 l 257 501 l 278 501 l 278 1057 l 319 1057 l 319 542 l 810 542 l 810 461 z "},"┦":{"ha":1067,"x_min":257,"x_max":810,"o":"m 810 501 l 789 501 l 789 -54 l 747 -54 l 747 481 l 257 481 l 257 521 l 725 521 l 725 1057 l 810 1057 l 810 501 z "},"┧":{"ha":1067,"x_min":257,"x_max":810,"o":"m 810 -54 l 725 -54 l 725 481 l 257 481 l 257 521 l 747 521 l 747 1057 l 789 1057 l 789 501 l 810 501 l 810 -54 z "},"┩":{"ha":1067,"x_min":257,"x_max":810,"o":"m 810 501 l 789 501 l 789 -54 l 747 -54 l 747 461 l 257 461 l 257 542 l 725 542 l 725 1057 l 810 1057 l 810 501 z "},"┪":{"ha":1067,"x_min":257,"x_max":810,"o":"m 810 -54 l 725 -54 l 725 461 l 257 461 l 257 542 l 747 542 l 747 1057 l 789 1057 l 789 501 l 810 501 l 810 -54 z "},"┭":{"ha":1067,"x_min":22,"x_max":1044,"o":"m 1044 481 l 554 481 l 554 -54 l 513 -54 l 513 461 l 22 461 l 22 542 l 533 542 l 533 521 l 1044 521 l 1044 481 z "},"┮":{"ha":1067,"x_min":22,"x_max":1044,"o":"m 1044 461 l 554 461 l 554 -54 l 513 -54 l 513 481 l 22 481 l 22 521 l 533 521 l 533 542 l 1044 542 l 1044 461 z "},"┱":{"ha":1067,"x_min":22,"x_max":1044,"o":"m 1044 481 l 575 481 l 575 -54 l 492 -54 l 492 461 l 22 461 l 22 542 l 533 542 l 533 521 l 1044 521 l 1044 481 z "},"┲":{"ha":1067,"x_min":22,"x_max":1044,"o":"m 1044 461 l 575 461 l 575 -54 l 492 -54 l 492 481 l 22 481 l 22 521 l 533 521 l 533 542 l 1044 542 l 1044 461 z "},"┵":{"ha":1067,"x_min":22,"x_max":1044,"o":"m 1044 481 l 533 481 l 533 461 l 22 461 l 22 542 l 513 542 l 513 1057 l 554 1057 l 554 521 l 1044 521 l 1044 481 z "},"┶":{"ha":1067,"x_min":22,"x_max":1044,"o":"m 1044 461 l 533 461 l 533 481 l 22 481 l 22 521 l 513 521 l 513 1057 l 554 1057 l 554 542 l 1044 542 l 1044 461 z "},"┹":{"ha":1067,"x_min":22,"x_max":1044,"o":"m 1044 481 l 533 481 l 533 461 l 22 461 l 22 542 l 492 542 l 492 1057 l 575 1057 l 575 521 l 1044 521 l 1044 481 z "},"┺":{"ha":1067,"x_min":22,"x_max":1044,"o":"m 1044 461 l 533 461 l 533 481 l 22 481 l 22 521 l 492 521 l 492 1057 l 575 1057 l 575 542 l 1044 542 l 1044 461 z "},"┽":{"ha":1067,"x_min":22,"x_max":1044,"o":"m 1044 481 l 554 481 l 554 -54 l 513 -54 l 513 461 l 22 461 l 22 546 l 513 546 l 513 1057 l 554 1057 l 554 521 l 1044 521 l 1044 481 z "},"┾":{"ha":1067,"x_min":22,"x_max":1044,"o":"m 1044 461 l 554 461 l 554 -54 l 513 -54 l 513 481 l 22 481 l 22 521 l 513 521 l 513 1057 l 554 1057 l 554 542 l 1044 542 l 1044 461 z "},"╀":{"ha":1067,"x_min":22,"x_max":1044,"o":"m 1044 481 l 554 481 l 554 -54 l 513 -54 l 513 481 l 22 481 l 22 521 l 492 521 l 492 1057 l 575 1057 l 575 521 l 1044 521 l 1044 481 z "},"╁":{"ha":1067,"x_min":22,"x_max":1044,"o":"m 1044 481 l 575 481 l 575 -54 l 492 -54 l 492 481 l 22 481 l 22 521 l 513 521 l 513 1057 l 554 1057 l 554 521 l 1044 521 l 1044 481 z "},"╃":{"ha":1067,"x_min":22,"x_max":1044,"o":"m 1044 481 l 554 481 l 554 -54 l 513 -54 l 513 461 l 22 461 l 22 542 l 492 542 l 492 1057 l 575 1057 l 575 521 l 1044 521 l 1044 481 z "},"╄":{"ha":1067,"x_min":22,"x_max":1044,"o":"m 1044 461 l 554 461 l 554 -54 l 513 -54 l 513 481 l 22 481 l 22 521 l 492 521 l 492 1057 l 575 1057 l 575 542 l 1044 542 l 1044 461 z "},"╅":{"ha":1067,"x_min":22,"x_max":1044,"o":"m 1044 481 l 575 481 l 575 -54 l 492 -54 l 492 461 l 22 461 l 22 542 l 513 542 l 513 1057 l 554 1057 l 554 521 l 1044 521 l 1044 481 z "},"╆":{"ha":1067,"x_min":22,"x_max":1044,"o":"m 1044 461 l 575 461 l 575 -54 l 492 -54 l 492 481 l 22 481 l 22 521 l 513 521 l 513 1057 l 554 1057 l 554 542 l 1044 542 l 1044 461 z "},"╇":{"ha":1067,"x_min":22,"x_max":1044,"o":"m 1044 461 l 554 461 l 554 -54 l 513 -54 l 513 461 l 22 461 l 22 542 l 492 542 l 492 1057 l 575 1057 l 575 542 l 1044 542 l 1044 461 z "},"╈":{"ha":1067,"x_min":22,"x_max":1044,"o":"m 1044 461 l 575 461 l 575 -54 l 492 -54 l 492 461 l 22 461 l 22 542 l 513 542 l 513 1057 l 554 1057 l 554 542 l 1044 542 l 1044 461 z "},"╉":{"ha":1067,"x_min":22,"x_max":1044,"o":"m 1044 481 l 575 481 l 575 -54 l 492 -54 l 492 461 l 22 461 l 22 542 l 492 542 l 492 1057 l 575 1057 l 575 521 l 1044 521 l 1044 481 z "},"╊":{"ha":1067,"x_min":22,"x_max":1044,"o":"m 1044 461 l 575 461 l 575 -54 l 492 -54 l 492 481 l 22 481 l 22 521 l 492 521 l 492 1057 l 575 1057 l 575 542 l 1044 542 l 1044 461 z "},"㉠":{"ha":1067,"x_min":56,"x_max":1024,"o":"m 635 1003 q 781 973 711 1003 q 905 893 851 943 q 991 777 958 843 q 1024 638 1024 711 l 1024 354 q 991 207 1024 272 q 904 95 958 142 q 780 24 850 49 q 633 -1 710 -1 l 444 -1 q 299 24 369 -1 q 174 95 228 49 q 88 207 119 142 q 56 354 56 272 l 56 636 q 88 775 56 708 q 174 892 119 842 q 299 973 228 943 q 444 1003 369 1003 l 635 1003 m 185 369 q 208 263 186 308 q 272 185 231 217 q 370 137 314 153 q 496 121 426 121 l 594 121 q 815 181 736 121 q 894 369 893 242 l 894 607 q 872 726 893 675 q 813 813 851 778 q 718 865 774 847 q 593 883 663 883 l 485 883 q 360 865 415 883 q 265 813 304 847 q 206 726 226 778 q 185 606 185 674 l 185 369 m 610 558 l 294 558 l 294 711 l 775 711 l 775 558 l 714 224 l 553 224 l 610 558 z "},"㉡":{"ha":1067,"x_min":56,"x_max":1024,"o":"m 635 1003 q 781 973 711 1003 q 905 893 851 943 q 991 777 958 843 q 1024 638 1024 711 l 1024 354 q 991 207 1024 272 q 904 95 958 142 q 780 24 850 49 q 633 -1 710 -1 l 444 -1 q 299 24 369 -1 q 174 95 228 49 q 88 207 119 142 q 56 354 56 272 l 56 636 q 88 775 56 708 q 174 892 119 842 q 299 973 228 943 q 444 1003 369 1003 l 635 1003 m 185 369 q 208 263 186 308 q 272 185 231 217 q 370 137 314 153 q 496 121 426 121 l 594 121 q 815 181 736 121 q 894 369 893 242 l 894 607 q 872 726 893 675 q 813 813 851 778 q 718 865 774 847 q 593 883 663 883 l 485 883 q 360 865 415 883 q 265 813 304 847 q 206 726 226 778 q 185 606 185 674 l 185 369 m 458 396 l 803 396 l 803 246 l 308 246 l 308 732 l 458 732 l 458 396 z "},"㉢":{"ha":1067,"x_min":56,"x_max":1024,"o":"m 635 1003 q 781 973 711 1003 q 905 893 851 943 q 991 777 958 843 q 1024 638 1024 711 l 1024 354 q 991 207 1024 272 q 904 95 958 142 q 780 24 850 49 q 633 -1 710 -1 l 444 -1 q 299 24 369 -1 q 174 95 228 49 q 88 207 119 142 q 56 354 56 272 l 56 636 q 88 775 56 708 q 174 892 119 842 q 299 973 228 943 q 444 1003 369 1003 l 635 1003 m 185 369 q 208 263 186 308 q 272 185 231 217 q 370 137 314 153 q 496 121 426 121 l 594 121 q 815 181 736 121 q 894 369 893 242 l 894 607 q 872 726 893 675 q 813 813 851 778 q 718 865 774 847 q 593 883 663 883 l 485 883 q 360 865 415 883 q 265 813 304 847 q 206 726 226 778 q 185 606 185 674 l 185 369 m 764 376 l 764 246 l 314 246 l 314 733 l 764 733 l 764 603 l 472 603 l 472 376 l 764 376 z "},"㉣":{"ha":1067,"x_min":56,"x_max":1024,"o":"m 635 1003 q 781 973 711 1003 q 905 893 851 943 q 991 777 958 843 q 1024 638 1024 711 l 1024 354 q 991 207 1024 272 q 904 95 958 142 q 780 24 850 49 q 633 -1 710 -1 l 444 -1 q 299 24 369 -1 q 174 95 228 49 q 88 207 119 142 q 56 354 56 272 l 56 636 q 88 775 56 708 q 174 892 119 842 q 299 973 228 943 q 444 1003 369 1003 l 635 1003 m 185 369 q 208 263 186 308 q 272 185 231 217 q 370 137 314 153 q 496 121 426 121 l 594 121 q 815 181 736 121 q 894 369 893 242 l 894 607 q 872 726 893 675 q 813 813 851 778 q 718 865 774 847 q 593 883 663 883 l 485 883 q 360 865 415 883 q 265 813 304 847 q 206 726 226 778 q 185 606 185 674 l 185 369 m 765 733 l 765 435 l 463 435 l 463 375 l 765 375 l 765 246 l 311 246 l 311 549 l 614 549 l 614 606 l 311 606 l 311 733 l 765 733 z "},"㉤":{"ha":1067,"x_min":56,"x_max":1024,"o":"m 635 1003 q 781 973 711 1003 q 905 893 851 943 q 991 777 958 843 q 1024 638 1024 711 l 1024 354 q 991 207 1024 272 q 904 95 958 142 q 780 24 850 49 q 633 -1 710 -1 l 444 -1 q 299 24 369 -1 q 174 95 228 49 q 88 207 119 142 q 56 354 56 272 l 56 636 q 88 775 56 708 q 174 892 119 842 q 299 973 228 943 q 444 1003 369 1003 l 635 1003 m 185 369 q 208 263 186 308 q 272 185 231 217 q 370 137 314 153 q 496 121 426 121 l 594 121 q 815 181 736 121 q 894 369 893 242 l 894 607 q 872 726 893 675 q 813 813 851 778 q 718 865 774 847 q 593 883 663 883 l 485 883 q 360 865 415 883 q 265 813 304 847 q 206 726 226 778 q 185 606 185 674 l 185 369 m 775 731 l 775 246 l 314 246 l 314 731 l 775 731 m 625 603 l 464 603 l 464 375 l 625 375 l 625 603 z "},"㉥":{"ha":1067,"x_min":56,"x_max":1024,"o":"m 635 1003 q 781 973 711 1003 q 905 893 851 943 q 991 777 958 843 q 1024 638 1024 711 l 1024 354 q 991 207 1024 272 q 904 95 958 142 q 780 24 850 49 q 633 -1 710 -1 l 444 -1 q 299 24 369 -1 q 174 95 228 49 q 88 207 119 142 q 56 354 56 272 l 56 636 q 88 775 56 708 q 174 892 119 842 q 299 973 228 943 q 444 1003 369 1003 l 635 1003 m 185 369 q 208 263 186 308 q 272 185 231 217 q 370 137 314 153 q 496 121 426 121 l 594 121 q 815 181 736 121 q 894 369 893 242 l 894 607 q 872 726 893 675 q 813 813 851 778 q 718 865 774 847 q 593 883 663 883 l 485 883 q 360 865 415 883 q 265 813 304 847 q 206 726 226 778 q 185 606 185 674 l 185 369 m 772 246 l 308 246 l 308 731 l 446 731 l 446 589 l 633 589 l 633 731 l 772 731 l 772 246 m 633 363 l 633 485 l 446 485 l 446 363 l 633 363 z "},"㉦":{"ha":1067,"x_min":56,"x_max":1024,"o":"m 635 1003 q 781 973 711 1003 q 905 893 851 943 q 991 777 958 843 q 1024 638 1024 711 l 1024 354 q 991 207 1024 272 q 904 95 958 142 q 780 24 850 49 q 633 -1 710 -1 l 444 -1 q 299 24 369 -1 q 174 95 228 49 q 88 207 119 142 q 56 354 56 272 l 56 636 q 88 775 56 708 q 174 892 119 842 q 299 973 228 943 q 444 1003 369 1003 l 635 1003 m 185 369 q 208 263 186 308 q 272 185 231 217 q 370 137 314 153 q 496 121 426 121 l 594 121 q 815 181 736 121 q 894 369 893 242 l 894 607 q 872 726 893 675 q 813 813 851 778 q 718 865 774 847 q 593 883 663 883 l 485 883 q 360 865 415 883 q 265 813 304 847 q 206 726 226 778 q 185 606 185 674 l 185 369 m 775 246 l 624 246 l 542 619 l 442 246 l 290 246 l 408 728 l 675 728 l 775 246 z "},"㉧":{"ha":1067,"x_min":56,"x_max":1024,"o":"m 635 1003 q 781 973 711 1003 q 905 893 851 943 q 991 777 958 843 q 1024 638 1024 711 l 1024 354 q 991 207 1024 272 q 904 95 958 142 q 780 24 850 49 q 633 -1 710 -1 l 444 -1 q 299 24 369 -1 q 174 95 228 49 q 88 207 119 142 q 56 354 56 272 l 56 636 q 88 775 56 708 q 174 892 119 842 q 299 973 228 943 q 444 1003 369 1003 l 635 1003 m 185 369 q 208 263 186 308 q 272 185 231 217 q 370 137 314 153 q 496 121 426 121 l 594 121 q 815 181 736 121 q 894 369 893 242 l 894 607 q 872 726 893 675 q 813 813 851 778 q 718 865 774 847 q 593 883 663 883 l 485 883 q 360 865 415 883 q 265 813 304 847 q 206 726 226 778 q 185 606 185 674 l 185 369 m 263 549 q 284 635 263 594 q 343 707 306 676 q 431 756 381 738 q 539 774 482 774 q 647 756 596 774 q 735 707 697 738 q 794 635 772 676 q 815 549 815 594 l 815 458 q 794 372 815 414 q 735 300 772 331 q 647 252 697 269 q 539 235 596 235 q 431 252 482 235 q 343 300 381 269 q 284 372 306 331 q 263 458 263 414 l 263 549 m 422 479 q 431 438 422 457 q 456 406 440 419 q 493 383 472 392 q 539 375 514 375 q 585 383 564 375 q 621 406 606 392 q 646 438 636 419 q 656 479 656 457 l 656 529 q 646 569 656 550 q 621 602 636 588 q 585 624 606 617 q 539 632 564 632 q 493 624 514 632 q 456 602 472 617 q 431 569 440 588 q 422 529 422 550 l 422 479 z "},"㉨":{"ha":1067,"x_min":56,"x_max":1024,"o":"m 635 1003 q 781 973 711 1003 q 905 893 851 943 q 991 777 958 843 q 1024 638 1024 711 l 1024 354 q 991 207 1024 272 q 904 95 958 142 q 780 24 850 49 q 633 -1 710 -1 l 444 -1 q 299 24 369 -1 q 174 95 228 49 q 88 207 119 142 q 56 354 56 272 l 56 636 q 88 775 56 708 q 174 892 119 842 q 299 973 228 943 q 444 1003 369 1003 l 635 1003 m 185 369 q 208 263 186 308 q 272 185 231 217 q 370 137 314 153 q 496 121 426 121 l 594 121 q 815 181 736 121 q 894 369 893 242 l 894 607 q 872 726 893 675 q 813 813 851 778 q 718 865 774 847 q 593 883 663 883 l 485 883 q 360 865 415 883 q 265 813 304 847 q 206 726 226 778 q 185 606 185 674 l 185 369 m 539 597 l 306 597 l 306 744 l 761 744 l 761 597 l 656 514 l 761 436 l 761 236 l 536 419 l 306 236 l 306 425 l 539 597 z "},"㉩":{"ha":1067,"x_min":56,"x_max":1024,"o":"m 635 1003 q 781 973 711 1003 q 905 893 851 943 q 991 777 958 843 q 1024 638 1024 711 l 1024 354 q 991 207 1024 272 q 904 95 958 142 q 780 24 850 49 q 633 -1 710 -1 l 444 -1 q 299 24 369 -1 q 174 95 228 49 q 88 207 119 142 q 56 354 56 272 l 56 636 q 88 775 56 708 q 174 892 119 842 q 299 973 228 943 q 444 1003 369 1003 l 635 1003 m 185 369 q 208 263 186 308 q 272 185 231 217 q 370 137 314 153 q 496 121 426 121 l 594 121 q 815 181 736 121 q 894 369 893 242 l 894 607 q 872 726 893 675 q 813 813 851 778 q 718 865 774 847 q 593 883 663 883 l 485 883 q 360 865 415 883 q 265 813 304 847 q 206 726 226 778 q 185 606 185 674 l 185 369 m 625 704 l 819 704 l 819 567 l 686 485 l 825 396 l 825 224 l 554 403 l 264 224 l 264 396 l 540 567 l 264 567 l 264 704 l 456 704 l 456 794 l 625 794 l 625 704 z "}}}
